<?xml version="1.0" encoding="utf-8"?>
<!-- Generator: Adobe Illustrator 21.1.0, SVG Export Plug-In . SVG Version: 6.00 Build 0)  -->
<svg version="1.1" id="Слой_1" xmlns="http://www.w3.org/2000/svg" xmlns:xlink="http://www.w3.org/1999/xlink" x="0px" y="0px"
	 viewBox="0 0 333.2 680" style="enable-background:new 0 0 333.2 680;" xml:space="preserve">
<style type="text/css">
	.st0{fill:#9FA1A8;}
	.st1{fill:#E8EBF5;}
	.st2{fill:#FFFFF6;}
	.st3{fill:#C3C6CE;}
	.st4{fill:#5FA026;}
	.st5{fill:#FF0000;}
</style>
<title>Artbox</title>
<g>
	<g>
		<g>
			<path class="st0" d="M26.7,618.1H12.9c-1.5,0-2.8,1.2-2.8,2.6V638h3.4v-16.6H26V638h3.4v-17.3C29.4,619.3,28.2,618.1,26.7,618.1z
				"/>
			<path class="st0" d="M12.9,574.8h13.8c1.5,0,2.8,1.2,2.8,2.6V601c0,1.4-1.2,2.6-2.8,2.6H12.9c-1.5,0-2.8-1.2-2.8-2.6v-23.6
				C10.1,576,11.4,574.8,12.9,574.8z M13.6,578.1v22.3H26v-22.3H13.6z"/>
		</g>
		<rect x="18" y="596.5" class="st0" width="3.4" height="28.8"/>
		<rect x="18.2" y="553.4" class="st0" width="3.4" height="28.8"/>
	</g>
	<g>
		<g>
			<path class="st0" d="M12.9,524.6h13.8c1.5,0,2.8,1.2,2.8,2.6v23.6c0,1.4-1.2,2.6-2.8,2.6H12.9c-1.5,0-2.8-1.2-2.8-2.6v-23.6
				C10.1,525.8,11.4,524.6,12.9,524.6z M13.6,527.8v22.3H26v-22.3H13.6z"/>
			<path class="st0" d="M12.9,481.3h13.8c1.5,0,2.8,1.2,2.8,2.6v23.6c0,1.4-1.2,2.6-2.8,2.6H12.9c-1.5,0-2.8-1.2-2.8-2.6v-23.6
				C10.1,482.5,11.4,481.3,12.9,481.3z M13.6,484.6v22.3H26v-22.3H13.6z"/>
		</g>
		<rect x="18" y="503" class="st0" width="3.4" height="28.8"/>
		<rect x="18.2" y="547.1" class="st0" width="3.4" height="6.3"/>
		<rect x="18.2" y="459.9" class="st0" width="3.4" height="28.8"/>
	</g>
	<g>
		<g>
			<path class="st0" d="M12.9,431.1h13.8c1.5,0,2.8,1.2,2.8,2.6v23.6c0,1.4-1.2,2.6-2.8,2.6H12.9c-1.5,0-2.8-1.2-2.8-2.6v-23.6
				C10.1,432.3,11.4,431.1,12.9,431.1z M13.6,434.3v22.3H26v-22.3H13.6z"/>
			<path class="st0" d="M12.9,387.8h13.8c1.5,0,2.8,1.2,2.8,2.6V414c0,1.4-1.2,2.6-2.8,2.6H12.9c-1.5,0-2.8-1.2-2.8-2.6v-23.6
				C10.1,389,11.4,387.8,12.9,387.8z M13.6,391v22.3H26V391H13.6z"/>
		</g>
		<rect x="18" y="409.4" class="st0" width="3.4" height="28.8"/>
		<rect x="18.2" y="453.6" class="st0" width="3.4" height="6.3"/>
		<rect x="18.2" y="366.4" class="st0" width="3.4" height="28.8"/>
	</g>
	<g>
		<g>
			<path class="st0" d="M12.9,337.6h13.8c1.5,0,2.8,1.2,2.8,2.6v23.6c0,1.4-1.2,2.6-2.8,2.6H12.9c-1.5,0-2.8-1.2-2.8-2.6v-23.6
				C10.1,338.8,11.4,337.6,12.9,337.6z M13.6,340.8v22.3H26v-22.3H13.6z"/>
			<path class="st0" d="M12.9,294.3h13.8c1.5,0,2.8,1.2,2.8,2.6v23.6c0,1.4-1.2,2.6-2.8,2.6H12.9c-1.5,0-2.8-1.2-2.8-2.6v-23.6
				C10.1,295.5,11.4,294.3,12.9,294.3z M13.6,297.5v22.3H26v-22.3H13.6z"/>
		</g>
		<rect x="18" y="315.9" class="st0" width="3.4" height="28.8"/>
		<rect x="18.2" y="360.1" class="st0" width="3.4" height="6.3"/>
		<rect x="18.2" y="272.9" class="st0" width="3.4" height="28.8"/>
	</g>
	<g>
		<g>
			<path class="st0" d="M12.9,244.1h13.8c1.5,0,2.8,1.2,2.8,2.6v23.6c0,1.4-1.2,2.6-2.8,2.6H12.9c-1.5,0-2.8-1.2-2.8-2.6v-23.6
				C10.1,245.2,11.4,244.1,12.9,244.1z M13.6,247.3v22.3H26v-22.3H13.6z"/>
			<path class="st0" d="M12.9,200.8h13.8c1.5,0,2.8,1.2,2.8,2.6V227c0,1.4-1.2,2.6-2.8,2.6H12.9c-1.5,0-2.8-1.2-2.8-2.6v-23.6
				C10.1,202,11.4,200.8,12.9,200.8z M13.6,204v22.3H26V204H13.6z"/>
		</g>
		<rect x="18" y="222.4" class="st0" width="3.4" height="28.8"/>
		<rect x="18.2" y="266.6" class="st0" width="3.4" height="6.3"/>
		<rect x="18.2" y="179.4" class="st0" width="3.4" height="28.8"/>
	</g>
	<g>
		<g>
			<path class="st0" d="M12.9,150.6h13.8c1.5,0,2.8,1.2,2.8,2.6v23.6c0,1.4-1.2,2.6-2.8,2.6H12.9c-1.5,0-2.8-1.2-2.8-2.6v-23.6
				C10.1,151.7,11.4,150.6,12.9,150.6z M13.6,153.8v22.3H26v-22.3H13.6z"/>
			<path class="st0" d="M12.9,107.3h13.8c1.5,0,2.8,1.2,2.8,2.6v23.6c0,1.4-1.2,2.6-2.8,2.6H12.9c-1.5,0-2.8-1.2-2.8-2.6v-23.6
				C10.1,108.4,11.4,107.3,12.9,107.3z M13.6,110.5v22.3H26v-22.3H13.6z"/>
		</g>
		<rect x="18" y="128.9" class="st0" width="3.4" height="28.8"/>
		<rect x="18.2" y="173.1" class="st0" width="3.4" height="6.3"/>
		<rect x="18.2" y="85.9" class="st0" width="3.4" height="28.8"/>
	</g>
	<g>
		<g>
			<path class="st0" d="M12.9,57.1h13.8c1.5,0,2.8,1.2,2.8,2.6v23.6c0,1.4-1.2,2.6-2.8,2.6H12.9c-1.5,0-2.8-1.2-2.8-2.6V59.7
				C10.1,58.2,11.4,57.1,12.9,57.1z M13.6,60.3v22.3H26V60.3H13.6z"/>
			<path class="st0" d="M12.9,13.8h13.8c1.5,0,2.8,1.2,2.8,2.6V40c0,1.4-1.2,2.6-2.8,2.6H12.9c-1.5,0-2.8-1.2-2.8-2.6V16.4
				C10.1,14.9,11.4,13.8,12.9,13.8z M13.6,17v22.3H26V17H13.6z"/>
		</g>
		<rect x="18" y="35.4" class="st0" width="3.4" height="28.8"/>
		<rect x="18.2" y="79.6" class="st0" width="3.4" height="6.3"/>
		<rect x="18.2" class="st0" width="3.4" height="21.1"/>
	</g>
</g>
<g>
	<path class="st0" d="M180.5,536.8h-162H180.5z"/>
	<g>
		<g>
			<g>
				<path class="st0" d="M155.6,543.7V530c0-1.5,1-2.8,2.3-2.8h20.4c1.2,0,2.3,1.2,2.3,2.8v13.8c0,1.5-1,2.8-2.3,2.8h-20.4
					C156.6,546.5,155.6,545.2,155.6,543.7z M158.4,543h19.3v-12.4h-19.3V543z"/>
				<path class="st0" d="M118.1,543.7V530c0-1.5,1-2.8,2.3-2.8h20.4c1.2,0,2.3,1.2,2.3,2.8v13.8c0,1.5-1,2.8-2.3,2.8h-20.4
					C119.1,546.5,118.1,545.2,118.1,543.7z M120.9,543h19.3v-12.4h-19.3V543z"/>
			</g>
			<rect x="136.8" y="535.1" class="st0" width="24.9" height="3.4"/>
			<rect x="175.1" y="535" class="st0" width="5.4" height="3.4"/>
			<rect x="99.5" y="535" class="st0" width="24.9" height="3.4"/>
		</g>
		<g>
			<g>
				<path class="st0" d="M74.6,543.7V530c0-1.5,1-2.8,2.3-2.8h20.4c1.2,0,2.3,1.2,2.3,2.8v13.8c0,1.5-1,2.8-2.3,2.8H76.8
					C75.6,546.5,74.6,545.2,74.6,543.7z M77.4,543h19.3v-12.4H77.4V543z"/>
				<path class="st0" d="M37.1,543.7V530c0-1.5,1-2.8,2.3-2.8h20.4c1.2,0,2.3,1.2,2.3,2.8v13.8c0,1.5-1,2.8-2.3,2.8H39.3
					C38.1,546.5,37.1,545.2,37.1,543.7z M39.9,543h19.3v-12.4H39.9V543z"/>
			</g>
			<rect x="55.8" y="535.1" class="st0" width="24.9" height="3.4"/>
			<rect x="94.1" y="535" class="st0" width="5.4" height="3.4"/>
			<rect x="18.5" y="535" class="st0" width="24.9" height="3.4"/>
		</g>
	</g>
</g>
<g>
	<path class="st0" d="M181.8,316.1h-162H181.8z"/>
	<g>
		<g>
			<g>
				<path class="st0" d="M156.9,323v-13.8c0-1.5,1-2.8,2.3-2.8h20.4c1.2,0,2.3,1.2,2.3,2.8V323c0,1.5-1,2.8-2.3,2.8h-20.4
					C157.9,325.8,156.9,324.5,156.9,323z M159.7,322.3H179v-12.4h-19.3V322.3z"/>
				<path class="st0" d="M119.4,323v-13.8c0-1.5,1-2.8,2.3-2.8h20.4c1.2,0,2.3,1.2,2.3,2.8V323c0,1.5-1,2.8-2.3,2.8h-20.4
					C120.4,325.8,119.4,324.5,119.4,323z M122.2,322.3h19.3v-12.4h-19.3V322.3z"/>
			</g>
			<rect x="138.1" y="314.4" class="st0" width="24.9" height="3.4"/>
			<rect x="176.4" y="314.3" class="st0" width="5.4" height="3.4"/>
			<rect x="100.8" y="314.3" class="st0" width="24.9" height="3.4"/>
		</g>
		<g>
			<g>
				<path class="st0" d="M75.8,323v-13.8c0-1.5,1-2.8,2.3-2.8h20.4c1.2,0,2.3,1.2,2.3,2.8V323c0,1.5-1,2.8-2.3,2.8H78.1
					C76.9,325.8,75.8,324.5,75.8,323z M78.7,322.3H98v-12.4H78.7V322.3z"/>
				<path class="st0" d="M38.3,323v-13.8c0-1.5,1-2.8,2.3-2.8H61c1.2,0,2.3,1.2,2.3,2.8V323c0,1.5-1,2.8-2.3,2.8H40.6
					C39.4,325.8,38.3,324.5,38.3,323z M41.2,322.3h19.3v-12.4H41.2V322.3z"/>
			</g>
			<rect x="57.1" y="314.4" class="st0" width="24.9" height="3.4"/>
			<rect x="95.4" y="314.3" class="st0" width="5.4" height="3.4"/>
			<rect x="19.8" y="314.3" class="st0" width="24.9" height="3.4"/>
		</g>
	</g>
</g>
<g>
	<path class="st0" d="M174.8,97.3h-162H174.8z"/>
	<g>
		<g>
			<g>
				<path class="st0" d="M149.9,104.2V90.4c0-1.5,1-2.8,2.3-2.8h20.4c1.2,0,2.3,1.2,2.3,2.8v13.8c0,1.5-1,2.8-2.3,2.8h-20.4
					C150.9,106.9,149.9,105.7,149.9,104.2z M152.7,103.5H172V91.1h-19.3V103.5z"/>
				<path class="st0" d="M112.3,104.2V90.4c0-1.5,1-2.8,2.3-2.8H135c1.2,0,2.3,1.2,2.3,2.8v13.8c0,1.5-1,2.8-2.3,2.8h-20.4
					C113.4,106.9,112.3,105.7,112.3,104.2z M115.2,103.5h19.3V91.1h-19.3V103.5z"/>
			</g>
			<rect x="131.1" y="95.6" class="st0" width="24.9" height="3.4"/>
			<rect x="169.4" y="95.5" class="st0" width="5.4" height="3.4"/>
			<rect x="93.8" y="95.5" class="st0" width="24.9" height="3.4"/>
		</g>
		<g>
			<g>
				<path class="st0" d="M68.8,104.2V90.4c0-1.5,1-2.8,2.3-2.8h20.4c1.2,0,2.3,1.2,2.3,2.8v13.8c0,1.5-1,2.8-2.3,2.8H71.1
					C69.8,106.9,68.8,105.7,68.8,104.2z M71.6,103.5H91V91.1H71.6V103.5z"/>
				<path class="st0" d="M31.3,104.2V90.4c0-1.5,1-2.8,2.3-2.8H54c1.2,0,2.3,1.2,2.3,2.8v13.8c0,1.5-1,2.8-2.3,2.8H33.6
					C32.3,106.9,31.3,105.7,31.3,104.2z M34.1,103.5h19.3V91.1H34.1V103.5z"/>
			</g>
			<rect x="50.1" y="95.6" class="st0" width="24.9" height="3.4"/>
			<rect x="88.3" y="95.5" class="st0" width="5.4" height="3.4"/>
			<rect x="12.8" y="95.5" class="st0" width="24.9" height="3.4"/>
		</g>
	</g>
</g>
<rect x="180.5" y="224.9" class="st1" width="151.6" height="185"/>
<rect x="179.5" y="438.6" class="st1" width="151.6" height="185"/>
<rect x="180.1" y="8.5" class="st1" width="151.6" height="185"/>
<rect x="178.6" y="223.6" class="st2" width="151.6" height="185"/>
<g>
	<rect x="222.7" y="254.8" class="st3" width="95.7" height="21.7"/>
	<rect x="187.6" y="254.8" class="st3" width="21.7" height="21.7"/>
</g>
<g>
	<rect x="222.7" y="288.7" class="st3" width="95.7" height="21.7"/>
	<rect x="187.6" y="288.7" class="st3" width="21.7" height="21.7"/>
</g>
<g>
	<rect x="222.7" y="322.5" class="st3" width="95.7" height="21.7"/>
	<rect x="187.6" y="322.5" class="st3" width="21.7" height="21.7"/>
</g>
<g>
	<rect x="222.7" y="356.3" class="st3" width="95.7" height="21.7"/>
	<rect x="187.6" y="356.3" class="st3" width="21.7" height="21.7"/>
</g>
<g>
	<path class="st4" d="M200.1,347.8l-1.5-3.7c-2.6-6.6-6.8-12.7-12-17.5l1.7-1.9c4.6,4.3,8.5,9.5,11.2,15.2
		c2.2-6.6,5.8-12.6,10.6-17.6l1.9,1.8c-5.3,5.6-9.1,12.5-11,19.9L200.1,347.8z"/>
</g>
<g>
	<rect x="181.4" y="439.3" class="st1" width="151.6" height="185"/>
	<rect x="179.5" y="438.6" class="st2" width="151.6" height="185"/>
	<g>
		<rect x="221.7" y="468.6" class="st3" width="95.7" height="21.7"/>
		<rect x="186.7" y="468.6" class="st3" width="21.7" height="21.7"/>
	</g>
	<g>
		<rect x="221.7" y="502.4" class="st3" width="95.7" height="21.7"/>
		<rect x="186.7" y="502.4" class="st3" width="21.7" height="21.7"/>
	</g>
	<g>
		<rect x="221.7" y="536.3" class="st3" width="95.7" height="21.7"/>
		<rect x="186.7" y="536.3" class="st3" width="21.7" height="21.7"/>
	</g>
	<g>
		<rect x="221.7" y="570.1" class="st3" width="95.7" height="21.7"/>
		<rect x="186.7" y="570.1" class="st3" width="21.7" height="21.7"/>
	</g>
</g>
<g>
	<g>
		<path class="st5" d="M207.3,487.2c-5.3-6.9-12.7-12.5-20.8-15.6l0.9-2.4c8.7,3.3,16.3,9,22,16.4L207.3,487.2z"/>
	</g>
	<g>
		<path class="st5" d="M188.3,488.1c-0.1-2.2,1.6-4,2.5-5l12.2-13.2l1.9,1.7l-12.2,13.2c-1,1-1.9,2.1-1.8,3.2L188.3,488.1z"/>
	</g>
</g>
<g>
	<rect x="181.4" y="8.5" class="st1" width="151.6" height="185"/>
	<rect x="180.1" y="7.3" class="st2" width="151.6" height="185"/>
	<g>
		<rect x="222.4" y="37.2" class="st3" width="95.7" height="21.7"/>
		<rect x="187.3" y="37.2" class="st3" width="21.7" height="21.7"/>
	</g>
	<g>
		<rect x="222.4" y="71.1" class="st3" width="95.7" height="21.7"/>
		<rect x="187.3" y="71.1" class="st3" width="21.7" height="21.7"/>
	</g>
	<g>
		<rect x="222.4" y="104.9" class="st3" width="95.7" height="21.7"/>
		<rect x="187.3" y="104.9" class="st3" width="21.7" height="21.7"/>
	</g>
	<g>
		<rect x="222.4" y="138.7" class="st3" width="95.7" height="21.7"/>
		<rect x="187.3" y="138.7" class="st3" width="21.7" height="21.7"/>
	</g>
</g>
<g>
	<g>
		<path class="st5" d="M195.2,94.6l-2.5-0.5c1.8-9.1,6.2-17.6,12.5-24.4l1.9,1.7C201.1,77.9,196.9,86.1,195.2,94.6z"/>
	</g>
	<g>
		<path class="st5" d="M210.2,90.2c-1.8,0-3.4-1.1-4.5-1.7l-15-9.8l1.4-2.1l15,9.8c1.2,0.8,2.4,1.5,3.5,1.3l0.5,2.5
			C210.8,90.2,210.5,90.2,210.2,90.2z"/>
	</g>
</g>
<g>
	<g>
		<path class="st0" d="M25.4,619.4H11.6c-1.5,0-2.8,1.2-2.8,2.6v16h3.4v-15.3h12.4V638h3.4v-16C28.1,620.5,26.9,619.4,25.4,619.4z"
			/>
		<path class="st0" d="M11.6,576.1h13.8c1.5,0,2.8,1.2,2.8,2.6v23.6c0,1.4-1.2,2.6-2.8,2.6H11.6c-1.5,0-2.8-1.2-2.8-2.6v-23.6
			C8.8,577.3,10.1,576.1,11.6,576.1z M12.3,579.3v22.3h12.4v-22.3H12.3z"/>
	</g>
	<rect x="16.8" y="597.7" class="st0" width="3.4" height="28.8"/>
	<rect x="16.9" y="554.7" class="st0" width="3.4" height="28.8"/>
</g>
<g>
	<g>
		<path class="st0" d="M11.6,525.9h13.8c1.5,0,2.8,1.2,2.8,2.6v23.6c0,1.4-1.2,2.6-2.8,2.6H11.6c-1.5,0-2.8-1.2-2.8-2.6v-23.6
			C8.8,527,10.1,525.9,11.6,525.9z M12.3,529.1v22.3h12.4v-22.3H12.3z"/>
		<path class="st0" d="M11.6,482.6h13.8c1.5,0,2.8,1.2,2.8,2.6v23.6c0,1.4-1.2,2.6-2.8,2.6H11.6c-1.5,0-2.8-1.2-2.8-2.6v-23.6
			C8.8,483.7,10.1,482.6,11.6,482.6z M12.3,485.8v22.3h12.4v-22.3H12.3z"/>
	</g>
	<rect x="16.8" y="504.2" class="st0" width="3.4" height="28.8"/>
	<rect x="16.9" y="548.4" class="st0" width="3.4" height="6.3"/>
	<rect x="16.9" y="461.2" class="st0" width="3.4" height="28.8"/>
</g>
<g>
	<g>
		<path class="st0" d="M11.6,432.4h13.8c1.5,0,2.8,1.2,2.8,2.6v23.6c0,1.4-1.2,2.6-2.8,2.6H11.6c-1.5,0-2.8-1.2-2.8-2.6V435
			C8.8,433.5,10.1,432.4,11.6,432.4z M12.3,435.6v22.3h12.4v-22.3H12.3z"/>
		<path class="st0" d="M11.6,389.1h13.8c1.5,0,2.8,1.2,2.8,2.6v23.6c0,1.4-1.2,2.6-2.8,2.6H11.6c-1.5,0-2.8-1.2-2.8-2.6v-23.6
			C8.8,390.2,10.1,389.1,11.6,389.1z M12.3,392.3v22.3h12.4v-22.3H12.3z"/>
	</g>
	<rect x="16.8" y="410.7" class="st0" width="3.4" height="28.8"/>
	<rect x="16.9" y="454.9" class="st0" width="3.4" height="6.3"/>
	<rect x="16.9" y="367.6" class="st0" width="3.4" height="28.8"/>
</g>
<g>
	<g>
		<path class="st0" d="M11.6,338.9h13.8c1.5,0,2.8,1.2,2.8,2.6V365c0,1.4-1.2,2.6-2.8,2.6H11.6c-1.5,0-2.8-1.2-2.8-2.6v-23.6
			C8.8,340,10.1,338.9,11.6,338.9z M12.3,342.1v22.3h12.4v-22.3H12.3z"/>
		<path class="st0" d="M11.6,295.6h13.8c1.5,0,2.8,1.2,2.8,2.6v23.6c0,1.4-1.2,2.6-2.8,2.6H11.6c-1.5,0-2.8-1.2-2.8-2.6v-23.6
			C8.8,296.7,10.1,295.6,11.6,295.6z M12.3,298.8v22.3h12.4v-22.3H12.3z"/>
	</g>
	<rect x="16.8" y="317.2" class="st0" width="3.4" height="28.8"/>
	<rect x="16.9" y="361.4" class="st0" width="3.4" height="6.3"/>
	<rect x="16.9" y="274.1" class="st0" width="3.4" height="28.8"/>
</g>
<g>
	<g>
		<path class="st0" d="M11.6,245.4h13.8c1.5,0,2.8,1.2,2.8,2.6v23.6c0,1.4-1.2,2.6-2.8,2.6H11.6c-1.5,0-2.8-1.2-2.8-2.6v-23.6
			C8.8,246.5,10.1,245.4,11.6,245.4z M12.3,248.6v22.3h12.4v-22.3H12.3z"/>
		<path class="st0" d="M11.6,202.1h13.8c1.5,0,2.8,1.2,2.8,2.6v23.6c0,1.4-1.2,2.6-2.8,2.6H11.6c-1.5,0-2.8-1.2-2.8-2.6v-23.6
			C8.8,203.2,10.1,202.1,11.6,202.1z M12.3,205.3v22.3h12.4v-22.3H12.3z"/>
	</g>
	<rect x="16.8" y="223.7" class="st0" width="3.4" height="28.8"/>
	<rect x="16.9" y="267.9" class="st0" width="3.4" height="6.3"/>
	<rect x="16.9" y="180.6" class="st0" width="3.4" height="28.8"/>
</g>
<g>
	<g>
		<path class="st0" d="M11.6,151.8h13.8c1.5,0,2.8,1.2,2.8,2.6V178c0,1.4-1.2,2.6-2.8,2.6H11.6c-1.5,0-2.8-1.2-2.8-2.6v-23.6
			C8.8,153,10.1,151.8,11.6,151.8z M12.3,155.1v22.3h12.4v-22.3H12.3z"/>
		<path class="st0" d="M11.6,108.6h13.8c1.5,0,2.8,1.2,2.8,2.6v23.6c0,1.4-1.2,2.6-2.8,2.6H11.6c-1.5,0-2.8-1.2-2.8-2.6v-23.6
			C8.8,109.7,10.1,108.6,11.6,108.6z M12.3,111.8v22.3h12.4v-22.3H12.3z"/>
	</g>
	<rect x="16.8" y="130.2" class="st0" width="3.4" height="28.8"/>
	<rect x="16.9" y="174.4" class="st0" width="3.4" height="6.3"/>
	<rect x="16.9" y="87.1" class="st0" width="3.4" height="28.8"/>
</g>
<g>
	<g>
		<path class="st0" d="M11.6,58.3h13.8c1.5,0,2.8,1.2,2.8,2.6v23.6c0,1.4-1.2,2.6-2.8,2.6H11.6c-1.5,0-2.8-1.2-2.8-2.6V60.9
			C8.8,59.5,10.1,58.3,11.6,58.3z M12.3,61.6v22.3h12.4V61.6H12.3z"/>
		<path class="st0" d="M11.6,15h13.8c1.5,0,2.8,1.2,2.8,2.6v23.6c0,1.4-1.2,2.6-2.8,2.6H11.6c-1.5,0-2.8-1.2-2.8-2.6V17.6
			C8.8,16.2,10.1,15,11.6,15z M12.3,18.3v22.3h12.4V18.3H12.3z"/>
	</g>
	<rect x="16.8" y="36.7" class="st0" width="3.4" height="28.8"/>
	<rect x="16.9" y="80.8" class="st0" width="3.4" height="6.3"/>
	<rect x="16.9" class="st0" width="3.4" height="22.4"/>
</g>
<g>
	<path class="st0" d="M179.3,538.1h-162H179.3z"/>
	<g>
		<g>
			<g>
				<path class="st0" d="M154.3,545v-13.8c0-1.5,1-2.8,2.3-2.8H177c1.2,0,2.3,1.2,2.3,2.8V545c0,1.5-1,2.8-2.3,2.8h-20.4
					C155.3,547.8,154.3,546.5,154.3,545z M157.1,544.3h19.3v-12.4h-19.3V544.3z"/>
				<path class="st0" d="M116.8,545v-13.8c0-1.5,1-2.8,2.3-2.8h20.4c1.2,0,2.3,1.2,2.3,2.8V545c0,1.5-1,2.8-2.3,2.8h-20.4
					C117.8,547.8,116.8,546.5,116.8,545z M119.6,544.3h19.3v-12.4h-19.3V544.3z"/>
			</g>
			<rect x="135.6" y="536.4" class="st0" width="24.9" height="3.4"/>
			<rect x="98.2" y="536.3" class="st0" width="24.9" height="3.4"/>
		</g>
		<g>
			<g>
				<path class="st0" d="M73.3,545v-13.8c0-1.5,1-2.8,2.3-2.8H96c1.2,0,2.3,1.2,2.3,2.8V545c0,1.5-1,2.8-2.3,2.8H75.5
					C74.3,547.8,73.3,546.5,73.3,545z M76.1,544.3h19.3v-12.4H76.1V544.3z"/>
				<path class="st0" d="M35.8,545v-13.8c0-1.5,1-2.8,2.3-2.8h20.4c1.2,0,2.3,1.2,2.3,2.8V545c0,1.5-1,2.8-2.3,2.8H38
					C36.8,547.8,35.8,546.5,35.8,545z M38.6,544.3h19.3v-12.4H38.6V544.3z"/>
			</g>
			<rect x="54.5" y="536.4" class="st0" width="24.9" height="3.4"/>
			<rect x="92.8" y="536.3" class="st0" width="5.4" height="3.4"/>
			<rect x="17.2" y="536.3" class="st0" width="24.9" height="3.4"/>
		</g>
	</g>
</g>
<g>
	<path class="st0" d="M180.5,317.4h-162H180.5z"/>
	<g>
		<g>
			<g>
				<path class="st0" d="M155.6,324.3v-13.8c0-1.5,1-2.8,2.3-2.8h20.4c1.2,0,2.3,1.2,2.3,2.8v13.8c0,1.5-1,2.8-2.3,2.8h-20.4
					C156.6,327,155.6,325.8,155.6,324.3z M158.4,323.6h19.3v-12.4h-19.3V323.6z"/>
				<path class="st0" d="M118.1,324.3v-13.8c0-1.5,1-2.8,2.3-2.8h20.4c1.2,0,2.3,1.2,2.3,2.8v13.8c0,1.5-1,2.8-2.3,2.8h-20.4
					C119.1,327,118.1,325.8,118.1,324.3z M120.9,323.6h19.3v-12.4h-19.3V323.6z"/>
			</g>
			<rect x="136.8" y="315.7" class="st0" width="24.9" height="3.4"/>
			<rect x="99.5" y="315.5" class="st0" width="24.9" height="3.4"/>
		</g>
		<g>
			<g>
				<path class="st0" d="M74.6,324.3v-13.8c0-1.5,1-2.8,2.3-2.8h20.4c1.2,0,2.3,1.2,2.3,2.8v13.8c0,1.5-1,2.8-2.3,2.8H76.8
					C75.6,327,74.6,325.8,74.6,324.3z M77.4,323.6h19.3v-12.4H77.4V323.6z"/>
				<path class="st0" d="M37.1,324.3v-13.8c0-1.5,1-2.8,2.3-2.8h20.4c1.2,0,2.3,1.2,2.3,2.8v13.8c0,1.5-1,2.8-2.3,2.8H39.3
					C38.1,327,37.1,325.8,37.1,324.3z M39.9,323.6h19.3v-12.4H39.9V323.6z"/>
			</g>
			<rect x="55.8" y="315.7" class="st0" width="24.9" height="3.4"/>
			<rect x="94.1" y="315.5" class="st0" width="5.4" height="3.4"/>
			<rect x="18.5" y="315.5" class="st0" width="24.9" height="3.4"/>
		</g>
	</g>
</g>
<g>
	<path class="st0" d="M173.5,98.6h-162H173.5z"/>
	<g>
		<g>
			<g>
				<path class="st0" d="M148.6,105.5V91.7c0-1.5,1-2.8,2.3-2.8h20.4c1.2,0,2.3,1.2,2.3,2.8v13.8c0,1.5-1,2.8-2.3,2.8h-20.4
					C149.6,108.2,148.6,107,148.6,105.5z M151.4,104.8h19.3V92.4h-19.3V104.8z"/>
				<path class="st0" d="M111.1,105.5V91.7c0-1.5,1-2.8,2.3-2.8h20.4c1.2,0,2.3,1.2,2.3,2.8v13.8c0,1.5-1,2.8-2.3,2.8h-20.4
					C112.1,108.2,111.1,107,111.1,105.5z M113.9,104.8h19.3V92.4h-19.3V104.8z"/>
			</g>
			<rect x="129.8" y="96.8" class="st0" width="24.9" height="3.4"/>
			<rect x="92.5" y="96.7" class="st0" width="24.9" height="3.4"/>
		</g>
		<g>
			<g>
				<path class="st0" d="M67.6,105.5V91.7c0-1.5,1-2.8,2.3-2.8h20.4c1.2,0,2.3,1.2,2.3,2.8v13.8c0,1.5-1,2.8-2.3,2.8H69.8
					C68.6,108.2,67.6,107,67.6,105.5z M70.4,104.8h19.3V92.4H70.4V104.8z"/>
				<path class="st0" d="M30,105.5V91.7c0-1.5,1-2.8,2.3-2.8h20.4c1.2,0,2.3,1.2,2.3,2.8v13.8c0,1.5-1,2.8-2.3,2.8H32.3
					C31.1,108.2,30,107,30,105.5z M32.9,104.8h19.3V92.4H32.9V104.8z"/>
			</g>
			<rect x="48.8" y="96.8" class="st0" width="24.9" height="3.4"/>
			<rect x="87.1" y="96.7" class="st0" width="5.4" height="3.4"/>
			<rect x="11.5" y="96.7" class="st0" width="24.9" height="3.4"/>
		</g>
	</g>
</g>
<g>
	<g>
		<path class="st0" d="M25.5,662.5H11.7c-1.5,0-2.8,1.2-2.8,2.6v16h3.4v-15.3h12.4V681h3.4v-16C28.3,663.6,27,662.5,25.5,662.5z"/>
		<path class="st0" d="M11.7,619.2h13.8c1.5,0,2.8,1.2,2.8,2.6v23.6c0,1.4-1.2,2.6-2.8,2.6H11.7c-1.5,0-2.8-1.2-2.8-2.6v-23.6
			C9,620.3,10.2,619.2,11.7,619.2z M12.4,622.4v22.3h12.4v-22.3H12.4z"/>
	</g>
	<rect x="16.9" y="640.8" class="st0" width="3.4" height="28.8"/>
	<rect x="17" y="597.7" class="st0" width="3.4" height="28.8"/>
</g>
<g>
	<g>
		<path class="st0" d="M26.7,661H12.9c-1.5,0-2.8,1.2-2.8,2.6v16h3.4v-15.3H26v15.3h3.4v-16C29.4,662.2,28.2,661,26.7,661z"/>
		<path class="st0" d="M12.9,617.7h13.8c1.5,0,2.8,1.2,2.8,2.6v23.6c0,1.4-1.2,2.6-2.8,2.6H12.9c-1.5,0-2.8-1.2-2.8-2.6v-23.6
			C10.1,618.9,11.4,617.7,12.9,617.7z M13.6,621v22.3H26V621H13.6z"/>
	</g>
	<rect x="18" y="639.4" class="st0" width="3.4" height="28.8"/>
	<rect x="18.2" y="596.3" class="st0" width="3.4" height="28.8"/>
</g>
</svg>
