<?xml version="1.0" encoding="utf-8"?>
<!-- Generator: Adobe Illustrator 21.1.0, SVG Export Plug-In . SVG Version: 6.00 Build 0)  -->
<svg version="1.1" id="Слой_1" xmlns="http://www.w3.org/2000/svg" xmlns:xlink="http://www.w3.org/1999/xlink" x="0px" y="0px"
	 viewBox="0 0 63 63" style="enable-background:new 0 0 63 63;" xml:space="preserve">
<style type="text/css">
	.st0{fill:#9B5AB6;}
	.st1{fill:#834896;}
	.st2{fill:#97CCF6;}
	.st3{fill:#F1C30F;}
	.st4{fill:#D8D8D8;}
	.st5{fill:#E67365;}
</style>
<circle class="st0" cx="31.5" cy="31.5" r="31.5"/>
<path class="st1" d="M62.8,34.7L49.3,21.2c-0.7-0.8-1.7-1.3-2.8-1.3h-30c-2.1,0-3.9,1.9-3.9,4.3v14.6c0,1.3,0.6,2.5,1.4,3.3
	l20.7,20.7C49.5,61.3,61.3,49.5,62.8,34.7z"/>
<path class="st2" d="M21.8,28.7L21.8,28.7C21.8,28.7,21.8,28.7,21.8,28.7L21.8,28.7L21.8,28.7c-0.6-2.6,0.3-4.6,2.2-6.1
	c-2.2,0.5-3.6,1.7-3.7,4l0,0c-2.2-0.5-3.7,0.4-4.9,2.4C17.4,27.6,19.5,27.3,21.8,28.7z"/>
<path class="st3" d="M44.9,25.8h-4.4c-1.4,0-2.5,1.1-2.5,2.5v2c0,1.4,1.1,2.5,2.5,2.5h4.4c1.4,0,2.5-1.1,2.5-2.5v-2
	C47.4,26.9,46.3,25.8,44.9,25.8z"/>
<g>
	<path class="st4" d="M24.9,40.6h-0.7v-0.5h0.6c0,0,0.1,0,0.1-0.1v-0.2c0,0,0-0.1-0.1-0.1h-0.6v-0.4h0.6c0,0,0.1,0,0.1-0.1v-0.2
		c0,0,0-0.1-0.1-0.1H24c0,0-0.1,0-0.1,0.1v1.7c0,0,0,0.1,0.1,0.1h0.9c0,0,0.1,0,0.1-0.1L24.9,40.6C25,40.6,25,40.6,24.9,40.6z"/>
	<path class="st4" d="M21.7,37.5c0.1-0.1,0.1-0.2,0.1-0.3c0-0.1,0-0.2-0.1-0.3l-0.4-0.4l0.4-0.4c0.1-0.1,0.1-0.2,0.1-0.3
		c0-0.1,0-0.2-0.1-0.3c-0.1-0.1-0.4-0.1-0.5,0l-0.4,0.4l-0.4-0.4c-0.1-0.1-0.4-0.1-0.5,0c-0.1,0.1-0.1,0.4,0,0.5l0.4,0.4L19.9,37
		c-0.1,0.1-0.1,0.2-0.1,0.3c0,0.1,0,0.2,0.1,0.3c0.1,0.1,0.4,0.1,0.5,0l0.4-0.4l0.4,0.4c0.1,0.1,0.2,0.1,0.3,0.1
		C21.5,37.6,21.6,37.6,21.7,37.5z"/>
	<path class="st4" d="M22.9,39.1C22.9,39.1,22.9,39.1,22.9,39.1l-0.4-0.1c0,0-0.1,0-0.1,0l-0.3,0.8c0,0.1-0.1,0.2-0.1,0.3
		c0-0.1-0.1-0.2-0.1-0.3l-0.3-0.8c0,0,0,0-0.1,0h-0.3c0,0-0.1,0-0.1,0.1l-0.1,1.7c0,0,0,0,0,0.1c0,0,0,0,0.1,0h0.2
		c0,0,0.1,0,0.1-0.1l0-0.7c0-0.1,0-0.2,0-0.3c0,0.1,0,0.1,0.1,0.2l0.3,0.8c0,0,0,0.1,0.1,0.1h0.2c0,0,0.1,0,0.1-0.1l0.3-0.8
		c0-0.1,0.1-0.2,0.1-0.2c0,0.1,0,0.2,0,0.3l0,0.7c0,0,0,0.1,0.1,0.1h0.2l0,0c0,0,0.1,0,0.1-0.1c0,0,0,0,0,0L22.9,39.1z"/>
	<path class="st4" d="M28.7,39.1h-0.2c0,0-0.1,0-0.1,0.1v0.7c0,0.1,0,0.2,0,0.4c0-0.1-0.1-0.2-0.1-0.2l-0.5-0.9c0,0,0,0-0.1,0h-0.2
		c0,0-0.1,0-0.1,0.1v1.7c0,0,0,0.1,0.1,0.1h0.2c0,0,0.1,0,0.1-0.1v-0.7c0-0.1,0-0.3,0-0.4c0,0.1,0.1,0.2,0.2,0.3l0.5,0.8
		c0,0,0,0,0.1,0h0.2c0,0,0.1,0,0.1-0.1L28.7,39.1C28.8,39.1,28.7,39.1,28.7,39.1z"/>
	<path class="st4" d="M29.1,35.7c-0.1-0.1-0.4-0.1-0.5,0l-0.4,0.4l-0.4-0.4c-0.1-0.1-0.4-0.1-0.5,0c-0.1,0.1-0.1,0.2-0.1,0.3
		c0,0.1,0,0.2,0.1,0.3l0.4,0.4L27.2,37c-0.1,0.1-0.1,0.4,0,0.5c0.1,0.1,0.4,0.1,0.5,0l0.4-0.4l0.4,0.4c0.1,0.1,0.2,0.1,0.3,0.1
		c0.1,0,0.2,0,0.3-0.1c0.2-0.1,0.2-0.4,0-0.5l-0.4-0.4l0.4-0.4C29.2,36.1,29.2,35.9,29.1,35.7z"/>
	<path class="st4" d="M17,37.6c0.1,0,0.2,0,0.3-0.1c0.1-0.1,0.1-0.2,0.1-0.3c0-0.1,0-0.2-0.1-0.3l-0.4-0.4l0.4-0.4
		c0.1-0.1,0.2-0.4,0-0.5c-0.1-0.1-0.4-0.1-0.5,0l-0.4,0.4L16,35.7c-0.1-0.1-0.4-0.1-0.5,0c-0.1,0.1-0.2,0.4,0,0.5l0.4,0.4L15.4,37
		c-0.1,0.1-0.1,0.2-0.1,0.3c0,0.1,0,0.2,0.1,0.3c0.1,0.1,0.4,0.1,0.5,0l0.4-0.4l0.4,0.4C16.8,37.6,16.9,37.6,17,37.6z"/>
	<path class="st4" d="M30.6,39.1C30.6,39.1,30.6,39.1,30.6,39.1l-0.3-0.1c0,0-0.1,0-0.1,0.1l-0.6,1.7c0,0,0,0,0,0.1c0,0,0,0,0.1,0
		H30c0,0,0.1,0,0.1-0.1l0.2-0.5h0.5l0.2,0.5c0,0,0,0.1,0.1,0.1h0.2l0,0c0,0,0.1,0,0.1-0.1c0,0,0,0,0,0L30.6,39.1z"/>
	<path class="st4" d="M19.3,37.6c0.1,0,0.2,0,0.3-0.1c0.1-0.1,0.1-0.2,0.1-0.3c0-0.1,0-0.2-0.1-0.3l-0.4-0.4l0.4-0.4
		c0.1-0.1,0.2-0.4,0-0.5c-0.1-0.1-0.4-0.1-0.5,0l-0.4,0.4l-0.4-0.4c-0.1-0.1-0.4-0.1-0.5,0c-0.1,0.1-0.2,0.4,0,0.5l0.4,0.4L17.8,37
		c-0.1,0.1-0.1,0.2-0.1,0.3c0,0.1,0,0.2,0.1,0.3c0.1,0.1,0.4,0.1,0.5,0l0.4-0.4l0.4,0.4C19.1,37.6,19.2,37.6,19.3,37.6z"/>
	<path class="st4" d="M19.7,39.1C19.7,39.1,19.6,39.1,19.7,39.1l-0.3-0.1c0,0-0.1,0-0.1,0.1l-0.6,1.7c0,0,0,0,0,0.1c0,0,0,0,0.1,0
		H19c0,0,0.1,0,0.1-0.1l0.2-0.5h0.5l0.2,0.5c0,0,0,0.1,0.1,0.1h0.2h0c0,0,0.1,0,0.1-0.1c0,0,0,0,0,0L19.7,39.1z"/>
	<path class="st4" d="M17.7,39.1h-0.2c0,0-0.1,0-0.1,0.1v0.7c0,0.1,0,0.2,0,0.4c0-0.1-0.1-0.2-0.1-0.2l-0.5-0.9c0,0,0,0-0.1,0h-0.2
		c0,0-0.1,0-0.1,0.1v1.7c0,0,0,0.1,0.1,0.1h0.2c0,0,0.1,0,0.1-0.1v-0.7c0-0.1,0-0.3,0-0.4c0,0.1,0.1,0.2,0.2,0.3l0.5,0.8
		c0,0,0,0,0.1,0h0.2c0,0,0.1,0,0.1-0.1L17.7,39.1C17.8,39.1,17.8,39.1,17.7,39.1z"/>
	<path class="st4" d="M24.1,37.3c0-0.1,0-0.2-0.1-0.3l-0.4-0.4l0.4-0.4c0.1-0.1,0.1-0.2,0.1-0.3c0-0.1,0-0.2-0.1-0.3
		c-0.1-0.1-0.4-0.1-0.5,0l-0.4,0.4l-0.4-0.4c-0.1-0.1-0.4-0.1-0.5,0c-0.1,0.1-0.2,0.4,0,0.5l0.4,0.4L22.2,37
		c-0.1,0.1-0.1,0.2-0.1,0.3c0,0.1,0,0.2,0.1,0.3c0.1,0.1,0.4,0.1,0.5,0l0.4-0.4l0.4,0.4c0.1,0.1,0.2,0.1,0.3,0.1
		c0.1,0,0.2,0,0.3-0.1C24.1,37.5,24.1,37.4,24.1,37.3z"/>
	<path class="st4" d="M42.5,35.7c-0.1-0.1-0.4-0.1-0.5,0l-0.4,0.4l-0.4-0.4c-0.1-0.1-0.4-0.1-0.5,0c-0.1,0.1-0.1,0.4,0,0.5l0.4,0.4
		L40.7,37c-0.1,0.1-0.1,0.2-0.1,0.3c0,0.1,0,0.2,0.1,0.3c0.1,0.1,0.4,0.1,0.5,0l0.4-0.4l0.4,0.4c0.1,0.1,0.2,0.1,0.3,0.1
		c0.1,0,0.2,0,0.3-0.1c0.1-0.1,0.2-0.4,0-0.5l-0.4-0.4l0.4-0.4C42.7,36.1,42.7,35.9,42.5,35.7z"/>
	<path class="st4" d="M31.5,36c0-0.1,0-0.2-0.1-0.3c-0.1-0.1-0.4-0.1-0.5,0l-0.4,0.4l-0.4-0.4c-0.1-0.1-0.4-0.1-0.5,0
		c-0.2,0.1-0.2,0.4,0,0.5l0.4,0.4L29.5,37c-0.1,0.1-0.1,0.2-0.1,0.3c0,0.1,0,0.2,0.1,0.3c0.1,0.1,0.4,0.1,0.5,0l0.4-0.4l0.4,0.4
		c0.1,0.1,0.2,0.1,0.3,0.1c0.1,0,0.2,0,0.3-0.1c0.1-0.1,0.1-0.2,0.1-0.3c0-0.1,0-0.2-0.1-0.3L31,36.6l0.4-0.4
		C31.4,36.2,31.5,36.1,31.5,36z"/>
	<path class="st4" d="M47,35.7c-0.1-0.1-0.4-0.1-0.5,0L46,36.1l-0.4-0.4c-0.1-0.1-0.4-0.1-0.5,0c-0.1,0.1-0.1,0.2-0.1,0.3
		c0,0.1,0,0.2,0.1,0.3l0.4,0.4L45.1,37c-0.1,0.1-0.2,0.4,0,0.5c0.1,0.1,0.4,0.1,0.5,0l0.4-0.4l0.4,0.4c0.1,0.1,0.2,0.1,0.3,0.1
		c0.1,0,0.2,0,0.3-0.1c0.1-0.1,0.2-0.4,0-0.5l-0.4-0.4l0.4-0.4C47.1,36.1,47.1,35.9,47,35.7z"/>
	<path class="st4" d="M44.6,35.7c-0.1-0.1-0.4-0.1-0.5,0l-0.4,0.4l-0.4-0.4c-0.1-0.1-0.4-0.1-0.5,0c-0.1,0.1-0.1,0.2-0.1,0.3
		c0,0.1,0,0.2,0.1,0.3l0.4,0.4L42.8,37c-0.1,0.1-0.1,0.4,0,0.5c0.1,0.1,0.4,0.1,0.5,0l0.4-0.4l0.4,0.4c0.1,0.1,0.2,0.1,0.3,0.1
		c0.1,0,0.2,0,0.3-0.1c0.1-0.1,0.1-0.2,0.1-0.3c0-0.1,0-0.2-0.1-0.3l-0.4-0.4l0.4-0.4C44.8,36.1,44.8,35.9,44.6,35.7z"/>
	<path class="st4" d="M33.9,39.1C33.9,39.1,33.8,39.1,33.9,39.1l-0.4-0.1c0,0-0.1,0-0.1,0l-0.3,0.8c0,0.1-0.1,0.2-0.1,0.3
		c0-0.1-0.1-0.2-0.1-0.3l-0.3-0.8c0,0,0,0-0.1,0h-0.3c0,0-0.1,0-0.1,0.1l-0.1,1.7c0,0,0,0,0,0.1c0,0,0,0,0.1,0h0.2
		c0,0,0.1,0,0.1-0.1l0-0.7c0-0.1,0-0.2,0-0.3c0,0.1,0,0.1,0.1,0.2l0.3,0.8c0,0,0,0.1,0.1,0.1h0.2c0,0,0.1,0,0.1-0.1l0.3-0.8
		c0-0.1,0.1-0.2,0.1-0.2c0,0.1,0,0.2,0,0.3l0,0.7c0,0,0,0.1,0.1,0.1h0.2h0c0,0,0.1,0,0.1-0.1c0,0,0,0,0,0L33.9,39.1z"/>
	<path class="st4" d="M32.5,37.1l0.4,0.4c0.1,0.1,0.2,0.1,0.3,0.1c0.1,0,0.2,0,0.3-0.1c0.1-0.1,0.2-0.4,0-0.5l-0.4-0.4l0.4-0.4
		c0.2-0.1,0.2-0.4,0-0.5c-0.1-0.1-0.4-0.1-0.5,0l-0.4,0.4l-0.4-0.4c-0.1-0.1-0.4-0.1-0.5,0c-0.1,0.1-0.1,0.2-0.1,0.3
		c0,0.1,0,0.2,0.1,0.3l0.4,0.4L31.6,37c-0.1,0.1-0.1,0.2-0.1,0.3c0,0.1,0,0.2,0.1,0.3c0.1,0.1,0.4,0.1,0.5,0L32.5,37.1z"/>
	<path class="st4" d="M35.9,40.6h-0.7v-0.5h0.6c0,0,0.1,0,0.1-0.1v-0.2c0,0,0-0.1-0.1-0.1h-0.6v-0.4h0.6c0,0,0.1,0,0.1-0.1v-0.2
		c0,0,0-0.1-0.1-0.1h-0.9c0,0-0.1,0-0.1,0.1v1.7c0,0,0,0.1,0.1,0.1h0.9c0,0,0.1,0,0.1-0.1L35.9,40.6C36,40.6,35.9,40.6,35.9,40.6z"
		/>
	<path class="st4" d="M35.5,37.6c0.1,0,0.2,0,0.3-0.1c0.1-0.1,0.1-0.2,0.1-0.3c0-0.1,0-0.2-0.1-0.3l-0.4-0.4l0.4-0.4
		c0.2-0.1,0.2-0.4,0-0.5c-0.1-0.1-0.4-0.1-0.5,0l-0.4,0.4l-0.4-0.4c-0.1-0.1-0.4-0.1-0.5,0c-0.1,0.1-0.1,0.4,0,0.5l0.4,0.4L33.9,37
		c-0.1,0.1-0.2,0.4,0,0.5c0.1,0.1,0.4,0.1,0.5,0l0.4-0.4l0.4,0.4C35.3,37.6,35.4,37.6,35.5,37.6z"/>
	<path class="st4" d="M40.2,35.7c-0.1-0.1-0.4-0.1-0.5,0l-0.4,0.4l-0.4-0.4c-0.1-0.1-0.4-0.1-0.5,0c-0.1,0.1-0.2,0.4,0,0.5l0.4,0.4
		L38.4,37c-0.1,0.1-0.1,0.4,0,0.5c0.1,0.1,0.4,0.1,0.5,0l0.4-0.4l0.4,0.4c0.1,0.1,0.2,0.1,0.3,0.1c0.1,0,0.2,0,0.3-0.1
		c0.1-0.1,0.1-0.2,0.1-0.3c0-0.1,0-0.2-0.1-0.3l-0.4-0.4l0.4-0.4C40.4,36.1,40.4,35.9,40.2,35.7z"/>
</g>
<path class="st5" d="M46.5,19.9h-30c-2.1,0-3.9,1.9-3.9,4.3v14.6c0,2.4,1.7,4.3,3.9,4.3h30c2.1,0,3.9-1.9,3.9-4.3V24.2
	C50.4,21.8,48.7,19.9,46.5,19.9z M20.3,26.6L20.3,26.6c0.2-2.2,1.5-3.5,3.8-4c-1.9,1.5-2.8,3.5-2.2,6.1l0,0l0,0c0,0,0,0,0,0l0,0
	c-2.3-1.3-4.5-1-6.4,0.3C16.5,27,18.1,26.1,20.3,26.6z M16,37.5c-0.1,0.1-0.4,0.1-0.5,0c-0.1-0.1-0.1-0.2-0.1-0.3
	c0-0.1,0-0.2,0.1-0.3l0.4-0.4l-0.4-0.4c-0.1-0.2-0.1-0.4,0-0.5c0.1-0.1,0.4-0.1,0.5,0l0.4,0.4l0.4-0.4c0.1-0.1,0.4-0.1,0.5,0
	c0.1,0.1,0.1,0.4,0,0.5l-0.4,0.4l0.4,0.4c0.1,0.1,0.1,0.2,0.1,0.3c0,0.1,0,0.2-0.1,0.3c-0.1,0.1-0.2,0.1-0.3,0.1
	c-0.1,0-0.2,0-0.3-0.1l-0.4-0.4L16,37.5z M17.8,40.8C17.8,40.9,17.8,40.9,17.8,40.8l-0.3,0.1c0,0-0.1,0-0.1,0L16.9,40
	c-0.1-0.1-0.1-0.2-0.2-0.3c0,0.1,0,0.2,0,0.4v0.7c0,0,0,0.1-0.1,0.1h-0.2c0,0-0.1,0-0.1-0.1v-1.7c0,0,0-0.1,0.1-0.1h0.2
	c0,0,0.1,0,0.1,0l0.5,0.9c0.1,0.1,0.1,0.2,0.1,0.2c0-0.1,0-0.2,0-0.4v-0.7c0,0,0-0.1,0.1-0.1h0.2c0,0,0.1,0,0.1,0.1V40.8z
	 M18.3,37.5c-0.1,0.1-0.4,0.1-0.5,0c-0.1-0.1-0.1-0.2-0.1-0.3c0-0.1,0-0.2,0.1-0.3l0.4-0.4l-0.4-0.4c-0.1-0.2-0.1-0.4,0-0.5
	c0.1-0.1,0.4-0.1,0.5,0l0.4,0.4l0.4-0.4c0.1-0.1,0.4-0.1,0.5,0c0.1,0.2,0.1,0.4,0,0.5l-0.4,0.4l0.4,0.4c0.1,0.1,0.1,0.2,0.1,0.3
	c0,0.1,0,0.2-0.1,0.3c-0.1,0.1-0.2,0.1-0.3,0.1c-0.1,0-0.2,0-0.3-0.1l-0.4-0.4L18.3,37.5z M20.2,40.9L20.2,40.9H20
	c0,0-0.1,0-0.1-0.1l-0.2-0.5h-0.5l-0.2,0.5c0,0,0,0.1-0.1,0.1h-0.2c0,0,0,0-0.1,0c0,0,0,0,0-0.1l0.6-1.7c0,0,0-0.1,0.1-0.1h0.3
	c0,0,0.1,0,0.1,0.1l0.6,1.7C20.3,40.8,20.3,40.8,20.2,40.9C20.3,40.9,20.2,40.9,20.2,40.9z M20.8,37.1l-0.4,0.4
	c-0.1,0.1-0.4,0.1-0.5,0c-0.1-0.1-0.1-0.2-0.1-0.3c0-0.1,0-0.2,0.1-0.3l0.4-0.4l-0.4-0.4c-0.1-0.2-0.1-0.4,0-0.5
	c0.1-0.1,0.4-0.1,0.5,0l0.4,0.4l0.4-0.4c0.1-0.1,0.4-0.1,0.5,0c0.1,0.1,0.1,0.2,0.1,0.3c0,0.1,0,0.2-0.1,0.3l-0.4,0.4l0.4,0.4
	c0.1,0.1,0.1,0.2,0.1,0.3c0,0.1,0,0.2-0.1,0.3c-0.1,0.1-0.2,0.1-0.3,0.1c-0.1,0-0.2,0-0.3-0.1L20.8,37.1z M22.9,40.9L22.9,40.9h-0.2
	c0,0-0.1,0-0.1-0.1l0-0.7c0-0.1,0-0.2,0-0.3c0,0.1-0.1,0.2-0.1,0.2l-0.3,0.8c0,0,0,0.1-0.1,0.1H22c0,0-0.1,0-0.1-0.1L21.6,40
	c0-0.1,0-0.1-0.1-0.2c0,0.1,0,0.2,0,0.3l0,0.7c0,0,0,0.1-0.1,0.1h-0.2c0,0,0,0-0.1,0c0,0,0,0,0-0.1l0.1-1.7c0,0,0-0.1,0.1-0.1h0.3
	c0,0,0.1,0,0.1,0l0.3,0.8c0,0.1,0.1,0.2,0.1,0.3c0-0.1,0.1-0.2,0.1-0.3l0.3-0.8c0,0,0,0,0.1,0h0.3c0,0,0.1,0,0.1,0.1l0.1,1.7
	C23,40.8,23,40.8,22.9,40.9C23,40.9,23,40.9,22.9,40.9z M23.5,37.5l-0.4-0.4l-0.4,0.4c-0.1,0.1-0.4,0.1-0.5,0
	c-0.1-0.1-0.1-0.2-0.1-0.3c0-0.1,0-0.2,0.1-0.3l0.4-0.4l-0.4-0.4c-0.1-0.2-0.1-0.4,0-0.5c0.1-0.1,0.4-0.1,0.5,0l0.4,0.4l0.4-0.4
	c0.1-0.1,0.4-0.1,0.5,0c0.1,0.1,0.1,0.2,0.1,0.3c0,0.1,0,0.2-0.1,0.3l-0.4,0.4L24,37c0.1,0.1,0.1,0.2,0.1,0.3c0,0.1,0,0.2-0.1,0.3
	c-0.1,0.1-0.2,0.1-0.3,0.1C23.6,37.6,23.5,37.6,23.5,37.5z M25,40.8C25,40.9,25,40.9,25,40.8l-1,0.1c0,0-0.1,0-0.1-0.1v-1.7
	c0,0,0-0.1,0.1-0.1h0.9c0,0,0.1,0,0.1,0.1v0.2c0,0,0,0.1-0.1,0.1h-0.6v0.4h0.6c0,0,0.1,0,0.1,0.1V40c0,0,0,0.1-0.1,0.1h-0.6v0.5h0.7
	c0,0,0.1,0,0.1,0.1V40.8z M28.8,40.8C28.8,40.9,28.7,40.9,28.8,40.8l-0.3,0.1c0,0,0,0-0.1,0L27.9,40c-0.1-0.1-0.1-0.2-0.2-0.3
	c0,0.1,0,0.2,0,0.4v0.7c0,0,0,0.1-0.1,0.1h-0.2c0,0-0.1,0-0.1-0.1v-1.7c0,0,0-0.1,0.1-0.1h0.2c0,0,0,0,0.1,0l0.5,0.9
	c0.1,0.1,0.1,0.2,0.1,0.2c0-0.1,0-0.2,0-0.4v-0.7c0,0,0-0.1,0.1-0.1h0.2c0,0,0.1,0,0.1,0.1V40.8z M29,37c0.1,0.2,0.1,0.4,0,0.5
	c-0.1,0.1-0.2,0.1-0.3,0.1c-0.1,0-0.2,0-0.3-0.1l-0.4-0.4l-0.4,0.4c-0.1,0.1-0.4,0.1-0.5,0c-0.1-0.1-0.1-0.4,0-0.5l0.4-0.4l-0.4-0.4
	c-0.1-0.1-0.1-0.2-0.1-0.3c0-0.1,0-0.2,0.1-0.3c0.1-0.1,0.4-0.1,0.5,0l0.4,0.4l0.4-0.4c0.1-0.1,0.4-0.1,0.5,0c0.1,0.1,0.1,0.4,0,0.5
	l-0.4,0.4L29,37z M31.2,40.9L31.2,40.9h-0.2c0,0-0.1,0-0.1-0.1l-0.2-0.5h-0.5L30,40.8c0,0,0,0.1-0.1,0.1h-0.2c0,0,0,0-0.1,0
	c0,0,0,0,0-0.1l0.6-1.7c0,0,0-0.1,0.1-0.1h0.3c0,0,0.1,0,0.1,0.1l0.6,1.7C31.2,40.8,31.2,40.8,31.2,40.9
	C31.2,40.9,31.2,40.9,31.2,40.9z M31.4,37c0.1,0.1,0.1,0.2,0.1,0.3c0,0.1,0,0.2-0.1,0.3c-0.1,0.1-0.2,0.1-0.3,0.1
	c-0.1,0-0.2,0-0.3-0.1l-0.4-0.4l-0.4,0.4c-0.1,0.1-0.4,0.1-0.5,0c-0.1-0.1-0.1-0.2-0.1-0.3c0-0.1,0-0.2,0.1-0.3l0.4-0.4l-0.4-0.4
	c-0.1-0.2-0.1-0.4,0-0.5c0.1-0.1,0.4-0.1,0.5,0l0.4,0.4l0.4-0.4c0.1-0.1,0.4-0.1,0.5,0c0.1,0.1,0.1,0.2,0.1,0.3c0,0.1,0,0.2-0.1,0.3
	L31,36.6L31.4,37z M31.6,37.5c-0.1-0.1-0.1-0.2-0.1-0.3c0-0.1,0-0.2,0.1-0.3l0.4-0.4l-0.4-0.4c-0.1-0.1-0.1-0.2-0.1-0.3
	c0-0.1,0-0.2,0.1-0.3c0.1-0.1,0.4-0.1,0.5,0l0.4,0.4l0.4-0.4c0.1-0.1,0.4-0.1,0.5,0c0.1,0.1,0.1,0.4,0,0.5l-0.4,0.4l0.4,0.4
	c0.1,0.1,0.1,0.4,0,0.5c-0.1,0.1-0.2,0.1-0.3,0.1c-0.1,0-0.2,0-0.3-0.1l-0.4-0.4l-0.4,0.4C32,37.7,31.8,37.7,31.6,37.5z M33.9,40.9
	L33.9,40.9h-0.2c0,0-0.1,0-0.1-0.1l0-0.7c0-0.1,0-0.2,0-0.3c0,0.1-0.1,0.2-0.1,0.2l-0.3,0.8c0,0,0,0.1-0.1,0.1h-0.2
	c0,0-0.1,0-0.1-0.1L32.6,40c0-0.1,0-0.1-0.1-0.2c0,0.1,0,0.2,0,0.3l0,0.7c0,0,0,0.1-0.1,0.1h-0.2c0,0,0,0-0.1,0c0,0,0,0,0-0.1
	l0.1-1.7c0,0,0-0.1,0.1-0.1h0.3c0,0,0.1,0,0.1,0l0.3,0.8c0,0.1,0.1,0.2,0.1,0.3c0-0.1,0.1-0.2,0.1-0.3l0.3-0.8c0,0,0,0,0.1,0h0.3
	c0,0,0.1,0,0.1,0.1l0.1,1.7C34,40.8,34,40.8,33.9,40.9C34,40.9,33.9,40.9,33.9,40.9z M34.5,37.5c-0.1,0.1-0.4,0.1-0.5,0
	c-0.1-0.1-0.1-0.4,0-0.5l0.4-0.4L34,36.2c-0.1-0.2-0.1-0.4,0-0.5c0.1-0.1,0.4-0.1,0.5,0l0.4,0.4l0.4-0.4c0.1-0.1,0.4-0.1,0.5,0
	c0.1,0.1,0.1,0.4,0,0.5l-0.4,0.4l0.4,0.4c0.1,0.1,0.1,0.2,0.1,0.3c0,0.1,0,0.2-0.1,0.3c-0.1,0.1-0.2,0.1-0.3,0.1
	c-0.1,0-0.2,0-0.3-0.1l-0.4-0.4L34.5,37.5z M36,40.8C36,40.9,35.9,40.9,36,40.8l-1,0.1c0,0-0.1,0-0.1-0.1v-1.7c0,0,0-0.1,0.1-0.1
	h0.9c0,0,0.1,0,0.1,0.1v0.2c0,0,0,0.1-0.1,0.1h-0.6v0.4h0.6c0,0,0.1,0,0.1,0.1V40c0,0,0,0.1-0.1,0.1h-0.6v0.5h0.7c0,0,0.1,0,0.1,0.1
	V40.8z M40.2,37c0.1,0.1,0.1,0.2,0.1,0.3c0,0.1,0,0.2-0.1,0.3c-0.1,0.1-0.2,0.1-0.3,0.1c-0.1,0-0.2,0-0.3-0.1l-0.4-0.4l-0.4,0.4
	c-0.1,0.1-0.4,0.1-0.5,0c-0.1-0.1-0.1-0.4,0-0.5l0.4-0.4l-0.4-0.4c-0.1-0.2-0.1-0.4,0-0.5c0.1-0.1,0.4-0.1,0.5,0l0.4,0.4l0.4-0.4
	c0.1-0.1,0.4-0.1,0.5,0c0.1,0.1,0.1,0.4,0,0.5l-0.4,0.4L40.2,37z M42.5,37c0.1,0.1,0.1,0.4,0,0.5c-0.1,0.1-0.2,0.1-0.3,0.1
	c-0.1,0-0.2,0-0.3-0.1l-0.4-0.4l-0.4,0.4c-0.1,0.1-0.4,0.1-0.5,0c-0.1-0.1-0.1-0.2-0.1-0.3c0-0.1,0-0.2,0.1-0.3l0.4-0.4l-0.4-0.4
	c-0.1-0.2-0.1-0.4,0-0.5c0.1-0.1,0.4-0.1,0.5,0l0.4,0.4l0.4-0.4c0.1-0.1,0.4-0.1,0.5,0c0.1,0.1,0.1,0.4,0,0.5l-0.4,0.4L42.5,37z
	 M44.6,37c0.1,0.1,0.1,0.2,0.1,0.3c0,0.1,0,0.2-0.1,0.3c-0.1,0.1-0.2,0.1-0.3,0.1c-0.1,0-0.2,0-0.3-0.1l-0.4-0.4l-0.4,0.4
	c-0.1,0.1-0.4,0.1-0.5,0c-0.1-0.1-0.1-0.4,0-0.5l0.4-0.4l-0.4-0.4c-0.1-0.1-0.1-0.2-0.1-0.3c0-0.1,0-0.2,0.1-0.3
	c0.1-0.1,0.4-0.1,0.5,0l0.4,0.4l0.4-0.4c0.1-0.1,0.4-0.1,0.5,0c0.1,0.2,0.1,0.4,0,0.5l-0.4,0.4L44.6,37z M46.9,37
	c0.1,0.1,0.1,0.4,0,0.5c-0.1,0.1-0.2,0.1-0.3,0.1c-0.1,0-0.2,0-0.3-0.1L46,37.1l-0.4,0.4c-0.1,0.1-0.4,0.1-0.5,0
	c-0.1-0.1-0.1-0.4,0-0.5l0.4-0.4l-0.4-0.4c-0.1-0.1-0.1-0.2-0.1-0.3c0-0.1,0-0.2,0.1-0.3c0.1-0.1,0.4-0.1,0.5,0l0.4,0.4l0.4-0.4
	c0.1-0.1,0.4-0.1,0.5,0c0.1,0.1,0.1,0.4,0,0.5l-0.4,0.4L46.9,37z M47.4,30.3c0,1.4-1.1,2.5-2.5,2.5h-4.4c-1.4,0-2.5-1.1-2.5-2.5v-2
	c0-1.4,1.1-2.5,2.5-2.5h4.4c1.4,0,2.5,1.1,2.5,2.5V30.3z"/>
</svg>
