<?xml version="1.0" encoding="utf-8"?>
<!-- Generator: Adobe Illustrator 21.1.0, SVG Export Plug-In . SVG Version: 6.00 Build 0)  -->
<svg version="1.1" id="Слой_1" xmlns="http://www.w3.org/2000/svg" xmlns:xlink="http://www.w3.org/1999/xlink" x="0px" y="0px"
	 viewBox="0 0 63 63" style="enable-background:new 0 0 63 63;" xml:space="preserve">
<style type="text/css">
	.st0{fill:#9B5AB6;}
	.st1{fill:#834896;}
	.st2{fill:#F1C30F;}
	.st3{fill:#41B7F1;}
</style>
<g>
	<path class="st0" d="M31.5,0C14.1,0,0,14.1,0,31.5C0,48.9,14.1,63,31.5,63c4.5,0,8.8-1,12.7-2.7L11,27.2c0.1-0.7,0.1-0.6,0.2-1.5
		c0.1-0.5,0.2-1,0.3-1.5c-0.1,0.3,2,0.8,2.2,0.8c1,0.2,2.9,0.5,4-0.2l-5.2-5.1c-0.6-0.5-1-1.1-1.3-1.9c-0.3-1.5-0.1-2.9,0.8-4.2
		c0.7-0.9,1.8-1.4,3-1.7V9.4h3.6L44,34.7c1.2-0.6,2.2-0.9,3.6-0.9c1.5,0,2.9,0.4,4.2,1.1l8.8,8.7c1.6-3.7,2.4-7.8,2.4-12.1
		C63,14.1,48.9,0,31.5,0z"/>
	<path class="st1" d="M60.6,43.6l-8.8-8.7c-1.2-0.7-2.7-1.1-4.2-1.1c-1.4,0-2.4,0.3-3.6,0.9L18.7,9.4h-3.6V12
		c-1.1,0.3-2.3,0.7-3,1.7c-0.9,1.3-1.1,2.7-0.8,4.2c0.3,0.8,0.8,1.4,1.3,1.9l5.2,5.1c-1,0.7-3,0.4-4,0.2c-0.2,0-2.3-0.5-2.2-0.8
		c-0.1,0.5-0.3,1-0.3,1.5c-0.1,0.9-0.2,0.8-0.2,1.5l33.2,33.1C51.6,57.1,57.5,51.1,60.6,43.6z"/>
	<path class="st2" d="M22.7,22.9c-0.1-1-0.4-2-1.2-2.6c-1.3-1-2.6-1.8-4.1-2.2c-0.9-0.2-2.5-0.8-2.2-2.1c0.2-0.7,1.3-1.1,2-1.2
		c0.7-0.1,1.4,0,2.1,0.1c0.6,0.1,1.3,0.3,1.9,0.6c0.2,0.1,0.8-2.8,0.7-2.8c-1-0.4-2-0.7-3.1-0.8V9.4h-3.6V12c-1.1,0.3-2.3,0.7-3,1.7
		c-0.9,1.3-1.1,2.7-0.8,4.2c0.6,1.3,1.4,2,2.5,2.7c1.2,0.7,5.1,1.2,4.6,3.3c-0.4,1.8-3.3,1.3-4.6,1.1c-0.2,0-2.3-0.5-2.2-0.8
		c-0.1,0.5-0.3,1-0.3,1.5c-0.1,1-0.8,1.4,0.3,1.9c0.7,0.3,1.4,0.5,2.2,0.6c0.4,0.1,0.8,0.1,1.2,0.1v1.8h3.6v-2.1
		c0.7-0.2,1.3-0.5,1.8-0.8c0.7-0.5,1.4-1.2,1.8-2C22.6,24.6,22.7,23.7,22.7,22.9z"/>
	<path class="st3" d="M50.7,48.9c-0.9,0.6-1.9,1-3.1,1c-2.1,0-4-1.3-4.9-3.2h5.3l0.4-2.3h-6.4c0-0.2,0-0.5,0-0.7c0-0.2,0-0.4,0-0.6
		h6.7l0.5-2.3h-6.6c0.9-2,2.8-3.4,5-3.4c1,0,1.9,0.3,2.8,0.8c0.7-1,0.8-2.3,1.4-3.4c-1.2-0.7-2.7-1.1-4.2-1.1c-4.2,0-7.7,3-8.9,7
		h-1.4l-0.5,2.3h1.5c0,0.2,0,0.4,0,0.6c0,0.3,0,0.5,0,0.7h-1.1l-0.4,2.3h1.9c1.2,4,4.7,6.8,8.8,6.8c1.6,0,3.1-0.4,4.4-1.2
		C51.6,51.1,51.2,50.1,50.7,48.9z"/>
	<polygon class="st3" points="30.7,36.6 30.3,27.4 32.5,25.1 23.8,25.3 23.7,34 25.9,31.8 30.7,36.6 	"/>
	<polygon class="st2" points="38,38.5 38.1,29.8 35.9,32 31.1,27.2 31,27.2 31.5,36.4 29.3,38.7 	"/>
</g>
</svg>
