<?xml version="1.0" encoding="utf-8"?>
<!-- Generator: Adobe Illustrator 21.1.0, SVG Export Plug-In . SVG Version: 6.00 Build 0)  -->
<svg version="1.1" id="Слой_1" xmlns="http://www.w3.org/2000/svg" xmlns:xlink="http://www.w3.org/1999/xlink" x="0px" y="0px"
	 viewBox="0 0 340 680" style="enable-background:new 0 0 340 680;" xml:space="preserve">
<style type="text/css">
	.st0{fill:#A81B19;}
	.st1{fill:#861716;}
	.st2{fill:#BD5055;}
	.st3{opacity:0.34;fill:#FFFFFF;}
	.st4{fill:#AA81B6;}
	.st5{fill:#68506E;}
	.st6{fill:#C5A9CD;}
	.st7{fill:#6C3680;}
	.st8{fill:#43244F;}
	.st9{fill:#9976A8;}
	.st10{fill:#BA5F93;}
	.st11{fill:#852270;}
	.st12{fill:#C695B0;}
	.st13{fill:#D26630;}
	.st14{fill:#943D26;}
	.st15{fill:#DE9771;}
	.st16{fill:#2C4E75;}
	.st17{fill:#313F59;}
	.st18{fill:#6786A0;}
	.st19{fill:#6DA9D5;}
	.st20{fill:#436780;}
	.st21{fill:#96C6E3;}
	.st22{fill:#89C6CD;}
	.st23{fill:#54777C;}
	.st24{fill:#ACD8DE;}
	.st25{fill:#8CCE96;}
	.st26{fill:#567C47;}
	.st27{fill:#AFDE99;}
	.st28{fill:#ECB63F;}
	.st29{fill:#8C6E29;}
	.st30{fill:#F1CE79;}
</style>
<title>Artbox</title>
<g>
	<rect x="145.7" class="st0" width="48.6" height="97.1"/>
	<g>
		<g>
			<circle class="st1" cx="181.3" cy="13" r="6.5"/>
			<circle class="st2" cx="182.4" cy="11.8" r="6.5"/>
			<path class="st3" d="M182.5,5.3c-1.9,0-3.6,0.8-4.8,2.2c1.2-1,2.7-1.7,4.3-1.7c3.6,0,6.5,2.9,6.5,6.5c0,1.7-0.7,3.2-1.7,4.3
				c1.3-1.2,2.2-2.9,2.2-4.8C189,8.2,186.1,5.3,182.5,5.3z"/>
		</g>
		<g>
			<g>
				<circle class="st1" cx="157.5" cy="36.8" r="6.5"/>
				<circle class="st2" cx="158.6" cy="35.6" r="6.5"/>
				<path class="st3" d="M158.7,29.1c-1.9,0-3.6,0.8-4.8,2.2c1.2-1,2.7-1.7,4.3-1.7c3.6,0,6.5,2.9,6.5,6.5c0,1.7-0.7,3.2-1.7,4.3
					c1.3-1.2,2.2-2.9,2.2-4.8C165.2,32,162.3,29.1,158.7,29.1z"/>
			</g>
			<g>
				<circle class="st1" cx="181.3" cy="36.8" r="6.5"/>
				<circle class="st2" cx="182.4" cy="35.6" r="6.5"/>
				<path class="st3" d="M182.5,29.1c-1.9,0-3.6,0.8-4.8,2.2c1.2-1,2.7-1.7,4.3-1.7c3.6,0,6.5,2.9,6.5,6.5c0,1.7-0.7,3.2-1.7,4.3
					c1.3-1.2,2.2-2.9,2.2-4.8C189,32,186.1,29.1,182.5,29.1z"/>
			</g>
		</g>
		<g>
			<g>
				<circle class="st1" cx="181.3" cy="61.5" r="6.5"/>
				<circle class="st2" cx="182.4" cy="60.4" r="6.5"/>
				<path class="st3" d="M182.5,53.9c-1.9,0-3.6,0.8-4.8,2.2c1.2-1,2.7-1.7,4.3-1.7c3.6,0,6.5,2.9,6.5,6.5c0,1.7-0.7,3.2-1.7,4.3
					c1.3-1.2,2.2-2.9,2.2-4.8C189,56.8,186.1,53.9,182.5,53.9z"/>
			</g>
			<g>
				<g>
					<circle class="st1" cx="157.5" cy="85.3" r="6.5"/>
					<circle class="st2" cx="158.6" cy="84.2" r="6.5"/>
					<path class="st3" d="M158.7,77.7c-1.9,0-3.6,0.8-4.8,2.2c1.2-1,2.7-1.7,4.3-1.7c3.6,0,6.5,2.9,6.5,6.5c0,1.7-0.7,3.2-1.7,4.3
						c1.3-1.2,2.2-2.9,2.2-4.8C165.2,80.6,162.3,77.7,158.7,77.7z"/>
				</g>
				<g>
					<circle class="st1" cx="181.3" cy="85.3" r="6.5"/>
					<circle class="st2" cx="182.4" cy="84.2" r="6.5"/>
					<path class="st3" d="M182.5,77.7c-1.9,0-3.6,0.8-4.8,2.2c1.2-1,2.7-1.7,4.3-1.7c3.6,0,6.5,2.9,6.5,6.5c0,1.7-0.7,3.2-1.7,4.3
						c1.3-1.2,2.2-2.9,2.2-4.8C189,80.6,186.1,77.7,182.5,77.7z"/>
				</g>
			</g>
			<g>
				<circle class="st1" cx="157.5" cy="61.5" r="6.5"/>
				<circle class="st2" cx="158.6" cy="60.4" r="6.5"/>
				<path class="st3" d="M158.7,53.9c-1.9,0-3.6,0.8-4.8,2.2c1.2-1,2.7-1.7,4.3-1.7c3.6,0,6.5,2.9,6.5,6.5c0,1.7-0.7,3.2-1.7,4.3
					c1.3-1.2,2.2-2.9,2.2-4.8C165.2,56.8,162.3,53.9,158.7,53.9z"/>
			</g>
		</g>
		<g>
			<circle class="st1" cx="157.5" cy="13" r="6.5"/>
			<circle class="st2" cx="158.6" cy="11.8" r="6.5"/>
			<path class="st3" d="M158.7,5.3c-1.9,0-3.6,0.8-4.8,2.2c1.2-1,2.7-1.7,4.3-1.7c3.6,0,6.5,2.9,6.5,6.5c0,1.7-0.7,3.2-1.7,4.3
				c1.3-1.2,2.2-2.9,2.2-4.8C165.2,8.2,162.3,5.3,158.7,5.3z"/>
		</g>
	</g>
</g>
<g>
	<rect x="97.1" y="48.6" class="st4" width="48.6" height="48.6"/>
	<g>
		<g>
			<circle class="st5" cx="132.8" cy="61.5" r="6.5"/>
			<circle class="st6" cx="133.9" cy="60.4" r="6.5"/>
			<path class="st3" d="M133.9,53.9c-1.9,0-3.6,0.8-4.8,2.2c1.2-1,2.7-1.7,4.3-1.7c3.6,0,6.5,2.9,6.5,6.5c0,1.7-0.7,3.2-1.7,4.3
				c1.3-1.2,2.2-2.9,2.2-4.8C140.4,56.8,137.5,53.9,133.9,53.9z"/>
		</g>
		<g>
			<g>
				<circle class="st5" cx="109" cy="85.3" r="6.5"/>
				<circle class="st6" cx="110.1" cy="84.2" r="6.5"/>
				<path class="st3" d="M110.1,77.7c-1.9,0-3.6,0.8-4.8,2.2c1.2-1,2.7-1.7,4.3-1.7c3.6,0,6.5,2.9,6.5,6.5c0,1.7-0.7,3.2-1.7,4.3
					c1.3-1.2,2.2-2.9,2.2-4.8C116.6,80.6,113.7,77.7,110.1,77.7z"/>
			</g>
			<g>
				<circle class="st5" cx="132.8" cy="85.3" r="6.5"/>
				<circle class="st6" cx="133.9" cy="84.2" r="6.5"/>
				<path class="st3" d="M133.9,77.7c-1.9,0-3.6,0.8-4.8,2.2c1.2-1,2.7-1.7,4.3-1.7c3.6,0,6.5,2.9,6.5,6.5c0,1.7-0.7,3.2-1.7,4.3
					c1.3-1.2,2.2-2.9,2.2-4.8C140.4,80.6,137.5,77.7,133.9,77.7z"/>
			</g>
		</g>
		<g>
			<circle class="st5" cx="109" cy="61.5" r="6.5"/>
			<circle class="st6" cx="110.1" cy="60.4" r="6.5"/>
			<path class="st3" d="M110.1,53.9c-1.9,0-3.6,0.8-4.8,2.2c1.2-1,2.7-1.7,4.3-1.7c3.6,0,6.5,2.9,6.5,6.5c0,1.7-0.7,3.2-1.7,4.3
				c1.3-1.2,2.2-2.9,2.2-4.8C116.6,56.8,113.7,53.9,110.1,53.9z"/>
		</g>
	</g>
</g>
<g>
	
		<rect x="121.4" y="315.7" transform="matrix(6.123234e-17 -1 1 6.123234e-17 -218.5714 509.9999)" class="st7" width="48.6" height="97.1"/>
	<g>
		<g>
			<circle class="st8" cx="181.3" cy="353" r="6.5"/>
			<circle class="st9" cx="182.4" cy="351.9" r="6.5"/>
			<path class="st3" d="M189,351.8c0,1.9-0.8,3.6-2.2,4.8c1-1.2,1.7-2.7,1.7-4.3c0-3.6-2.9-6.5-6.5-6.5c-1.7,0-3.2,0.7-4.3,1.7
				c1.2-1.3,2.9-2.2,4.8-2.2C186.1,345.3,189,348.2,189,351.8z"/>
		</g>
		<g>
			<g>
				<circle class="st8" cx="157.5" cy="376.8" r="6.5"/>
				<circle class="st9" cx="158.6" cy="375.6" r="6.5"/>
				<path class="st3" d="M165.2,375.6c0,1.9-0.8,3.6-2.2,4.8c1-1.2,1.7-2.7,1.7-4.3c0-3.6-2.9-6.5-6.5-6.5c-1.7,0-3.2,0.7-4.3,1.7
					c1.2-1.3,2.9-2.2,4.8-2.2C162.3,369.1,165.2,372,165.2,375.6z"/>
			</g>
			<g>
				<circle class="st8" cx="157.5" cy="353" r="6.5"/>
				<circle class="st9" cx="158.6" cy="351.9" r="6.5"/>
				<path class="st3" d="M165.2,351.8c0,1.9-0.8,3.6-2.2,4.8c1-1.2,1.7-2.7,1.7-4.3c0-3.6-2.9-6.5-6.5-6.5c-1.7,0-3.2,0.7-4.3,1.7
					c1.2-1.3,2.9-2.2,4.8-2.2C162.3,345.3,165.2,348.2,165.2,351.8z"/>
			</g>
		</g>
		<g>
			<g>
				<circle class="st8" cx="132.8" cy="353" r="6.5"/>
				<circle class="st9" cx="133.9" cy="351.9" r="6.5"/>
				<path class="st3" d="M140.4,351.8c0,1.9-0.8,3.6-2.2,4.8c1-1.2,1.7-2.7,1.7-4.3c0-3.6-2.9-6.5-6.5-6.5c-1.7,0-3.2,0.7-4.3,1.7
					c1.2-1.3,2.9-2.2,4.8-2.2C137.5,345.3,140.4,348.2,140.4,351.8z"/>
			</g>
			<g>
				<g>
					<circle class="st8" cx="109" cy="376.8" r="6.5"/>
					<circle class="st9" cx="110.1" cy="375.6" r="6.5"/>
					<path class="st3" d="M116.6,375.6c0,1.9-0.8,3.6-2.2,4.8c1-1.2,1.7-2.7,1.7-4.3c0-3.6-2.9-6.5-6.5-6.5c-1.7,0-3.2,0.7-4.3,1.7
						c1.2-1.3,2.9-2.2,4.8-2.2C113.7,369.1,116.6,372,116.6,375.6z"/>
				</g>
				<g>
					<circle class="st8" cx="109" cy="353" r="6.5"/>
					<circle class="st9" cx="110.1" cy="351.9" r="6.5"/>
					<path class="st3" d="M116.6,351.8c0,1.9-0.8,3.6-2.2,4.8c1-1.2,1.7-2.7,1.7-4.3c0-3.6-2.9-6.5-6.5-6.5c-1.7,0-3.2,0.7-4.3,1.7
						c1.2-1.3,2.9-2.2,4.8-2.2C113.7,345.3,116.6,348.2,116.6,351.8z"/>
				</g>
			</g>
			<g>
				<circle class="st8" cx="132.8" cy="376.8" r="6.5"/>
				<circle class="st9" cx="133.9" cy="375.6" r="6.5"/>
				<path class="st3" d="M140.4,375.6c0,1.9-0.8,3.6-2.2,4.8c1-1.2,1.7-2.7,1.7-4.3c0-3.6-2.9-6.5-6.5-6.5c-1.7,0-3.2,0.7-4.3,1.7
					c1.2-1.3,2.9-2.2,4.8-2.2C137.5,369.1,140.4,372,140.4,375.6z"/>
			</g>
		</g>
		<g>
			<circle class="st8" cx="181.3" cy="376.8" r="6.5"/>
			<circle class="st9" cx="182.4" cy="375.6" r="6.5"/>
			<path class="st3" d="M189,375.6c0,1.9-0.8,3.6-2.2,4.8c1-1.2,1.7-2.7,1.7-4.3c0-3.6-2.9-6.5-6.5-6.5c-1.7,0-3.2,0.7-4.3,1.7
				c1.2-1.3,2.9-2.2,4.8-2.2C186.1,369.1,189,372,189,375.6z"/>
		</g>
	</g>
</g>
<g>
	<rect x="194.3" y="340" class="st10" width="48.6" height="97.1"/>
	<g>
		<g>
			<circle class="st11" cx="229.9" cy="353" r="6.5"/>
			<circle class="st12" cx="231" cy="351.8" r="6.5"/>
			<path class="st3" d="M231,345.3c-1.9,0-3.6,0.8-4.8,2.2c1.2-1,2.7-1.7,4.3-1.7c3.6,0,6.5,2.9,6.5,6.5c0,1.7-0.7,3.2-1.7,4.3
				c1.3-1.2,2.2-2.9,2.2-4.8C237.5,348.2,234.6,345.3,231,345.3z"/>
		</g>
		<g>
			<g>
				<circle class="st11" cx="206.1" cy="376.8" r="6.5"/>
				<circle class="st12" cx="207.2" cy="375.6" r="6.5"/>
				<path class="st3" d="M207.2,369.1c-1.9,0-3.6,0.8-4.8,2.2c1.2-1,2.7-1.7,4.3-1.7c3.6,0,6.5,2.9,6.5,6.5c0,1.7-0.7,3.2-1.7,4.3
					c1.3-1.2,2.2-2.9,2.2-4.8C213.7,372,210.8,369.1,207.2,369.1z"/>
			</g>
			<g>
				<circle class="st11" cx="229.9" cy="376.8" r="6.5"/>
				<circle class="st12" cx="231" cy="375.6" r="6.5"/>
				<path class="st3" d="M231,369.1c-1.9,0-3.6,0.8-4.8,2.2c1.2-1,2.7-1.7,4.3-1.7c3.6,0,6.5,2.9,6.5,6.5c0,1.7-0.7,3.2-1.7,4.3
					c1.3-1.2,2.2-2.9,2.2-4.8C237.5,372,234.6,369.1,231,369.1z"/>
			</g>
		</g>
		<g>
			<g>
				<circle class="st11" cx="229.9" cy="401.5" r="6.5"/>
				<circle class="st12" cx="231" cy="400.4" r="6.5"/>
				<path class="st3" d="M231,393.9c-1.9,0-3.6,0.8-4.8,2.2c1.2-1,2.7-1.7,4.3-1.7c3.6,0,6.5,2.9,6.5,6.5c0,1.7-0.7,3.2-1.7,4.3
					c1.3-1.2,2.2-2.9,2.2-4.8C237.5,396.8,234.6,393.9,231,393.9z"/>
			</g>
			<g>
				<g>
					<circle class="st11" cx="206.1" cy="425.3" r="6.5"/>
					<circle class="st12" cx="207.2" cy="424.2" r="6.5"/>
					<path class="st3" d="M207.2,417.7c-1.9,0-3.6,0.8-4.8,2.2c1.2-1,2.7-1.7,4.3-1.7c3.6,0,6.5,2.9,6.5,6.5c0,1.7-0.7,3.2-1.7,4.3
						c1.3-1.2,2.2-2.9,2.2-4.8C213.7,420.6,210.8,417.7,207.2,417.7z"/>
				</g>
				<g>
					<circle class="st11" cx="229.9" cy="425.3" r="6.5"/>
					<circle class="st12" cx="231" cy="424.2" r="6.5"/>
					<path class="st3" d="M231,417.7c-1.9,0-3.6,0.8-4.8,2.2c1.2-1,2.7-1.7,4.3-1.7c3.6,0,6.5,2.9,6.5,6.5c0,1.7-0.7,3.2-1.7,4.3
						c1.3-1.2,2.2-2.9,2.2-4.8C237.5,420.6,234.6,417.7,231,417.7z"/>
				</g>
			</g>
			<g>
				<circle class="st11" cx="206.1" cy="401.5" r="6.5"/>
				<circle class="st12" cx="207.2" cy="400.4" r="6.5"/>
				<path class="st3" d="M207.2,393.9c-1.9,0-3.6,0.8-4.8,2.2c1.2-1,2.7-1.7,4.3-1.7c3.6,0,6.5,2.9,6.5,6.5c0,1.7-0.7,3.2-1.7,4.3
					c1.3-1.2,2.2-2.9,2.2-4.8C213.7,396.8,210.8,393.9,207.2,393.9z"/>
			</g>
		</g>
		<g>
			<circle class="st11" cx="206.1" cy="353" r="6.5"/>
			<circle class="st12" cx="207.2" cy="351.8" r="6.5"/>
			<path class="st3" d="M207.2,345.3c-1.9,0-3.6,0.8-4.8,2.2c1.2-1,2.7-1.7,4.3-1.7c3.6,0,6.5,2.9,6.5,6.5c0,1.7-0.7,3.2-1.7,4.3
				c1.3-1.2,2.2-2.9,2.2-4.8C213.7,348.2,210.8,345.3,207.2,345.3z"/>
		</g>
	</g>
</g>
<g>
	<rect y="145.7" class="st10" width="48.6" height="48.6"/>
	<g>
		<g>
			<circle class="st11" cx="35.6" cy="158.7" r="6.5"/>
			<circle class="st12" cx="36.7" cy="157.6" r="6.5"/>
			<path class="st3" d="M36.8,151c-1.9,0-3.6,0.8-4.8,2.2c1.2-1,2.7-1.7,4.3-1.7c3.6,0,6.5,2.9,6.5,6.5c0,1.7-0.7,3.2-1.7,4.3
				c1.3-1.2,2.2-2.9,2.2-4.8C43.3,153.9,40.3,151,36.8,151z"/>
		</g>
		<g>
			<g>
				<circle class="st11" cx="11.8" cy="182.5" r="6.5"/>
				<circle class="st12" cx="12.9" cy="181.4" r="6.5"/>
				<path class="st3" d="M13,174.8c-1.9,0-3.6,0.8-4.8,2.2c1.2-1,2.7-1.7,4.3-1.7c3.6,0,6.5,2.9,6.5,6.5c0,1.7-0.7,3.2-1.7,4.3
					c1.3-1.2,2.2-2.9,2.2-4.8C19.5,177.7,16.6,174.8,13,174.8z"/>
			</g>
			<g>
				<circle class="st11" cx="35.6" cy="182.5" r="6.5"/>
				<circle class="st12" cx="36.7" cy="181.4" r="6.5"/>
				<path class="st3" d="M36.8,174.8c-1.9,0-3.6,0.8-4.8,2.2c1.2-1,2.7-1.7,4.3-1.7c3.6,0,6.5,2.9,6.5,6.5c0,1.7-0.7,3.2-1.7,4.3
					c1.3-1.2,2.2-2.9,2.2-4.8C43.3,177.7,40.3,174.8,36.8,174.8z"/>
			</g>
		</g>
		<g>
			<circle class="st11" cx="11.8" cy="158.7" r="6.5"/>
			<circle class="st12" cx="12.9" cy="157.6" r="6.5"/>
			<path class="st3" d="M13,151c-1.9,0-3.6,0.8-4.8,2.2c1.2-1,2.7-1.7,4.3-1.7c3.6,0,6.5,2.9,6.5,6.5c0,1.7-0.7,3.2-1.7,4.3
				c1.3-1.2,2.2-2.9,2.2-4.8C19.5,153.9,16.6,151,13,151z"/>
		</g>
	</g>
</g>
<g>
	
		<rect x="267.1" y="121.4" transform="matrix(6.123234e-17 -1 1 6.123234e-17 121.4287 461.4285)" class="st0" width="48.6" height="97.1"/>
	<g>
		<g>
			<circle class="st1" cx="327" cy="158.7" r="6.5"/>
			<circle class="st2" cx="328.2" cy="157.6" r="6.5"/>
			<path class="st3" d="M334.7,157.5c0,1.9-0.8,3.6-2.2,4.8c1-1.2,1.7-2.7,1.7-4.3c0-3.6-2.9-6.5-6.5-6.5c-1.7,0-3.2,0.7-4.3,1.7
				c1.2-1.3,2.9-2.2,4.8-2.2C331.8,151,334.7,153.9,334.7,157.5z"/>
		</g>
		<g>
			<g>
				<circle class="st1" cx="303.2" cy="182.5" r="6.5"/>
				<circle class="st2" cx="304.4" cy="181.4" r="6.5"/>
				<path class="st3" d="M310.9,181.3c0,1.9-0.8,3.6-2.2,4.8c1-1.2,1.7-2.7,1.7-4.3c0-3.6-2.9-6.5-6.5-6.5c-1.7,0-3.2,0.7-4.3,1.7
					c1.2-1.3,2.9-2.2,4.8-2.2C308,174.8,310.9,177.7,310.9,181.3z"/>
			</g>
			<g>
				<circle class="st1" cx="303.2" cy="158.7" r="6.5"/>
				<circle class="st2" cx="304.4" cy="157.6" r="6.5"/>
				<path class="st3" d="M310.9,157.5c0,1.9-0.8,3.6-2.2,4.8c1-1.2,1.7-2.7,1.7-4.3c0-3.6-2.9-6.5-6.5-6.5c-1.7,0-3.2,0.7-4.3,1.7
					c1.2-1.3,2.9-2.2,4.8-2.2C308,151,310.9,153.9,310.9,157.5z"/>
			</g>
		</g>
		<g>
			<g>
				<circle class="st1" cx="278.5" cy="158.7" r="6.5"/>
				<circle class="st2" cx="279.6" cy="157.6" r="6.5"/>
				<path class="st3" d="M286.1,157.5c0,1.9-0.8,3.6-2.2,4.8c1-1.2,1.7-2.7,1.7-4.3c0-3.6-2.9-6.5-6.5-6.5c-1.7,0-3.2,0.7-4.3,1.7
					c1.2-1.3,2.9-2.2,4.8-2.2C283.2,151,286.1,153.9,286.1,157.5z"/>
			</g>
			<g>
				<g>
					<circle class="st1" cx="254.7" cy="182.5" r="6.5"/>
					<circle class="st2" cx="255.8" cy="181.4" r="6.5"/>
					<path class="st3" d="M262.3,181.3c0,1.9-0.8,3.6-2.2,4.8c1-1.2,1.7-2.7,1.7-4.3c0-3.6-2.9-6.5-6.5-6.5c-1.7,0-3.2,0.7-4.3,1.7
						c1.2-1.3,2.9-2.2,4.8-2.2C259.4,174.8,262.3,177.7,262.3,181.3z"/>
				</g>
				<g>
					<circle class="st1" cx="254.7" cy="158.7" r="6.5"/>
					<circle class="st2" cx="255.8" cy="157.6" r="6.5"/>
					<path class="st3" d="M262.3,157.5c0,1.9-0.8,3.6-2.2,4.8c1-1.2,1.7-2.7,1.7-4.3c0-3.6-2.9-6.5-6.5-6.5c-1.7,0-3.2,0.7-4.3,1.7
						c1.2-1.3,2.9-2.2,4.8-2.2C259.4,151,262.3,153.9,262.3,157.5z"/>
				</g>
			</g>
			<g>
				<circle class="st1" cx="278.5" cy="182.5" r="6.5"/>
				<circle class="st2" cx="279.6" cy="181.4" r="6.5"/>
				<path class="st3" d="M286.1,181.3c0,1.9-0.8,3.6-2.2,4.8c1-1.2,1.7-2.7,1.7-4.3c0-3.6-2.9-6.5-6.5-6.5c-1.7,0-3.2,0.7-4.3,1.7
					c1.2-1.3,2.9-2.2,4.8-2.2C283.2,174.8,286.1,177.7,286.1,181.3z"/>
			</g>
		</g>
		<g>
			<circle class="st1" cx="327" cy="182.5" r="6.5"/>
			<circle class="st2" cx="328.2" cy="181.4" r="6.5"/>
			<path class="st3" d="M334.7,181.3c0,1.9-0.8,3.6-2.2,4.8c1-1.2,1.7-2.7,1.7-4.3c0-3.6-2.9-6.5-6.5-6.5c-1.7,0-3.2,0.7-4.3,1.7
				c1.2-1.3,2.9-2.2,4.8-2.2C331.8,174.8,334.7,177.7,334.7,181.3z"/>
		</g>
	</g>
</g>
<g>
	<rect x="242.9" y="72.9" class="st0" width="24.3" height="24.3"/>
	<g>
		<g>
			<circle class="st1" cx="254.7" cy="85.8" r="6.5"/>
			<circle class="st2" cx="255.8" cy="84.7" r="6.5"/>
			<path class="st3" d="M255.8,78.2c-1.9,0-3.6,0.8-4.8,2.2c1.2-1,2.7-1.7,4.3-1.7c3.6,0,6.5,2.9,6.5,6.5c0,1.7-0.7,3.2-1.7,4.3
				c1.3-1.2,2.2-2.9,2.2-4.8C262.3,81.1,259.4,78.2,255.8,78.2z"/>
		</g>
	</g>
</g>
<g>
	<rect x="194.3" y="194.3" class="st13" width="48.6" height="97.1"/>
	<g>
		<g>
			<circle class="st14" cx="229.9" cy="207.2" r="6.5"/>
			<circle class="st15" cx="231" cy="206.1" r="6.5"/>
			<path class="st3" d="M231,199.6c-1.9,0-3.6,0.8-4.8,2.2c1.2-1,2.7-1.7,4.3-1.7c3.6,0,6.5,2.9,6.5,6.5c0,1.7-0.7,3.2-1.7,4.3
				c1.3-1.2,2.2-2.9,2.2-4.8C237.5,202.5,234.6,199.6,231,199.6z"/>
		</g>
		<g>
			<g>
				<circle class="st14" cx="206.1" cy="231" r="6.5"/>
				<circle class="st15" cx="207.2" cy="229.9" r="6.5"/>
				<path class="st3" d="M207.2,223.4c-1.9,0-3.6,0.8-4.8,2.2c1.2-1,2.7-1.7,4.3-1.7c3.6,0,6.5,2.9,6.5,6.5c0,1.7-0.7,3.2-1.7,4.3
					c1.3-1.2,2.2-2.9,2.2-4.8C213.7,226.3,210.8,223.4,207.2,223.4z"/>
			</g>
			<g>
				<circle class="st14" cx="229.9" cy="231" r="6.5"/>
				<circle class="st15" cx="231" cy="229.9" r="6.5"/>
				<path class="st3" d="M231,223.4c-1.9,0-3.6,0.8-4.8,2.2c1.2-1,2.7-1.7,4.3-1.7c3.6,0,6.5,2.9,6.5,6.5c0,1.7-0.7,3.2-1.7,4.3
					c1.3-1.2,2.2-2.9,2.2-4.8C237.5,226.3,234.6,223.4,231,223.4z"/>
			</g>
		</g>
		<g>
			<g>
				<circle class="st14" cx="229.9" cy="255.8" r="6.5"/>
				<circle class="st15" cx="231" cy="254.7" r="6.5"/>
				<path class="st3" d="M231,248.2c-1.9,0-3.6,0.8-4.8,2.2c1.2-1,2.7-1.7,4.3-1.7c3.6,0,6.5,2.9,6.5,6.5c0,1.7-0.7,3.2-1.7,4.3
					c1.3-1.2,2.2-2.9,2.2-4.8C237.5,251.1,234.6,248.2,231,248.2z"/>
			</g>
			<g>
				<g>
					<circle class="st14" cx="206.1" cy="279.6" r="6.5"/>
					<circle class="st15" cx="207.2" cy="278.5" r="6.5"/>
					<path class="st3" d="M207.2,272c-1.9,0-3.6,0.8-4.8,2.2c1.2-1,2.7-1.7,4.3-1.7c3.6,0,6.5,2.9,6.5,6.5c0,1.7-0.7,3.2-1.7,4.3
						c1.3-1.2,2.2-2.9,2.2-4.8C213.7,274.9,210.8,272,207.2,272z"/>
				</g>
				<g>
					<circle class="st14" cx="229.9" cy="279.6" r="6.5"/>
					<circle class="st15" cx="231" cy="278.5" r="6.5"/>
					<path class="st3" d="M231,272c-1.9,0-3.6,0.8-4.8,2.2c1.2-1,2.7-1.7,4.3-1.7c3.6,0,6.5,2.9,6.5,6.5c0,1.7-0.7,3.2-1.7,4.3
						c1.3-1.2,2.2-2.9,2.2-4.8C237.5,274.9,234.6,272,231,272z"/>
				</g>
			</g>
			<g>
				<circle class="st14" cx="206.1" cy="255.8" r="6.5"/>
				<circle class="st15" cx="207.2" cy="254.7" r="6.5"/>
				<path class="st3" d="M207.2,248.2c-1.9,0-3.6,0.8-4.8,2.2c1.2-1,2.7-1.7,4.3-1.7c3.6,0,6.5,2.9,6.5,6.5c0,1.7-0.7,3.2-1.7,4.3
					c1.3-1.2,2.2-2.9,2.2-4.8C213.7,251.1,210.8,248.2,207.2,248.2z"/>
			</g>
		</g>
		<g>
			<circle class="st14" cx="206.1" cy="207.2" r="6.5"/>
			<circle class="st15" cx="207.2" cy="206.1" r="6.5"/>
			<path class="st3" d="M207.2,199.6c-1.9,0-3.6,0.8-4.8,2.2c1.2-1,2.7-1.7,4.3-1.7c3.6,0,6.5,2.9,6.5,6.5c0,1.7-0.7,3.2-1.7,4.3
				c1.3-1.2,2.2-2.9,2.2-4.8C213.7,202.5,210.8,199.6,207.2,199.6z"/>
		</g>
	</g>
</g>
<g>
	<rect x="121.4" y="24.3" class="st13" width="24.3" height="24.3"/>
	<g>
		<g>
			<circle class="st14" cx="133.2" cy="37.2" r="6.5"/>
			<circle class="st15" cx="134.4" cy="36.1" r="6.5"/>
			<path class="st3" d="M134.4,29.6c-1.9,0-3.6,0.8-4.8,2.2c1.2-1,2.7-1.7,4.3-1.7c3.6,0,6.5,2.9,6.5,6.5c0,1.7-0.7,3.2-1.7,4.3
				c1.3-1.2,2.2-2.9,2.2-4.8C140.9,32.5,138,29.6,134.4,29.6z"/>
		</g>
	</g>
</g>
<g>
	<rect x="24.3" y="121.4" class="st13" width="24.3" height="24.3"/>
	<g>
		<g>
			<circle class="st14" cx="36.1" cy="134.4" r="6.5"/>
			<circle class="st15" cx="37.2" cy="133.3" r="6.5"/>
			<path class="st3" d="M37.2,126.7c-1.9,0-3.6,0.8-4.8,2.2c1.2-1,2.7-1.7,4.3-1.7c3.6,0,6.5,2.9,6.5,6.5c0,1.7-0.7,3.2-1.7,4.3
				c1.3-1.2,2.2-2.9,2.2-4.8C43.7,129.7,40.8,126.7,37.2,126.7z"/>
		</g>
	</g>
</g>
<g>
	<rect x="97.1" y="145.7" class="st13" width="48.6" height="48.6"/>
	<g>
		<g>
			<circle class="st14" cx="132.8" cy="158.7" r="6.5"/>
			<circle class="st15" cx="133.9" cy="157.6" r="6.5"/>
			<path class="st3" d="M133.9,151c-1.9,0-3.6,0.8-4.8,2.2c1.2-1,2.7-1.7,4.3-1.7c3.6,0,6.5,2.9,6.5,6.5c0,1.7-0.7,3.2-1.7,4.3
				c1.3-1.2,2.2-2.9,2.2-4.8C140.4,153.9,137.5,151,133.9,151z"/>
		</g>
		<g>
			<g>
				<circle class="st14" cx="109" cy="182.5" r="6.5"/>
				<circle class="st15" cx="110.1" cy="181.4" r="6.5"/>
				<path class="st3" d="M110.1,174.8c-1.9,0-3.6,0.8-4.8,2.2c1.2-1,2.7-1.7,4.3-1.7c3.6,0,6.5,2.9,6.5,6.5c0,1.7-0.7,3.2-1.7,4.3
					c1.3-1.2,2.2-2.9,2.2-4.8C116.6,177.7,113.7,174.8,110.1,174.8z"/>
			</g>
			<g>
				<circle class="st14" cx="132.8" cy="182.5" r="6.5"/>
				<circle class="st15" cx="133.9" cy="181.4" r="6.5"/>
				<path class="st3" d="M133.9,174.8c-1.9,0-3.6,0.8-4.8,2.2c1.2-1,2.7-1.7,4.3-1.7c3.6,0,6.5,2.9,6.5,6.5c0,1.7-0.7,3.2-1.7,4.3
					c1.3-1.2,2.2-2.9,2.2-4.8C140.4,177.7,137.5,174.8,133.9,174.8z"/>
			</g>
		</g>
		<g>
			<circle class="st14" cx="109" cy="158.7" r="6.5"/>
			<circle class="st15" cx="110.1" cy="157.6" r="6.5"/>
			<path class="st3" d="M110.1,151c-1.9,0-3.6,0.8-4.8,2.2c1.2-1,2.7-1.7,4.3-1.7c3.6,0,6.5,2.9,6.5,6.5c0,1.7-0.7,3.2-1.7,4.3
				c1.3-1.2,2.2-2.9,2.2-4.8C116.6,153.9,113.7,151,110.1,151z"/>
		</g>
	</g>
</g>
<g>
	<rect x="48.6" y="97.1" class="st16" width="48.6" height="97.1"/>
	<g>
		<g>
			<circle class="st17" cx="84.2" cy="110.1" r="6.5"/>
			<circle class="st18" cx="85.3" cy="109" r="6.5"/>
			<path class="st3" d="M85.3,102.5c-1.9,0-3.6,0.8-4.8,2.2c1.2-1,2.7-1.7,4.3-1.7c3.6,0,6.5,2.9,6.5,6.5c0,1.7-0.7,3.2-1.7,4.3
				c1.3-1.2,2.2-2.9,2.2-4.8C91.8,105.4,88.9,102.5,85.3,102.5z"/>
		</g>
		<g>
			<g>
				<circle class="st17" cx="60.4" cy="133.9" r="6.5"/>
				<circle class="st18" cx="61.5" cy="132.8" r="6.5"/>
				<path class="st3" d="M61.5,126.3c-1.9,0-3.6,0.8-4.8,2.2c1.2-1,2.7-1.7,4.3-1.7c3.6,0,6.5,2.9,6.5,6.5c0,1.7-0.7,3.2-1.7,4.3
					c1.3-1.2,2.2-2.9,2.2-4.8C68,129.2,65.1,126.3,61.5,126.3z"/>
			</g>
			<g>
				<circle class="st17" cx="84.2" cy="133.9" r="6.5"/>
				<circle class="st18" cx="85.3" cy="132.8" r="6.5"/>
				<path class="st3" d="M85.3,126.3c-1.9,0-3.6,0.8-4.8,2.2c1.2-1,2.7-1.7,4.3-1.7c3.6,0,6.5,2.9,6.5,6.5c0,1.7-0.7,3.2-1.7,4.3
					c1.3-1.2,2.2-2.9,2.2-4.8C91.8,129.2,88.9,126.3,85.3,126.3z"/>
			</g>
		</g>
		<g>
			<g>
				<circle class="st17" cx="84.2" cy="158.7" r="6.5"/>
				<circle class="st18" cx="85.3" cy="157.6" r="6.5"/>
				<path class="st3" d="M85.3,151c-1.9,0-3.6,0.8-4.8,2.2c1.2-1,2.7-1.7,4.3-1.7c3.6,0,6.5,2.9,6.5,6.5c0,1.7-0.7,3.2-1.7,4.3
					c1.3-1.2,2.2-2.9,2.2-4.8C91.8,153.9,88.9,151,85.3,151z"/>
			</g>
			<g>
				<g>
					<circle class="st17" cx="60.4" cy="182.5" r="6.5"/>
					<circle class="st18" cx="61.5" cy="181.4" r="6.5"/>
					<path class="st3" d="M61.5,174.8c-1.9,0-3.6,0.8-4.8,2.2c1.2-1,2.7-1.7,4.3-1.7c3.6,0,6.5,2.9,6.5,6.5c0,1.7-0.7,3.2-1.7,4.3
						c1.3-1.2,2.2-2.9,2.2-4.8C68,177.7,65.1,174.8,61.5,174.8z"/>
				</g>
				<g>
					<circle class="st17" cx="84.2" cy="182.5" r="6.5"/>
					<circle class="st18" cx="85.3" cy="181.4" r="6.5"/>
					<path class="st3" d="M85.3,174.8c-1.9,0-3.6,0.8-4.8,2.2c1.2-1,2.7-1.7,4.3-1.7c3.6,0,6.5,2.9,6.5,6.5c0,1.7-0.7,3.2-1.7,4.3
						c1.3-1.2,2.2-2.9,2.2-4.8C91.8,177.7,88.9,174.8,85.3,174.8z"/>
				</g>
			</g>
			<g>
				<circle class="st17" cx="60.4" cy="158.7" r="6.5"/>
				<circle class="st18" cx="61.5" cy="157.6" r="6.5"/>
				<path class="st3" d="M61.5,151c-1.9,0-3.6,0.8-4.8,2.2c1.2-1,2.7-1.7,4.3-1.7c3.6,0,6.5,2.9,6.5,6.5c0,1.7-0.7,3.2-1.7,4.3
					c1.3-1.2,2.2-2.9,2.2-4.8C68,153.9,65.1,151,61.5,151z"/>
			</g>
		</g>
		<g>
			<circle class="st17" cx="60.4" cy="110.1" r="6.5"/>
			<circle class="st18" cx="61.5" cy="109" r="6.5"/>
			<path class="st3" d="M61.5,102.5c-1.9,0-3.6,0.8-4.8,2.2c1.2-1,2.7-1.7,4.3-1.7c3.6,0,6.5,2.9,6.5,6.5c0,1.7-0.7,3.2-1.7,4.3
				c1.3-1.2,2.2-2.9,2.2-4.8C68,105.4,65.1,102.5,61.5,102.5z"/>
		</g>
	</g>
</g>
<g>
	<rect x="194.3" y="24.3" class="st16" width="24.3" height="24.3"/>
	<g>
		<g>
			<circle class="st17" cx="206.1" cy="37.2" r="6.5"/>
			<circle class="st18" cx="207.2" cy="36.1" r="6.5"/>
			<path class="st3" d="M207.2,29.6c-1.9,0-3.6,0.8-4.8,2.2c1.2-1,2.7-1.7,4.3-1.7c3.6,0,6.5,2.9,6.5,6.5c0,1.7-0.7,3.2-1.7,4.3
				c1.3-1.2,2.2-2.9,2.2-4.8C213.7,32.5,210.8,29.6,207.2,29.6z"/>
		</g>
	</g>
</g>
<g>
	<rect x="97.1" y="242.9" class="st16" width="48.6" height="48.6"/>
	<g>
		<g>
			<circle class="st17" cx="132.8" cy="255.8" r="6.5"/>
			<circle class="st18" cx="133.9" cy="254.7" r="6.5"/>
			<path class="st3" d="M133.9,248.2c-1.9,0-3.6,0.8-4.8,2.2c1.2-1,2.7-1.7,4.3-1.7c3.6,0,6.5,2.9,6.5,6.5c0,1.7-0.7,3.2-1.7,4.3
				c1.3-1.2,2.2-2.9,2.2-4.8C140.4,251.1,137.5,248.2,133.9,248.2z"/>
		</g>
		<g>
			<g>
				<circle class="st17" cx="109" cy="279.6" r="6.5"/>
				<circle class="st18" cx="110.1" cy="278.5" r="6.5"/>
				<path class="st3" d="M110.1,272c-1.9,0-3.6,0.8-4.8,2.2c1.2-1,2.7-1.7,4.3-1.7c3.6,0,6.5,2.9,6.5,6.5c0,1.7-0.7,3.2-1.7,4.3
					c1.3-1.2,2.2-2.9,2.2-4.8C116.6,274.9,113.7,272,110.1,272z"/>
			</g>
			<g>
				<circle class="st17" cx="132.8" cy="279.6" r="6.5"/>
				<circle class="st18" cx="133.9" cy="278.5" r="6.5"/>
				<path class="st3" d="M133.9,272c-1.9,0-3.6,0.8-4.8,2.2c1.2-1,2.7-1.7,4.3-1.7c3.6,0,6.5,2.9,6.5,6.5c0,1.7-0.7,3.2-1.7,4.3
					c1.3-1.2,2.2-2.9,2.2-4.8C140.4,274.9,137.5,272,133.9,272z"/>
			</g>
		</g>
		<g>
			<circle class="st17" cx="109" cy="255.8" r="6.5"/>
			<circle class="st18" cx="110.1" cy="254.7" r="6.5"/>
			<path class="st3" d="M110.1,248.2c-1.9,0-3.6,0.8-4.8,2.2c1.2-1,2.7-1.7,4.3-1.7c3.6,0,6.5,2.9,6.5,6.5c0,1.7-0.7,3.2-1.7,4.3
				c1.3-1.2,2.2-2.9,2.2-4.8C116.6,251.1,113.7,248.2,110.1,248.2z"/>
		</g>
	</g>
</g>
<g>
	<rect x="97.1" y="194.3" class="st19" width="48.6" height="48.6"/>
	<g>
		<g>
			<circle class="st20" cx="132.8" cy="207.2" r="6.5"/>
			<circle class="st21" cx="133.9" cy="206.1" r="6.5"/>
			<path class="st3" d="M133.9,199.6c-1.9,0-3.6,0.8-4.8,2.2c1.2-1,2.7-1.7,4.3-1.7c3.6,0,6.5,2.9,6.5,6.5c0,1.7-0.7,3.2-1.7,4.3
				c1.3-1.2,2.2-2.9,2.2-4.8C140.4,202.5,137.5,199.6,133.9,199.6z"/>
		</g>
		<g>
			<g>
				<circle class="st20" cx="109" cy="231" r="6.5"/>
				<circle class="st21" cx="110.1" cy="229.9" r="6.5"/>
				<path class="st3" d="M110.1,223.4c-1.9,0-3.6,0.8-4.8,2.2c1.2-1,2.7-1.7,4.3-1.7c3.6,0,6.5,2.9,6.5,6.5c0,1.7-0.7,3.2-1.7,4.3
					c1.3-1.2,2.2-2.9,2.2-4.8C116.6,226.3,113.7,223.4,110.1,223.4z"/>
			</g>
			<g>
				<circle class="st20" cx="132.8" cy="231" r="6.5"/>
				<circle class="st21" cx="133.9" cy="229.9" r="6.5"/>
				<path class="st3" d="M133.9,223.4c-1.9,0-3.6,0.8-4.8,2.2c1.2-1,2.7-1.7,4.3-1.7c3.6,0,6.5,2.9,6.5,6.5c0,1.7-0.7,3.2-1.7,4.3
					c1.3-1.2,2.2-2.9,2.2-4.8C140.4,226.3,137.5,223.4,133.9,223.4z"/>
			</g>
		</g>
		<g>
			<circle class="st20" cx="109" cy="207.2" r="6.5"/>
			<circle class="st21" cx="110.1" cy="206.1" r="6.5"/>
			<path class="st3" d="M110.1,199.6c-1.9,0-3.6,0.8-4.8,2.2c1.2-1,2.7-1.7,4.3-1.7c3.6,0,6.5,2.9,6.5,6.5c0,1.7-0.7,3.2-1.7,4.3
				c1.3-1.2,2.2-2.9,2.2-4.8C116.6,202.5,113.7,199.6,110.1,199.6z"/>
		</g>
	</g>
</g>
<g>
	<rect x="242.9" y="97.1" class="st19" width="48.6" height="48.6"/>
	<g>
		<g>
			<circle class="st20" cx="278.5" cy="110.1" r="6.5"/>
			<circle class="st21" cx="279.6" cy="109" r="6.5"/>
			<path class="st3" d="M279.6,102.5c-1.9,0-3.6,0.8-4.8,2.2c1.2-1,2.7-1.7,4.3-1.7c3.6,0,6.5,2.9,6.5,6.5c0,1.7-0.7,3.2-1.7,4.3
				c1.3-1.2,2.2-2.9,2.2-4.8C286.1,105.4,283.2,102.5,279.6,102.5z"/>
		</g>
		<g>
			<g>
				<circle class="st20" cx="254.7" cy="133.9" r="6.5"/>
				<circle class="st21" cx="255.8" cy="132.8" r="6.5"/>
				<path class="st3" d="M255.8,126.3c-1.9,0-3.6,0.8-4.8,2.2c1.2-1,2.7-1.7,4.3-1.7c3.6,0,6.5,2.9,6.5,6.5c0,1.7-0.7,3.2-1.7,4.3
					c1.3-1.2,2.2-2.9,2.2-4.8C262.3,129.2,259.4,126.3,255.8,126.3z"/>
			</g>
			<g>
				<circle class="st20" cx="278.5" cy="133.9" r="6.5"/>
				<circle class="st21" cx="279.6" cy="132.8" r="6.5"/>
				<path class="st3" d="M279.6,126.3c-1.9,0-3.6,0.8-4.8,2.2c1.2-1,2.7-1.7,4.3-1.7c3.6,0,6.5,2.9,6.5,6.5c0,1.7-0.7,3.2-1.7,4.3
					c1.3-1.2,2.2-2.9,2.2-4.8C286.1,129.2,283.2,126.3,279.6,126.3z"/>
			</g>
		</g>
		<g>
			<circle class="st20" cx="254.7" cy="110.1" r="6.5"/>
			<circle class="st21" cx="255.8" cy="109" r="6.5"/>
			<path class="st3" d="M255.8,102.5c-1.9,0-3.6,0.8-4.8,2.2c1.2-1,2.7-1.7,4.3-1.7c3.6,0,6.5,2.9,6.5,6.5c0,1.7-0.7,3.2-1.7,4.3
				c1.3-1.2,2.2-2.9,2.2-4.8C262.3,105.4,259.4,102.5,255.8,102.5z"/>
		</g>
	</g>
</g>
<g>
	
		<rect x="170" y="267.1" transform="matrix(6.123234e-17 -1 1 6.123234e-17 -121.4285 510)" class="st22" width="48.6" height="97.1"/>
	<g>
		<g>
			<circle class="st23" cx="229.9" cy="304.4" r="6.5"/>
			<circle class="st24" cx="231" cy="303.3" r="6.5"/>
			<path class="st3" d="M237.5,303.2c0,1.9-0.8,3.6-2.2,4.8c1-1.2,1.7-2.7,1.7-4.3c0-3.6-2.9-6.5-6.5-6.5c-1.7,0-3.2,0.7-4.3,1.7
				c1.2-1.3,2.9-2.2,4.8-2.2C234.6,296.7,237.5,299.7,237.5,303.2z"/>
		</g>
		<g>
			<g>
				<circle class="st23" cx="206.1" cy="328.2" r="6.5"/>
				<circle class="st24" cx="207.2" cy="327.1" r="6.5"/>
				<path class="st3" d="M213.7,327c0,1.9-0.8,3.6-2.2,4.8c1-1.2,1.7-2.7,1.7-4.3c0-3.6-2.9-6.5-6.5-6.5c-1.7,0-3.2,0.7-4.3,1.7
					c1.2-1.3,2.9-2.2,4.8-2.2C210.8,320.5,213.7,323.4,213.7,327z"/>
			</g>
			<g>
				<circle class="st23" cx="206.1" cy="304.4" r="6.5"/>
				<circle class="st24" cx="207.2" cy="303.3" r="6.5"/>
				<path class="st3" d="M213.7,303.2c0,1.9-0.8,3.6-2.2,4.8c1-1.2,1.7-2.7,1.7-4.3c0-3.6-2.9-6.5-6.5-6.5c-1.7,0-3.2,0.7-4.3,1.7
					c1.2-1.3,2.9-2.2,4.8-2.2C210.8,296.7,213.7,299.7,213.7,303.2z"/>
			</g>
		</g>
		<g>
			<g>
				<circle class="st23" cx="181.3" cy="304.4" r="6.5"/>
				<circle class="st24" cx="182.4" cy="303.3" r="6.5"/>
				<path class="st3" d="M189,303.2c0,1.9-0.8,3.6-2.2,4.8c1-1.2,1.7-2.7,1.7-4.3c0-3.6-2.9-6.5-6.5-6.5c-1.7,0-3.2,0.7-4.3,1.7
					c1.2-1.3,2.9-2.2,4.8-2.2C186.1,296.7,189,299.7,189,303.2z"/>
			</g>
			<g>
				<g>
					<circle class="st23" cx="157.5" cy="328.2" r="6.5"/>
					<circle class="st24" cx="158.6" cy="327.1" r="6.5"/>
					<path class="st3" d="M165.2,327c0,1.9-0.8,3.6-2.2,4.8c1-1.2,1.7-2.7,1.7-4.3c0-3.6-2.9-6.5-6.5-6.5c-1.7,0-3.2,0.7-4.3,1.7
						c1.2-1.3,2.9-2.2,4.8-2.2C162.3,320.5,165.2,323.4,165.2,327z"/>
				</g>
				<g>
					<circle class="st23" cx="157.5" cy="304.4" r="6.5"/>
					<circle class="st24" cx="158.6" cy="303.3" r="6.5"/>
					<path class="st3" d="M165.2,303.2c0,1.9-0.8,3.6-2.2,4.8c1-1.2,1.7-2.7,1.7-4.3c0-3.6-2.9-6.5-6.5-6.5c-1.7,0-3.2,0.7-4.3,1.7
						c1.2-1.3,2.9-2.2,4.8-2.2C162.3,296.7,165.2,299.7,165.2,303.2z"/>
				</g>
			</g>
			<g>
				<circle class="st23" cx="181.3" cy="328.2" r="6.5"/>
				<circle class="st24" cx="182.4" cy="327.1" r="6.5"/>
				<path class="st3" d="M189,327c0,1.9-0.8,3.6-2.2,4.8c1-1.2,1.7-2.7,1.7-4.3c0-3.6-2.9-6.5-6.5-6.5c-1.7,0-3.2,0.7-4.3,1.7
					c1.2-1.3,2.9-2.2,4.8-2.2C186.1,320.5,189,323.4,189,327z"/>
			</g>
		</g>
		<g>
			<circle class="st23" cx="229.9" cy="328.2" r="6.5"/>
			<circle class="st24" cx="231" cy="327.1" r="6.5"/>
			<path class="st3" d="M237.5,327c0,1.9-0.8,3.6-2.2,4.8c1-1.2,1.7-2.7,1.7-4.3c0-3.6-2.9-6.5-6.5-6.5c-1.7,0-3.2,0.7-4.3,1.7
				c1.2-1.3,2.9-2.2,4.8-2.2C234.6,320.5,237.5,323.4,237.5,327z"/>
		</g>
	</g>
</g>
<g>
	<rect x="194.3" y="48.6" class="st22" width="48.6" height="97.1"/>
	<g>
		<g>
			<circle class="st23" cx="229.9" cy="61.5" r="6.5"/>
			<circle class="st24" cx="231" cy="60.4" r="6.5"/>
			<path class="st3" d="M231,53.9c-1.9,0-3.6,0.8-4.8,2.2c1.2-1,2.7-1.7,4.3-1.7c3.6,0,6.5,2.9,6.5,6.5c0,1.7-0.7,3.2-1.7,4.3
				c1.3-1.2,2.2-2.9,2.2-4.8C237.5,56.8,234.6,53.9,231,53.9z"/>
		</g>
		<g>
			<g>
				<circle class="st23" cx="206.1" cy="85.3" r="6.5"/>
				<circle class="st24" cx="207.2" cy="84.2" r="6.5"/>
				<path class="st3" d="M207.2,77.7c-1.9,0-3.6,0.8-4.8,2.2c1.2-1,2.7-1.7,4.3-1.7c3.6,0,6.5,2.9,6.5,6.5c0,1.7-0.7,3.2-1.7,4.3
					c1.3-1.2,2.2-2.9,2.2-4.8C213.7,80.6,210.8,77.7,207.2,77.7z"/>
			</g>
			<g>
				<circle class="st23" cx="229.9" cy="85.3" r="6.5"/>
				<circle class="st24" cx="231" cy="84.2" r="6.5"/>
				<path class="st3" d="M231,77.7c-1.9,0-3.6,0.8-4.8,2.2c1.2-1,2.7-1.7,4.3-1.7c3.6,0,6.5,2.9,6.5,6.5c0,1.7-0.7,3.2-1.7,4.3
					c1.3-1.2,2.2-2.9,2.2-4.8C237.5,80.6,234.6,77.7,231,77.7z"/>
			</g>
		</g>
		<g>
			<g>
				<circle class="st23" cx="229.9" cy="110.1" r="6.5"/>
				<circle class="st24" cx="231" cy="109" r="6.5"/>
				<path class="st3" d="M231,102.5c-1.9,0-3.6,0.8-4.8,2.2c1.2-1,2.7-1.7,4.3-1.7c3.6,0,6.5,2.9,6.5,6.5c0,1.7-0.7,3.2-1.7,4.3
					c1.3-1.2,2.2-2.9,2.2-4.8C237.5,105.4,234.6,102.5,231,102.5z"/>
			</g>
			<g>
				<g>
					<circle class="st23" cx="206.1" cy="133.9" r="6.5"/>
					<circle class="st24" cx="207.2" cy="132.8" r="6.5"/>
					<path class="st3" d="M207.2,126.3c-1.9,0-3.6,0.8-4.8,2.2c1.2-1,2.7-1.7,4.3-1.7c3.6,0,6.5,2.9,6.5,6.5c0,1.7-0.7,3.2-1.7,4.3
						c1.3-1.2,2.2-2.9,2.2-4.8C213.7,129.2,210.8,126.3,207.2,126.3z"/>
				</g>
				<g>
					<circle class="st23" cx="229.9" cy="133.9" r="6.5"/>
					<circle class="st24" cx="231" cy="132.8" r="6.5"/>
					<path class="st3" d="M231,126.3c-1.9,0-3.6,0.8-4.8,2.2c1.2-1,2.7-1.7,4.3-1.7c3.6,0,6.5,2.9,6.5,6.5c0,1.7-0.7,3.2-1.7,4.3
						c1.3-1.2,2.2-2.9,2.2-4.8C237.5,129.2,234.6,126.3,231,126.3z"/>
				</g>
			</g>
			<g>
				<circle class="st23" cx="206.1" cy="110.1" r="6.5"/>
				<circle class="st24" cx="207.2" cy="109" r="6.5"/>
				<path class="st3" d="M207.2,102.5c-1.9,0-3.6,0.8-4.8,2.2c1.2-1,2.7-1.7,4.3-1.7c3.6,0,6.5,2.9,6.5,6.5c0,1.7-0.7,3.2-1.7,4.3
					c1.3-1.2,2.2-2.9,2.2-4.8C213.7,105.4,210.8,102.5,207.2,102.5z"/>
			</g>
		</g>
		<g>
			<circle class="st23" cx="206.1" cy="61.5" r="6.5"/>
			<circle class="st24" cx="207.2" cy="60.4" r="6.5"/>
			<path class="st3" d="M207.2,53.9c-1.9,0-3.6,0.8-4.8,2.2c1.2-1,2.7-1.7,4.3-1.7c3.6,0,6.5,2.9,6.5,6.5c0,1.7-0.7,3.2-1.7,4.3
				c1.3-1.2,2.2-2.9,2.2-4.8C213.7,56.8,210.8,53.9,207.2,53.9z"/>
		</g>
	</g>
</g>
<g>
	
		<rect x="170" y="121.4" transform="matrix(6.123234e-17 -1 1 6.123234e-17 24.2859 364.2857)" class="st25" width="48.6" height="97.1"/>
	<g>
		<g>
			<circle class="st26" cx="229.9" cy="158.7" r="6.5"/>
			<circle class="st27" cx="231" cy="157.6" r="6.5"/>
			<path class="st3" d="M237.5,157.5c0,1.9-0.8,3.6-2.2,4.8c1-1.2,1.7-2.7,1.7-4.3c0-3.6-2.9-6.5-6.5-6.5c-1.7,0-3.2,0.7-4.3,1.7
				c1.2-1.3,2.9-2.2,4.8-2.2C234.6,151,237.5,153.9,237.5,157.5z"/>
		</g>
		<g>
			<g>
				<circle class="st26" cx="206.1" cy="182.5" r="6.5"/>
				<circle class="st27" cx="207.2" cy="181.4" r="6.5"/>
				<path class="st3" d="M213.7,181.3c0,1.9-0.8,3.6-2.2,4.8c1-1.2,1.7-2.7,1.7-4.3c0-3.6-2.9-6.5-6.5-6.5c-1.7,0-3.2,0.7-4.3,1.7
					c1.2-1.3,2.9-2.2,4.8-2.2C210.8,174.8,213.7,177.7,213.7,181.3z"/>
			</g>
			<g>
				<circle class="st26" cx="206.1" cy="158.7" r="6.5"/>
				<circle class="st27" cx="207.2" cy="157.6" r="6.5"/>
				<path class="st3" d="M213.7,157.5c0,1.9-0.8,3.6-2.2,4.8c1-1.2,1.7-2.7,1.7-4.3c0-3.6-2.9-6.5-6.5-6.5c-1.7,0-3.2,0.7-4.3,1.7
					c1.2-1.3,2.9-2.2,4.8-2.2C210.8,151,213.7,153.9,213.7,157.5z"/>
			</g>
		</g>
		<g>
			<g>
				<circle class="st26" cx="181.3" cy="158.7" r="6.5"/>
				<circle class="st27" cx="182.4" cy="157.6" r="6.5"/>
				<path class="st3" d="M189,157.5c0,1.9-0.8,3.6-2.2,4.8c1-1.2,1.7-2.7,1.7-4.3c0-3.6-2.9-6.5-6.5-6.5c-1.7,0-3.2,0.7-4.3,1.7
					c1.2-1.3,2.9-2.2,4.8-2.2C186.1,151,189,153.9,189,157.5z"/>
			</g>
			<g>
				<g>
					<circle class="st26" cx="157.5" cy="182.5" r="6.5"/>
					<circle class="st27" cx="158.6" cy="181.4" r="6.5"/>
					<path class="st3" d="M165.2,181.3c0,1.9-0.8,3.6-2.2,4.8c1-1.2,1.7-2.7,1.7-4.3c0-3.6-2.9-6.5-6.5-6.5c-1.7,0-3.2,0.7-4.3,1.7
						c1.2-1.3,2.9-2.2,4.8-2.2C162.3,174.8,165.2,177.7,165.2,181.3z"/>
				</g>
				<g>
					<circle class="st26" cx="157.5" cy="158.7" r="6.5"/>
					<circle class="st27" cx="158.6" cy="157.6" r="6.5"/>
					<path class="st3" d="M165.2,157.5c0,1.9-0.8,3.6-2.2,4.8c1-1.2,1.7-2.7,1.7-4.3c0-3.6-2.9-6.5-6.5-6.5c-1.7,0-3.2,0.7-4.3,1.7
						c1.2-1.3,2.9-2.2,4.8-2.2C162.3,151,165.2,153.9,165.2,157.5z"/>
				</g>
			</g>
			<g>
				<circle class="st26" cx="181.3" cy="182.5" r="6.5"/>
				<circle class="st27" cx="182.4" cy="181.4" r="6.5"/>
				<path class="st3" d="M189,181.3c0,1.9-0.8,3.6-2.2,4.8c1-1.2,1.7-2.7,1.7-4.3c0-3.6-2.9-6.5-6.5-6.5c-1.7,0-3.2,0.7-4.3,1.7
					c1.2-1.3,2.9-2.2,4.8-2.2C186.1,174.8,189,177.7,189,181.3z"/>
			</g>
		</g>
		<g>
			<circle class="st26" cx="229.9" cy="182.5" r="6.5"/>
			<circle class="st27" cx="231" cy="181.4" r="6.5"/>
			<path class="st3" d="M237.5,181.3c0,1.9-0.8,3.6-2.2,4.8c1-1.2,1.7-2.7,1.7-4.3c0-3.6-2.9-6.5-6.5-6.5c-1.7,0-3.2,0.7-4.3,1.7
				c1.2-1.3,2.9-2.2,4.8-2.2C234.6,174.8,237.5,177.7,237.5,181.3z"/>
		</g>
	</g>
</g>
<g>
	<rect x="291.4" y="121.4" class="st25" width="24.3" height="24.3"/>
	<g>
		<g>
			<circle class="st26" cx="303.2" cy="134.4" r="6.5"/>
			<circle class="st27" cx="304.4" cy="133.3" r="6.5"/>
			<path class="st3" d="M304.4,126.7c-1.9,0-3.6,0.8-4.8,2.2c1.2-1,2.7-1.7,4.3-1.7c3.6,0,6.5,2.9,6.5,6.5c0,1.7-0.7,3.2-1.7,4.3
				c1.3-1.2,2.2-2.9,2.2-4.8C310.9,129.7,308,126.7,304.4,126.7z"/>
		</g>
	</g>
</g>
<g>
	<rect x="97.1" y="291.4" class="st25" width="48.6" height="48.6"/>
	<g>
		<g>
			<circle class="st26" cx="132.8" cy="304.4" r="6.5"/>
			<circle class="st27" cx="133.9" cy="303.3" r="6.5"/>
			<path class="st3" d="M133.9,296.7c-1.9,0-3.6,0.8-4.8,2.2c1.2-1,2.7-1.7,4.3-1.7c3.6,0,6.5,2.9,6.5,6.5c0,1.7-0.7,3.2-1.7,4.3
				c1.3-1.2,2.2-2.9,2.2-4.8C140.4,299.7,137.5,296.7,133.9,296.7z"/>
		</g>
		<g>
			<g>
				<circle class="st26" cx="109" cy="328.2" r="6.5"/>
				<circle class="st27" cx="110.1" cy="327.1" r="6.5"/>
				<path class="st3" d="M110.1,320.5c-1.9,0-3.6,0.8-4.8,2.2c1.2-1,2.7-1.7,4.3-1.7c3.6,0,6.5,2.9,6.5,6.5c0,1.7-0.7,3.2-1.7,4.3
					c1.3-1.2,2.2-2.9,2.2-4.8C116.6,323.4,113.7,320.5,110.1,320.5z"/>
			</g>
			<g>
				<circle class="st26" cx="132.8" cy="328.2" r="6.5"/>
				<circle class="st27" cx="133.9" cy="327.1" r="6.5"/>
				<path class="st3" d="M133.9,320.5c-1.9,0-3.6,0.8-4.8,2.2c1.2-1,2.7-1.7,4.3-1.7c3.6,0,6.5,2.9,6.5,6.5c0,1.7-0.7,3.2-1.7,4.3
					c1.3-1.2,2.2-2.9,2.2-4.8C140.4,323.4,137.5,320.5,133.9,320.5z"/>
			</g>
		</g>
		<g>
			<circle class="st26" cx="109" cy="304.4" r="6.5"/>
			<circle class="st27" cx="110.1" cy="303.3" r="6.5"/>
			<path class="st3" d="M110.1,296.7c-1.9,0-3.6,0.8-4.8,2.2c1.2-1,2.7-1.7,4.3-1.7c3.6,0,6.5,2.9,6.5,6.5c0,1.7-0.7,3.2-1.7,4.3
				c1.3-1.2,2.2-2.9,2.2-4.8C116.6,299.7,113.7,296.7,110.1,296.7z"/>
		</g>
	</g>
</g>
<g>
	<rect x="145.7" y="194.3" class="st28" width="48.6" height="97.1"/>
	<g>
		<g>
			<circle class="st29" cx="181.3" cy="207.2" r="6.5"/>
			<circle class="st30" cx="182.4" cy="206.1" r="6.5"/>
			<path class="st3" d="M182.5,199.6c-1.9,0-3.6,0.8-4.8,2.2c1.2-1,2.7-1.7,4.3-1.7c3.6,0,6.5,2.9,6.5,6.5c0,1.7-0.7,3.2-1.7,4.3
				c1.3-1.2,2.2-2.9,2.2-4.8C189,202.5,186.1,199.6,182.5,199.6z"/>
		</g>
		<g>
			<g>
				<circle class="st29" cx="157.5" cy="231" r="6.5"/>
				<circle class="st30" cx="158.6" cy="229.9" r="6.5"/>
				<path class="st3" d="M158.7,223.4c-1.9,0-3.6,0.8-4.8,2.2c1.2-1,2.7-1.7,4.3-1.7c3.6,0,6.5,2.9,6.5,6.5c0,1.7-0.7,3.2-1.7,4.3
					c1.3-1.2,2.2-2.9,2.2-4.8C165.2,226.3,162.3,223.4,158.7,223.4z"/>
			</g>
			<g>
				<circle class="st29" cx="181.3" cy="231" r="6.5"/>
				<circle class="st30" cx="182.4" cy="229.9" r="6.5"/>
				<path class="st3" d="M182.5,223.4c-1.9,0-3.6,0.8-4.8,2.2c1.2-1,2.7-1.7,4.3-1.7c3.6,0,6.5,2.9,6.5,6.5c0,1.7-0.7,3.2-1.7,4.3
					c1.3-1.2,2.2-2.9,2.2-4.8C189,226.3,186.1,223.4,182.5,223.4z"/>
			</g>
		</g>
		<g>
			<g>
				<circle class="st29" cx="181.3" cy="255.8" r="6.5"/>
				<circle class="st30" cx="182.4" cy="254.7" r="6.5"/>
				<path class="st3" d="M182.5,248.2c-1.9,0-3.6,0.8-4.8,2.2c1.2-1,2.7-1.7,4.3-1.7c3.6,0,6.5,2.9,6.5,6.5c0,1.7-0.7,3.2-1.7,4.3
					c1.3-1.2,2.2-2.9,2.2-4.8C189,251.1,186.1,248.2,182.5,248.2z"/>
			</g>
			<g>
				<g>
					<circle class="st29" cx="157.5" cy="279.6" r="6.5"/>
					<circle class="st30" cx="158.6" cy="278.5" r="6.5"/>
					<path class="st3" d="M158.7,272c-1.9,0-3.6,0.8-4.8,2.2c1.2-1,2.7-1.7,4.3-1.7c3.6,0,6.5,2.9,6.5,6.5c0,1.7-0.7,3.2-1.7,4.3
						c1.3-1.2,2.2-2.9,2.2-4.8C165.2,274.9,162.3,272,158.7,272z"/>
				</g>
				<g>
					<circle class="st29" cx="181.3" cy="279.6" r="6.5"/>
					<circle class="st30" cx="182.4" cy="278.5" r="6.5"/>
					<path class="st3" d="M182.5,272c-1.9,0-3.6,0.8-4.8,2.2c1.2-1,2.7-1.7,4.3-1.7c3.6,0,6.5,2.9,6.5,6.5c0,1.7-0.7,3.2-1.7,4.3
						c1.3-1.2,2.2-2.9,2.2-4.8C189,274.9,186.1,272,182.5,272z"/>
				</g>
			</g>
			<g>
				<circle class="st29" cx="157.5" cy="255.8" r="6.5"/>
				<circle class="st30" cx="158.6" cy="254.7" r="6.5"/>
				<path class="st3" d="M158.7,248.2c-1.9,0-3.6,0.8-4.8,2.2c1.2-1,2.7-1.7,4.3-1.7c3.6,0,6.5,2.9,6.5,6.5c0,1.7-0.7,3.2-1.7,4.3
					c1.3-1.2,2.2-2.9,2.2-4.8C165.2,251.1,162.3,248.2,158.7,248.2z"/>
			</g>
		</g>
		<g>
			<circle class="st29" cx="157.5" cy="207.2" r="6.5"/>
			<circle class="st30" cx="158.6" cy="206.1" r="6.5"/>
			<path class="st3" d="M158.7,199.6c-1.9,0-3.6,0.8-4.8,2.2c1.2-1,2.7-1.7,4.3-1.7c3.6,0,6.5,2.9,6.5,6.5c0,1.7-0.7,3.2-1.7,4.3
				c1.3-1.2,2.2-2.9,2.2-4.8C165.2,202.5,162.3,199.6,158.7,199.6z"/>
		</g>
	</g>
</g>
<g>
	
		<rect x="121.4" y="72.9" transform="matrix(6.123234e-17 -1 1 6.123234e-17 24.2858 267.1427)" class="st28" width="48.6" height="97.1"/>
	<g>
		<g>
			<circle class="st29" cx="181.3" cy="110.1" r="6.5"/>
			<circle class="st30" cx="182.4" cy="109" r="6.5"/>
			<path class="st3" d="M189,109c0,1.9-0.8,3.6-2.2,4.8c1-1.2,1.7-2.7,1.7-4.3c0-3.6-2.9-6.5-6.5-6.5c-1.7,0-3.2,0.7-4.3,1.7
				c1.2-1.3,2.9-2.2,4.8-2.2C186.1,102.5,189,105.4,189,109z"/>
		</g>
		<g>
			<g>
				<circle class="st29" cx="157.5" cy="133.9" r="6.5"/>
				<circle class="st30" cx="158.6" cy="132.8" r="6.5"/>
				<path class="st3" d="M165.2,132.8c0,1.9-0.8,3.6-2.2,4.8c1-1.2,1.7-2.7,1.7-4.3c0-3.6-2.9-6.5-6.5-6.5c-1.7,0-3.2,0.7-4.3,1.7
					c1.2-1.3,2.9-2.2,4.8-2.2C162.3,126.3,165.2,129.2,165.2,132.8z"/>
			</g>
			<g>
				<circle class="st29" cx="157.5" cy="110.1" r="6.5"/>
				<circle class="st30" cx="158.6" cy="109" r="6.5"/>
				<path class="st3" d="M165.2,109c0,1.9-0.8,3.6-2.2,4.8c1-1.2,1.7-2.7,1.7-4.3c0-3.6-2.9-6.5-6.5-6.5c-1.7,0-3.2,0.7-4.3,1.7
					c1.2-1.3,2.9-2.2,4.8-2.2C162.3,102.5,165.2,105.4,165.2,109z"/>
			</g>
		</g>
		<g>
			<g>
				<circle class="st29" cx="132.8" cy="110.1" r="6.5"/>
				<circle class="st30" cx="133.9" cy="109" r="6.5"/>
				<path class="st3" d="M140.4,109c0,1.9-0.8,3.6-2.2,4.8c1-1.2,1.7-2.7,1.7-4.3c0-3.6-2.9-6.5-6.5-6.5c-1.7,0-3.2,0.7-4.3,1.7
					c1.2-1.3,2.9-2.2,4.8-2.2C137.5,102.5,140.4,105.4,140.4,109z"/>
			</g>
			<g>
				<g>
					<circle class="st29" cx="109" cy="133.9" r="6.5"/>
					<circle class="st30" cx="110.1" cy="132.8" r="6.5"/>
					<path class="st3" d="M116.6,132.8c0,1.9-0.8,3.6-2.2,4.8c1-1.2,1.7-2.7,1.7-4.3c0-3.6-2.9-6.5-6.5-6.5c-1.7,0-3.2,0.7-4.3,1.7
						c1.2-1.3,2.9-2.2,4.8-2.2C113.7,126.3,116.6,129.2,116.6,132.8z"/>
				</g>
				<g>
					<circle class="st29" cx="109" cy="110.1" r="6.5"/>
					<circle class="st30" cx="110.1" cy="109" r="6.5"/>
					<path class="st3" d="M116.6,109c0,1.9-0.8,3.6-2.2,4.8c1-1.2,1.7-2.7,1.7-4.3c0-3.6-2.9-6.5-6.5-6.5c-1.7,0-3.2,0.7-4.3,1.7
						c1.2-1.3,2.9-2.2,4.8-2.2C113.7,102.5,116.6,105.4,116.6,109z"/>
				</g>
			</g>
			<g>
				<circle class="st29" cx="132.8" cy="133.9" r="6.5"/>
				<circle class="st30" cx="133.9" cy="132.8" r="6.5"/>
				<path class="st3" d="M140.4,132.8c0,1.9-0.8,3.6-2.2,4.8c1-1.2,1.7-2.7,1.7-4.3c0-3.6-2.9-6.5-6.5-6.5c-1.7,0-3.2,0.7-4.3,1.7
					c1.2-1.3,2.9-2.2,4.8-2.2C137.5,126.3,140.4,129.2,140.4,132.8z"/>
			</g>
		</g>
		<g>
			<circle class="st29" cx="181.3" cy="133.9" r="6.5"/>
			<circle class="st30" cx="182.4" cy="132.8" r="6.5"/>
			<path class="st3" d="M189,132.8c0,1.9-0.8,3.6-2.2,4.8c1-1.2,1.7-2.7,1.7-4.3c0-3.6-2.9-6.5-6.5-6.5c-1.7,0-3.2,0.7-4.3,1.7
				c1.2-1.3,2.9-2.2,4.8-2.2C186.1,126.3,189,129.2,189,132.8z"/>
		</g>
	</g>
</g>
<g>
	
		<rect x="121.4" y="364.3" transform="matrix(6.123234e-17 -1 1 6.123234e-17 -267.1429 558.5714)" class="st28" width="48.6" height="97.1"/>
	<g>
		<g>
			<circle class="st29" cx="181.3" cy="401.5" r="6.5"/>
			<circle class="st30" cx="182.4" cy="400.4" r="6.5"/>
			<path class="st3" d="M189,400.4c0,1.9-0.8,3.6-2.2,4.8c1-1.2,1.7-2.7,1.7-4.3c0-3.6-2.9-6.5-6.5-6.5c-1.7,0-3.2,0.7-4.3,1.7
				c1.2-1.3,2.9-2.2,4.8-2.2C186.1,393.9,189,396.8,189,400.4z"/>
		</g>
		<g>
			<g>
				<circle class="st29" cx="157.5" cy="425.3" r="6.5"/>
				<circle class="st30" cx="158.6" cy="424.2" r="6.5"/>
				<path class="st3" d="M165.2,424.2c0,1.9-0.8,3.6-2.2,4.8c1-1.2,1.7-2.7,1.7-4.3c0-3.6-2.9-6.5-6.5-6.5c-1.7,0-3.2,0.7-4.3,1.7
					c1.2-1.3,2.9-2.2,4.8-2.2C162.3,417.7,165.2,420.6,165.2,424.2z"/>
			</g>
			<g>
				<circle class="st29" cx="157.5" cy="401.5" r="6.5"/>
				<circle class="st30" cx="158.6" cy="400.4" r="6.5"/>
				<path class="st3" d="M165.2,400.4c0,1.9-0.8,3.6-2.2,4.8c1-1.2,1.7-2.7,1.7-4.3c0-3.6-2.9-6.5-6.5-6.5c-1.7,0-3.2,0.7-4.3,1.7
					c1.2-1.3,2.9-2.2,4.8-2.2C162.3,393.9,165.2,396.8,165.2,400.4z"/>
			</g>
		</g>
		<g>
			<g>
				<circle class="st29" cx="132.8" cy="401.5" r="6.5"/>
				<circle class="st30" cx="133.9" cy="400.4" r="6.5"/>
				<path class="st3" d="M140.4,400.4c0,1.9-0.8,3.6-2.2,4.8c1-1.2,1.7-2.7,1.7-4.3c0-3.6-2.9-6.5-6.5-6.5c-1.7,0-3.2,0.7-4.3,1.7
					c1.2-1.3,2.9-2.2,4.8-2.2C137.5,393.9,140.4,396.8,140.4,400.4z"/>
			</g>
			<g>
				<g>
					<circle class="st29" cx="109" cy="425.3" r="6.5"/>
					<circle class="st30" cx="110.1" cy="424.2" r="6.5"/>
					<path class="st3" d="M116.6,424.2c0,1.9-0.8,3.6-2.2,4.8c1-1.2,1.7-2.7,1.7-4.3c0-3.6-2.9-6.5-6.5-6.5c-1.7,0-3.2,0.7-4.3,1.7
						c1.2-1.3,2.9-2.2,4.8-2.2C113.7,417.7,116.6,420.6,116.6,424.2z"/>
				</g>
				<g>
					<circle class="st29" cx="109" cy="401.5" r="6.5"/>
					<circle class="st30" cx="110.1" cy="400.4" r="6.5"/>
					<path class="st3" d="M116.6,400.4c0,1.9-0.8,3.6-2.2,4.8c1-1.2,1.7-2.7,1.7-4.3c0-3.6-2.9-6.5-6.5-6.5c-1.7,0-3.2,0.7-4.3,1.7
						c1.2-1.3,2.9-2.2,4.8-2.2C113.7,393.9,116.6,396.8,116.6,400.4z"/>
				</g>
			</g>
			<g>
				<circle class="st29" cx="132.8" cy="425.3" r="6.5"/>
				<circle class="st30" cx="133.9" cy="424.2" r="6.5"/>
				<path class="st3" d="M140.4,424.2c0,1.9-0.8,3.6-2.2,4.8c1-1.2,1.7-2.7,1.7-4.3c0-3.6-2.9-6.5-6.5-6.5c-1.7,0-3.2,0.7-4.3,1.7
					c1.2-1.3,2.9-2.2,4.8-2.2C137.5,417.7,140.4,420.6,140.4,424.2z"/>
			</g>
		</g>
		<g>
			<circle class="st29" cx="181.3" cy="425.3" r="6.5"/>
			<circle class="st30" cx="182.4" cy="424.2" r="6.5"/>
			<path class="st3" d="M189,424.2c0,1.9-0.8,3.6-2.2,4.8c1-1.2,1.7-2.7,1.7-4.3c0-3.6-2.9-6.5-6.5-6.5c-1.7,0-3.2,0.7-4.3,1.7
				c1.2-1.3,2.9-2.2,4.8-2.2C186.1,417.7,189,420.6,189,424.2z"/>
		</g>
	</g>
</g>
<g>
	<rect x="72.9" y="72.9" class="st28" width="24.3" height="24.3"/>
	<g>
		<g>
			<circle class="st29" cx="84.7" cy="85.8" r="6.5"/>
			<circle class="st30" cx="85.8" cy="84.7" r="6.5"/>
			<path class="st3" d="M85.8,78.2c-1.9,0-3.6,0.8-4.8,2.2c1.2-1,2.7-1.7,4.3-1.7c3.6,0,6.5,2.9,6.5,6.5c0,1.7-0.7,3.2-1.7,4.3
				c1.3-1.2,2.2-2.9,2.2-4.8C92.3,81.1,89.4,78.2,85.8,78.2z"/>
		</g>
	</g>
</g>
<g>
	
		<rect x="121.3" y="558.6" transform="matrix(6.123234e-17 -1 1 6.123234e-17 -461.5307 752.7551)" class="st7" width="48.6" height="97.1"/>
	<g>
		<g>
			<circle class="st8" cx="181.2" cy="595.8" r="6.5"/>
			<circle class="st9" cx="182.3" cy="594.7" r="6.5"/>
			<path class="st3" d="M188.9,594.7c0,1.9-0.8,3.6-2.2,4.8c1-1.2,1.7-2.7,1.7-4.3c0-3.6-2.9-6.5-6.5-6.5c-1.7,0-3.2,0.7-4.3,1.7
				c1.2-1.3,2.9-2.2,4.8-2.2C186,588.2,188.9,591.1,188.9,594.7z"/>
		</g>
		<g>
			<g>
				<circle class="st8" cx="157.4" cy="619.6" r="6.5"/>
				<circle class="st9" cx="158.5" cy="618.5" r="6.5"/>
				<path class="st3" d="M165.1,618.5c0,1.9-0.8,3.6-2.2,4.8c1-1.2,1.7-2.7,1.7-4.3c0-3.6-2.9-6.5-6.5-6.5c-1.7,0-3.2,0.7-4.3,1.7
					c1.2-1.3,2.9-2.2,4.8-2.2C162.2,612,165.1,614.9,165.1,618.5z"/>
			</g>
			<g>
				<circle class="st8" cx="157.4" cy="595.8" r="6.5"/>
				<circle class="st9" cx="158.5" cy="594.7" r="6.5"/>
				<path class="st3" d="M165.1,594.7c0,1.9-0.8,3.6-2.2,4.8c1-1.2,1.7-2.7,1.7-4.3c0-3.6-2.9-6.5-6.5-6.5c-1.7,0-3.2,0.7-4.3,1.7
					c1.2-1.3,2.9-2.2,4.8-2.2C162.2,588.2,165.1,591.1,165.1,594.7z"/>
			</g>
		</g>
		<g>
			<g>
				<circle class="st8" cx="132.6" cy="595.8" r="6.5"/>
				<circle class="st9" cx="133.8" cy="594.7" r="6.5"/>
				<path class="st3" d="M140.3,594.7c0,1.9-0.8,3.6-2.2,4.8c1-1.2,1.7-2.7,1.7-4.3c0-3.6-2.9-6.5-6.5-6.5c-1.7,0-3.2,0.7-4.3,1.7
					c1.2-1.3,2.9-2.2,4.8-2.2C137.4,588.2,140.3,591.1,140.3,594.7z"/>
			</g>
			<g>
				<g>
					<circle class="st8" cx="108.9" cy="619.6" r="6.5"/>
					<circle class="st9" cx="110" cy="618.5" r="6.5"/>
					<path class="st3" d="M116.5,618.5c0,1.9-0.8,3.6-2.2,4.8c1-1.2,1.7-2.7,1.7-4.3c0-3.6-2.9-6.5-6.5-6.5c-1.7,0-3.2,0.7-4.3,1.7
						c1.2-1.3,2.9-2.2,4.8-2.2C113.6,612,116.5,614.9,116.5,618.5z"/>
				</g>
				<g>
					<circle class="st8" cx="108.9" cy="595.8" r="6.5"/>
					<circle class="st9" cx="110" cy="594.7" r="6.5"/>
					<path class="st3" d="M116.5,594.7c0,1.9-0.8,3.6-2.2,4.8c1-1.2,1.7-2.7,1.7-4.3c0-3.6-2.9-6.5-6.5-6.5c-1.7,0-3.2,0.7-4.3,1.7
						c1.2-1.3,2.9-2.2,4.8-2.2C113.6,588.2,116.5,591.1,116.5,594.7z"/>
				</g>
			</g>
			<g>
				<circle class="st8" cx="132.6" cy="619.6" r="6.5"/>
				<circle class="st9" cx="133.8" cy="618.5" r="6.5"/>
				<path class="st3" d="M140.3,618.5c0,1.9-0.8,3.6-2.2,4.8c1-1.2,1.7-2.7,1.7-4.3c0-3.6-2.9-6.5-6.5-6.5c-1.7,0-3.2,0.7-4.3,1.7
					c1.2-1.3,2.9-2.2,4.8-2.2C137.4,612,140.3,614.9,140.3,618.5z"/>
			</g>
		</g>
		<g>
			<circle class="st8" cx="181.2" cy="619.6" r="6.5"/>
			<circle class="st9" cx="182.3" cy="618.5" r="6.5"/>
			<path class="st3" d="M188.9,618.5c0,1.9-0.8,3.6-2.2,4.8c1-1.2,1.7-2.7,1.7-4.3c0-3.6-2.9-6.5-6.5-6.5c-1.7,0-3.2,0.7-4.3,1.7
				c1.2-1.3,2.9-2.2,4.8-2.2C186,612,188.9,614.9,188.9,618.5z"/>
		</g>
	</g>
</g>
<g>
	<rect x="194.2" y="582.9" class="st10" width="48.6" height="97.1"/>
	<g>
		<g>
			<circle class="st11" cx="229.8" cy="595.8" r="6.5"/>
			<circle class="st12" cx="230.9" cy="594.7" r="6.5"/>
			<path class="st3" d="M230.9,588.2c-1.9,0-3.6,0.8-4.8,2.2c1.2-1,2.7-1.7,4.3-1.7c3.6,0,6.5,2.9,6.5,6.5c0,1.7-0.7,3.2-1.7,4.3
				c1.3-1.2,2.2-2.9,2.2-4.8C237.4,591.1,234.5,588.2,230.9,588.2z"/>
		</g>
		<g>
			<g>
				<circle class="st11" cx="206" cy="619.6" r="6.5"/>
				<circle class="st12" cx="207.1" cy="618.5" r="6.5"/>
				<path class="st3" d="M207.1,612c-1.9,0-3.6,0.8-4.8,2.2c1.2-1,2.7-1.7,4.3-1.7c3.6,0,6.5,2.9,6.5,6.5c0,1.7-0.7,3.2-1.7,4.3
					c1.3-1.2,2.2-2.9,2.2-4.8C213.6,614.9,210.7,612,207.1,612z"/>
			</g>
			<g>
				<circle class="st11" cx="229.8" cy="619.6" r="6.5"/>
				<circle class="st12" cx="230.9" cy="618.5" r="6.5"/>
				<path class="st3" d="M230.9,612c-1.9,0-3.6,0.8-4.8,2.2c1.2-1,2.7-1.7,4.3-1.7c3.6,0,6.5,2.9,6.5,6.5c0,1.7-0.7,3.2-1.7,4.3
					c1.3-1.2,2.2-2.9,2.2-4.8C237.4,614.9,234.5,612,230.9,612z"/>
			</g>
		</g>
		<g>
			<g>
				<circle class="st11" cx="229.8" cy="644.4" r="6.5"/>
				<circle class="st12" cx="230.9" cy="643.3" r="6.5"/>
				<path class="st3" d="M230.9,636.7c-1.9,0-3.6,0.8-4.8,2.2c1.2-1,2.7-1.7,4.3-1.7c3.6,0,6.5,2.9,6.5,6.5c0,1.7-0.7,3.2-1.7,4.3
					c1.3-1.2,2.2-2.9,2.2-4.8C237.4,639.7,234.5,636.7,230.9,636.7z"/>
			</g>
			<g>
				<g>
					<circle class="st11" cx="206" cy="668.2" r="6.5"/>
					<circle class="st12" cx="207.1" cy="667.1" r="6.5"/>
					<path class="st3" d="M207.1,660.5c-1.9,0-3.6,0.8-4.8,2.2c1.2-1,2.7-1.7,4.3-1.7c3.6,0,6.5,2.9,6.5,6.5c0,1.7-0.7,3.2-1.7,4.3
						c1.3-1.2,2.2-2.9,2.2-4.8C213.6,663.5,210.7,660.5,207.1,660.5z"/>
				</g>
				<g>
					<circle class="st11" cx="229.8" cy="668.2" r="6.5"/>
					<circle class="st12" cx="230.9" cy="667.1" r="6.5"/>
					<path class="st3" d="M230.9,660.5c-1.9,0-3.6,0.8-4.8,2.2c1.2-1,2.7-1.7,4.3-1.7c3.6,0,6.5,2.9,6.5,6.5c0,1.7-0.7,3.2-1.7,4.3
						c1.3-1.2,2.2-2.9,2.2-4.8C237.4,663.5,234.5,660.5,230.9,660.5z"/>
				</g>
			</g>
			<g>
				<circle class="st11" cx="206" cy="644.4" r="6.5"/>
				<circle class="st12" cx="207.1" cy="643.3" r="6.5"/>
				<path class="st3" d="M207.1,636.7c-1.9,0-3.6,0.8-4.8,2.2c1.2-1,2.7-1.7,4.3-1.7c3.6,0,6.5,2.9,6.5,6.5c0,1.7-0.7,3.2-1.7,4.3
					c1.3-1.2,2.2-2.9,2.2-4.8C213.6,639.7,210.7,636.7,207.1,636.7z"/>
			</g>
		</g>
		<g>
			<circle class="st11" cx="206" cy="595.8" r="6.5"/>
			<circle class="st12" cx="207.1" cy="594.7" r="6.5"/>
			<path class="st3" d="M207.1,588.2c-1.9,0-3.6,0.8-4.8,2.2c1.2-1,2.7-1.7,4.3-1.7c3.6,0,6.5,2.9,6.5,6.5c0,1.7-0.7,3.2-1.7,4.3
				c1.3-1.2,2.2-2.9,2.2-4.8C213.6,591.1,210.7,588.2,207.1,588.2z"/>
		</g>
	</g>
</g>
<g>
	<rect x="194.2" y="437.1" class="st13" width="48.6" height="97.1"/>
	<g>
		<g>
			<circle class="st14" cx="229.8" cy="450.1" r="6.5"/>
			<circle class="st15" cx="230.9" cy="449" r="6.5"/>
			<path class="st3" d="M230.9,442.5c-1.9,0-3.6,0.8-4.8,2.2c1.2-1,2.7-1.7,4.3-1.7c3.6,0,6.5,2.9,6.5,6.5c0,1.7-0.7,3.2-1.7,4.3
				c1.3-1.2,2.2-2.9,2.2-4.8C237.4,445.4,234.5,442.5,230.9,442.5z"/>
		</g>
		<g>
			<g>
				<circle class="st14" cx="206" cy="473.9" r="6.5"/>
				<circle class="st15" cx="207.1" cy="472.8" r="6.5"/>
				<path class="st3" d="M207.1,466.3c-1.9,0-3.6,0.8-4.8,2.2c1.2-1,2.7-1.7,4.3-1.7c3.6,0,6.5,2.9,6.5,6.5c0,1.7-0.7,3.2-1.7,4.3
					c1.3-1.2,2.2-2.9,2.2-4.8C213.6,469.2,210.7,466.3,207.1,466.3z"/>
			</g>
			<g>
				<circle class="st14" cx="229.8" cy="473.9" r="6.5"/>
				<circle class="st15" cx="230.9" cy="472.8" r="6.5"/>
				<path class="st3" d="M230.9,466.3c-1.9,0-3.6,0.8-4.8,2.2c1.2-1,2.7-1.7,4.3-1.7c3.6,0,6.5,2.9,6.5,6.5c0,1.7-0.7,3.2-1.7,4.3
					c1.3-1.2,2.2-2.9,2.2-4.8C237.4,469.2,234.5,466.3,230.9,466.3z"/>
			</g>
		</g>
		<g>
			<g>
				<circle class="st14" cx="229.8" cy="498.7" r="6.5"/>
				<circle class="st15" cx="230.9" cy="497.6" r="6.5"/>
				<path class="st3" d="M230.9,491c-1.9,0-3.6,0.8-4.8,2.2c1.2-1,2.7-1.7,4.3-1.7c3.6,0,6.5,2.9,6.5,6.5c0,1.7-0.7,3.2-1.7,4.3
					c1.3-1.2,2.2-2.9,2.2-4.8C237.4,493.9,234.5,491,230.9,491z"/>
			</g>
			<g>
				<g>
					<circle class="st14" cx="206" cy="522.5" r="6.5"/>
					<circle class="st15" cx="207.1" cy="521.4" r="6.5"/>
					<path class="st3" d="M207.1,514.8c-1.9,0-3.6,0.8-4.8,2.2c1.2-1,2.7-1.7,4.3-1.7c3.6,0,6.5,2.9,6.5,6.5c0,1.7-0.7,3.2-1.7,4.3
						c1.3-1.2,2.2-2.9,2.2-4.8C213.6,517.7,210.7,514.8,207.1,514.8z"/>
				</g>
				<g>
					<circle class="st14" cx="229.8" cy="522.5" r="6.5"/>
					<circle class="st15" cx="230.9" cy="521.4" r="6.5"/>
					<path class="st3" d="M230.9,514.8c-1.9,0-3.6,0.8-4.8,2.2c1.2-1,2.7-1.7,4.3-1.7c3.6,0,6.5,2.9,6.5,6.5c0,1.7-0.7,3.2-1.7,4.3
						c1.3-1.2,2.2-2.9,2.2-4.8C237.4,517.7,234.5,514.8,230.9,514.8z"/>
				</g>
			</g>
			<g>
				<circle class="st14" cx="206" cy="498.7" r="6.5"/>
				<circle class="st15" cx="207.1" cy="497.6" r="6.5"/>
				<path class="st3" d="M207.1,491c-1.9,0-3.6,0.8-4.8,2.2c1.2-1,2.7-1.7,4.3-1.7c3.6,0,6.5,2.9,6.5,6.5c0,1.7-0.7,3.2-1.7,4.3
					c1.3-1.2,2.2-2.9,2.2-4.8C213.6,493.9,210.7,491,207.1,491z"/>
			</g>
		</g>
		<g>
			<circle class="st14" cx="206" cy="450.1" r="6.5"/>
			<circle class="st15" cx="207.1" cy="449" r="6.5"/>
			<path class="st3" d="M207.1,442.5c-1.9,0-3.6,0.8-4.8,2.2c1.2-1,2.7-1.7,4.3-1.7c3.6,0,6.5,2.9,6.5,6.5c0,1.7-0.7,3.2-1.7,4.3
				c1.3-1.2,2.2-2.9,2.2-4.8C213.6,445.4,210.7,442.5,207.1,442.5z"/>
		</g>
	</g>
</g>
<g>
	<rect x="97" y="485.7" class="st16" width="48.6" height="48.6"/>
	<g>
		<g>
			<circle class="st17" cx="132.7" cy="498.7" r="6.5"/>
			<circle class="st18" cx="133.8" cy="497.6" r="6.5"/>
			<path class="st3" d="M133.8,491c-1.9,0-3.6,0.8-4.8,2.2c1.2-1,2.7-1.7,4.3-1.7c3.6,0,6.5,2.9,6.5,6.5c0,1.7-0.7,3.2-1.7,4.3
				c1.3-1.2,2.2-2.9,2.2-4.8C140.3,493.9,137.4,491,133.8,491z"/>
		</g>
		<g>
			<g>
				<circle class="st17" cx="108.9" cy="522.5" r="6.5"/>
				<circle class="st18" cx="110" cy="521.4" r="6.5"/>
				<path class="st3" d="M110,514.8c-1.9,0-3.6,0.8-4.8,2.2c1.2-1,2.7-1.7,4.3-1.7c3.6,0,6.5,2.9,6.5,6.5c0,1.7-0.7,3.2-1.7,4.3
					c1.3-1.2,2.2-2.9,2.2-4.8C116.5,517.7,113.6,514.8,110,514.8z"/>
			</g>
			<g>
				<circle class="st17" cx="132.7" cy="522.5" r="6.5"/>
				<circle class="st18" cx="133.8" cy="521.4" r="6.5"/>
				<path class="st3" d="M133.8,514.8c-1.9,0-3.6,0.8-4.8,2.2c1.2-1,2.7-1.7,4.3-1.7c3.6,0,6.5,2.9,6.5,6.5c0,1.7-0.7,3.2-1.7,4.3
					c1.3-1.2,2.2-2.9,2.2-4.8C140.3,517.7,137.4,514.8,133.8,514.8z"/>
			</g>
		</g>
		<g>
			<circle class="st17" cx="108.9" cy="498.7" r="6.5"/>
			<circle class="st18" cx="110" cy="497.6" r="6.5"/>
			<path class="st3" d="M110,491c-1.9,0-3.6,0.8-4.8,2.2c1.2-1,2.7-1.7,4.3-1.7c3.6,0,6.5,2.9,6.5,6.5c0,1.7-0.7,3.2-1.7,4.3
				c1.3-1.2,2.2-2.9,2.2-4.8C116.5,493.9,113.6,491,110,491z"/>
		</g>
	</g>
</g>
<g>
	<rect x="97" y="437.1" class="st19" width="48.6" height="48.6"/>
	<g>
		<g>
			<circle class="st20" cx="132.7" cy="450.1" r="6.5"/>
			<circle class="st21" cx="133.8" cy="449" r="6.5"/>
			<path class="st3" d="M133.8,442.5c-1.9,0-3.6,0.8-4.8,2.2c1.2-1,2.7-1.7,4.3-1.7c3.6,0,6.5,2.9,6.5,6.5c0,1.7-0.7,3.2-1.7,4.3
				c1.3-1.2,2.2-2.9,2.2-4.8C140.3,445.4,137.4,442.5,133.8,442.5z"/>
		</g>
		<g>
			<g>
				<circle class="st20" cx="108.9" cy="473.9" r="6.5"/>
				<circle class="st21" cx="110" cy="472.8" r="6.5"/>
				<path class="st3" d="M110,466.3c-1.9,0-3.6,0.8-4.8,2.2c1.2-1,2.7-1.7,4.3-1.7c3.6,0,6.5,2.9,6.5,6.5c0,1.7-0.7,3.2-1.7,4.3
					c1.3-1.2,2.2-2.9,2.2-4.8C116.5,469.2,113.6,466.3,110,466.3z"/>
			</g>
			<g>
				<circle class="st20" cx="132.7" cy="473.9" r="6.5"/>
				<circle class="st21" cx="133.8" cy="472.8" r="6.5"/>
				<path class="st3" d="M133.8,466.3c-1.9,0-3.6,0.8-4.8,2.2c1.2-1,2.7-1.7,4.3-1.7c3.6,0,6.5,2.9,6.5,6.5c0,1.7-0.7,3.2-1.7,4.3
					c1.3-1.2,2.2-2.9,2.2-4.8C140.3,469.2,137.4,466.3,133.8,466.3z"/>
			</g>
		</g>
		<g>
			<circle class="st20" cx="108.9" cy="450.1" r="6.5"/>
			<circle class="st21" cx="110" cy="449" r="6.5"/>
			<path class="st3" d="M110,442.5c-1.9,0-3.6,0.8-4.8,2.2c1.2-1,2.7-1.7,4.3-1.7c3.6,0,6.5,2.9,6.5,6.5c0,1.7-0.7,3.2-1.7,4.3
				c1.3-1.2,2.2-2.9,2.2-4.8C116.5,445.4,113.6,442.5,110,442.5z"/>
		</g>
	</g>
</g>
<g>
	
		<rect x="169.9" y="510" transform="matrix(6.123234e-17 -1 1 6.123234e-17 -364.3877 752.7551)" class="st22" width="48.6" height="97.1"/>
	<g>
		<g>
			<circle class="st23" cx="229.8" cy="547.2" r="6.5"/>
			<circle class="st24" cx="230.9" cy="546.1" r="6.5"/>
			<path class="st3" d="M237.4,546.1c0,1.9-0.8,3.6-2.2,4.8c1-1.2,1.7-2.7,1.7-4.3c0-3.6-2.9-6.5-6.5-6.5c-1.7,0-3.2,0.7-4.3,1.7
				c1.2-1.3,2.9-2.2,4.8-2.2C234.5,539.6,237.4,542.5,237.4,546.1z"/>
		</g>
		<g>
			<g>
				<circle class="st23" cx="206" cy="571" r="6.5"/>
				<circle class="st24" cx="207.1" cy="569.9" r="6.5"/>
				<path class="st3" d="M213.6,569.9c0,1.9-0.8,3.6-2.2,4.8c1-1.2,1.7-2.7,1.7-4.3c0-3.6-2.9-6.5-6.5-6.5c-1.7,0-3.2,0.7-4.3,1.7
					c1.2-1.3,2.9-2.2,4.8-2.2C210.7,563.4,213.6,566.3,213.6,569.9z"/>
			</g>
			<g>
				<circle class="st23" cx="206" cy="547.2" r="6.5"/>
				<circle class="st24" cx="207.1" cy="546.1" r="6.5"/>
				<path class="st3" d="M213.6,546.1c0,1.9-0.8,3.6-2.2,4.8c1-1.2,1.7-2.7,1.7-4.3c0-3.6-2.9-6.5-6.5-6.5c-1.7,0-3.2,0.7-4.3,1.7
					c1.2-1.3,2.9-2.2,4.8-2.2C210.7,539.6,213.6,542.5,213.6,546.1z"/>
			</g>
		</g>
		<g>
			<g>
				<circle class="st23" cx="181.2" cy="547.2" r="6.5"/>
				<circle class="st24" cx="182.3" cy="546.1" r="6.5"/>
				<path class="st3" d="M188.9,546.1c0,1.9-0.8,3.6-2.2,4.8c1-1.2,1.7-2.7,1.7-4.3c0-3.6-2.9-6.5-6.5-6.5c-1.7,0-3.2,0.7-4.3,1.7
					c1.2-1.3,2.9-2.2,4.8-2.2C186,539.6,188.9,542.5,188.9,546.1z"/>
			</g>
			<g>
				<g>
					<circle class="st23" cx="157.4" cy="571" r="6.5"/>
					<circle class="st24" cx="158.5" cy="569.9" r="6.5"/>
					<path class="st3" d="M165.1,569.9c0,1.9-0.8,3.6-2.2,4.8c1-1.2,1.7-2.7,1.7-4.3c0-3.6-2.9-6.5-6.5-6.5c-1.7,0-3.2,0.7-4.3,1.7
						c1.2-1.3,2.9-2.2,4.8-2.2C162.2,563.4,165.1,566.3,165.1,569.9z"/>
				</g>
				<g>
					<circle class="st23" cx="157.4" cy="547.2" r="6.5"/>
					<circle class="st24" cx="158.5" cy="546.1" r="6.5"/>
					<path class="st3" d="M165.1,546.1c0,1.9-0.8,3.6-2.2,4.8c1-1.2,1.7-2.7,1.7-4.3c0-3.6-2.9-6.5-6.5-6.5c-1.7,0-3.2,0.7-4.3,1.7
						c1.2-1.3,2.9-2.2,4.8-2.2C162.2,539.6,165.1,542.5,165.1,546.1z"/>
				</g>
			</g>
			<g>
				<circle class="st23" cx="181.2" cy="571" r="6.5"/>
				<circle class="st24" cx="182.3" cy="569.9" r="6.5"/>
				<path class="st3" d="M188.9,569.9c0,1.9-0.8,3.6-2.2,4.8c1-1.2,1.7-2.7,1.7-4.3c0-3.6-2.9-6.5-6.5-6.5c-1.7,0-3.2,0.7-4.3,1.7
					c1.2-1.3,2.9-2.2,4.8-2.2C186,563.4,188.9,566.3,188.9,569.9z"/>
			</g>
		</g>
		<g>
			<circle class="st23" cx="229.8" cy="571" r="6.5"/>
			<circle class="st24" cx="230.9" cy="569.9" r="6.5"/>
			<path class="st3" d="M237.4,569.9c0,1.9-0.8,3.6-2.2,4.8c1-1.2,1.7-2.7,1.7-4.3c0-3.6-2.9-6.5-6.5-6.5c-1.7,0-3.2,0.7-4.3,1.7
				c1.2-1.3,2.9-2.2,4.8-2.2C234.5,563.4,237.4,566.3,237.4,569.9z"/>
		</g>
	</g>
</g>
<g>
	<rect x="97" y="534.3" class="st25" width="48.6" height="48.6"/>
	<g>
		<g>
			<circle class="st26" cx="132.7" cy="547.2" r="6.5"/>
			<circle class="st27" cx="133.8" cy="546.1" r="6.5"/>
			<path class="st3" d="M133.8,539.6c-1.9,0-3.6,0.8-4.8,2.2c1.2-1,2.7-1.7,4.3-1.7c3.6,0,6.5,2.9,6.5,6.5c0,1.7-0.7,3.2-1.7,4.3
				c1.3-1.2,2.2-2.9,2.2-4.8C140.3,542.5,137.4,539.6,133.8,539.6z"/>
		</g>
		<g>
			<g>
				<circle class="st26" cx="108.9" cy="571" r="6.5"/>
				<circle class="st27" cx="110" cy="569.9" r="6.5"/>
				<path class="st3" d="M110,563.4c-1.9,0-3.6,0.8-4.8,2.2c1.2-1,2.7-1.7,4.3-1.7c3.6,0,6.5,2.9,6.5,6.5c0,1.7-0.7,3.2-1.7,4.3
					c1.3-1.2,2.2-2.9,2.2-4.8C116.5,566.3,113.6,563.4,110,563.4z"/>
			</g>
			<g>
				<circle class="st26" cx="132.7" cy="571" r="6.5"/>
				<circle class="st27" cx="133.8" cy="569.9" r="6.5"/>
				<path class="st3" d="M133.8,563.4c-1.9,0-3.6,0.8-4.8,2.2c1.2-1,2.7-1.7,4.3-1.7c3.6,0,6.5,2.9,6.5,6.5c0,1.7-0.7,3.2-1.7,4.3
					c1.3-1.2,2.2-2.9,2.2-4.8C140.3,566.3,137.4,563.4,133.8,563.4z"/>
			</g>
		</g>
		<g>
			<circle class="st26" cx="108.9" cy="547.2" r="6.5"/>
			<circle class="st27" cx="110" cy="546.1" r="6.5"/>
			<path class="st3" d="M110,539.6c-1.9,0-3.6,0.8-4.8,2.2c1.2-1,2.7-1.7,4.3-1.7c3.6,0,6.5,2.9,6.5,6.5c0,1.7-0.7,3.2-1.7,4.3
				c1.3-1.2,2.2-2.9,2.2-4.8C116.5,542.5,113.6,539.6,110,539.6z"/>
		</g>
	</g>
</g>
<g>
	<rect x="145.6" y="437.1" class="st28" width="48.6" height="97.1"/>
	<g>
		<g>
			<circle class="st29" cx="181.2" cy="450.1" r="6.5"/>
			<circle class="st30" cx="182.3" cy="449" r="6.5"/>
			<path class="st3" d="M182.4,442.5c-1.9,0-3.6,0.8-4.8,2.2c1.2-1,2.7-1.7,4.3-1.7c3.6,0,6.5,2.9,6.5,6.5c0,1.7-0.7,3.2-1.7,4.3
				c1.3-1.2,2.2-2.9,2.2-4.8C188.9,445.4,186,442.5,182.4,442.5z"/>
		</g>
		<g>
			<g>
				<circle class="st29" cx="157.4" cy="473.9" r="6.5"/>
				<circle class="st30" cx="158.5" cy="472.8" r="6.5"/>
				<path class="st3" d="M158.6,466.3c-1.9,0-3.6,0.8-4.8,2.2c1.2-1,2.7-1.7,4.3-1.7c3.6,0,6.5,2.9,6.5,6.5c0,1.7-0.7,3.2-1.7,4.3
					c1.3-1.2,2.2-2.9,2.2-4.8C165.1,469.2,162.2,466.3,158.6,466.3z"/>
			</g>
			<g>
				<circle class="st29" cx="181.2" cy="473.9" r="6.5"/>
				<circle class="st30" cx="182.3" cy="472.8" r="6.5"/>
				<path class="st3" d="M182.4,466.3c-1.9,0-3.6,0.8-4.8,2.2c1.2-1,2.7-1.7,4.3-1.7c3.6,0,6.5,2.9,6.5,6.5c0,1.7-0.7,3.2-1.7,4.3
					c1.3-1.2,2.2-2.9,2.2-4.8C188.9,469.2,186,466.3,182.4,466.3z"/>
			</g>
		</g>
		<g>
			<g>
				<circle class="st29" cx="181.2" cy="498.7" r="6.5"/>
				<circle class="st30" cx="182.3" cy="497.6" r="6.5"/>
				<path class="st3" d="M182.4,491c-1.9,0-3.6,0.8-4.8,2.2c1.2-1,2.7-1.7,4.3-1.7c3.6,0,6.5,2.9,6.5,6.5c0,1.7-0.7,3.2-1.7,4.3
					c1.3-1.2,2.2-2.9,2.2-4.8C188.9,493.9,186,491,182.4,491z"/>
			</g>
			<g>
				<g>
					<circle class="st29" cx="157.4" cy="522.5" r="6.5"/>
					<circle class="st30" cx="158.5" cy="521.4" r="6.5"/>
					<path class="st3" d="M158.6,514.8c-1.9,0-3.6,0.8-4.8,2.2c1.2-1,2.7-1.7,4.3-1.7c3.6,0,6.5,2.9,6.5,6.5c0,1.7-0.7,3.2-1.7,4.3
						c1.3-1.2,2.2-2.9,2.2-4.8C165.1,517.7,162.2,514.8,158.6,514.8z"/>
				</g>
				<g>
					<circle class="st29" cx="181.2" cy="522.5" r="6.5"/>
					<circle class="st30" cx="182.3" cy="521.4" r="6.5"/>
					<path class="st3" d="M182.4,514.8c-1.9,0-3.6,0.8-4.8,2.2c1.2-1,2.7-1.7,4.3-1.7c3.6,0,6.5,2.9,6.5,6.5c0,1.7-0.7,3.2-1.7,4.3
						c1.3-1.2,2.2-2.9,2.2-4.8C188.9,517.7,186,514.8,182.4,514.8z"/>
				</g>
			</g>
			<g>
				<circle class="st29" cx="157.4" cy="498.7" r="6.5"/>
				<circle class="st30" cx="158.5" cy="497.6" r="6.5"/>
				<path class="st3" d="M158.6,491c-1.9,0-3.6,0.8-4.8,2.2c1.2-1,2.7-1.7,4.3-1.7c3.6,0,6.5,2.9,6.5,6.5c0,1.7-0.7,3.2-1.7,4.3
					c1.3-1.2,2.2-2.9,2.2-4.8C165.1,493.9,162.2,491,158.6,491z"/>
			</g>
		</g>
		<g>
			<circle class="st29" cx="157.4" cy="450.1" r="6.5"/>
			<circle class="st30" cx="158.5" cy="449" r="6.5"/>
			<path class="st3" d="M158.6,442.5c-1.9,0-3.6,0.8-4.8,2.2c1.2-1,2.7-1.7,4.3-1.7c3.6,0,6.5,2.9,6.5,6.5c0,1.7-0.7,3.2-1.7,4.3
				c1.3-1.2,2.2-2.9,2.2-4.8C165.1,445.4,162.2,442.5,158.6,442.5z"/>
		</g>
	</g>
</g>
<g>
	
		<rect x="121.3" y="607.1" transform="matrix(6.123234e-17 -1 1 6.123234e-17 -510.1021 801.3265)" class="st28" width="48.6" height="97.1"/>
	<g>
		<g>
			<circle class="st29" cx="181.2" cy="644.4" r="6.5"/>
			<circle class="st30" cx="182.3" cy="643.3" r="6.5"/>
			<path class="st3" d="M188.9,643.2c0,1.9-0.8,3.6-2.2,4.8c1-1.2,1.7-2.7,1.7-4.3c0-3.6-2.9-6.5-6.5-6.5c-1.7,0-3.2,0.7-4.3,1.7
				c1.2-1.3,2.9-2.2,4.8-2.2C186,636.7,188.9,639.7,188.9,643.2z"/>
		</g>
		<g>
			<g>
				<circle class="st29" cx="157.4" cy="668.2" r="6.5"/>
				<circle class="st30" cx="158.5" cy="667.1" r="6.5"/>
				<path class="st3" d="M165.1,667c0,1.9-0.8,3.6-2.2,4.8c1-1.2,1.7-2.7,1.7-4.3c0-3.6-2.9-6.5-6.5-6.5c-1.7,0-3.2,0.7-4.3,1.7
					c1.2-1.3,2.9-2.2,4.8-2.2C162.2,660.5,165.1,663.4,165.1,667z"/>
			</g>
			<g>
				<circle class="st29" cx="157.4" cy="644.4" r="6.5"/>
				<circle class="st30" cx="158.5" cy="643.3" r="6.5"/>
				<path class="st3" d="M165.1,643.2c0,1.9-0.8,3.6-2.2,4.8c1-1.2,1.7-2.7,1.7-4.3c0-3.6-2.9-6.5-6.5-6.5c-1.7,0-3.2,0.7-4.3,1.7
					c1.2-1.3,2.9-2.2,4.8-2.2C162.2,636.7,165.1,639.7,165.1,643.2z"/>
			</g>
		</g>
		<g>
			<g>
				<circle class="st29" cx="132.6" cy="644.4" r="6.5"/>
				<circle class="st30" cx="133.8" cy="643.3" r="6.5"/>
				<path class="st3" d="M140.3,643.2c0,1.9-0.8,3.6-2.2,4.8c1-1.2,1.7-2.7,1.7-4.3c0-3.6-2.9-6.5-6.5-6.5c-1.7,0-3.2,0.7-4.3,1.7
					c1.2-1.3,2.9-2.2,4.8-2.2C137.4,636.7,140.3,639.7,140.3,643.2z"/>
			</g>
			<g>
				<g>
					<circle class="st29" cx="108.9" cy="668.2" r="6.5"/>
					<circle class="st30" cx="110" cy="667.1" r="6.5"/>
					<path class="st3" d="M116.5,667c0,1.9-0.8,3.6-2.2,4.8c1-1.2,1.7-2.7,1.7-4.3c0-3.6-2.9-6.5-6.5-6.5c-1.7,0-3.2,0.7-4.3,1.7
						c1.2-1.3,2.9-2.2,4.8-2.2C113.6,660.5,116.5,663.4,116.5,667z"/>
				</g>
				<g>
					<circle class="st29" cx="108.9" cy="644.4" r="6.5"/>
					<circle class="st30" cx="110" cy="643.3" r="6.5"/>
					<path class="st3" d="M116.5,643.2c0,1.9-0.8,3.6-2.2,4.8c1-1.2,1.7-2.7,1.7-4.3c0-3.6-2.9-6.5-6.5-6.5c-1.7,0-3.2,0.7-4.3,1.7
						c1.2-1.3,2.9-2.2,4.8-2.2C113.6,636.7,116.5,639.7,116.5,643.2z"/>
				</g>
			</g>
			<g>
				<circle class="st29" cx="132.6" cy="668.2" r="6.5"/>
				<circle class="st30" cx="133.8" cy="667.1" r="6.5"/>
				<path class="st3" d="M140.3,667c0,1.9-0.8,3.6-2.2,4.8c1-1.2,1.7-2.7,1.7-4.3c0-3.6-2.9-6.5-6.5-6.5c-1.7,0-3.2,0.7-4.3,1.7
					c1.2-1.3,2.9-2.2,4.8-2.2C137.4,660.5,140.3,663.4,140.3,667z"/>
			</g>
		</g>
		<g>
			<circle class="st29" cx="181.2" cy="668.2" r="6.5"/>
			<circle class="st30" cx="182.3" cy="667.1" r="6.5"/>
			<path class="st3" d="M188.9,667c0,1.9-0.8,3.6-2.2,4.8c1-1.2,1.7-2.7,1.7-4.3c0-3.6-2.9-6.5-6.5-6.5c-1.7,0-3.2,0.7-4.3,1.7
				c1.2-1.3,2.9-2.2,4.8-2.2C186,660.5,188.9,663.4,188.9,667z"/>
		</g>
	</g>
</g>
</svg>
