<?xml version="1.0" encoding="utf-8"?>
<!-- Generator: Adobe Illustrator 21.1.0, SVG Export Plug-In . SVG Version: 6.00 Build 0)  -->
<svg version="1.1" id="Слой_1" xmlns="http://www.w3.org/2000/svg" xmlns:xlink="http://www.w3.org/1999/xlink" x="0px" y="0px"
	 viewBox="0 0 63 63" style="enable-background:new 0 0 63 63;" xml:space="preserve">
<style type="text/css">
	.st0{fill:#9B5AB6;}
	.st1{fill:#834896;}
	.st2{fill:#19BC9B;}
	.st3{fill:#2880B9;}
	.st4{fill:#3398DB;}
	.st5{fill:#BD3E25;}
	.st6{fill:#E05B49;}
</style>
<g>
	<path class="st0" d="M63,31.5C63,48.9,48.9,63,31.5,63C14.1,63,0,48.9,0,31.5C0,14.1,14.1,0,31.5,0C48.9,0,63,14.1,63,31.5z"/>
	<path class="st1" d="M63,31.5c0-0.1,0-0.1,0-0.2L49.9,18.2h-0.2L44,12.6l-6.6,2.1l1.8,1.8L13.1,35.9l4.4,4.4l0,0l0.1,0.1h-0.8h-3.5
		v10l12,12c2,0.4,4.1,0.6,6.2,0.6C48.9,63,63,48.9,63,31.5z"/>
	<polygon class="st2" points="44,12.6 37.4,14.7 39.3,16.4 13.1,35.9 13.8,36.7 40.1,17 41.7,18.5 	"/>
	<rect x="16.8" y="40.4" class="st3" width="3.5" height="10"/>
	<rect x="13.3" y="40.4" class="st4" width="3.5" height="10"/>
	<rect x="26.7" y="33.5" class="st3" width="3.5" height="16.9"/>
	<rect x="23.2" y="33.5" class="st4" width="3.5" height="16.9"/>
	<rect x="33" y="27.4" class="st4" width="3.5" height="23"/>
	<rect x="36.5" y="27.4" class="st3" width="3.5" height="23"/>
	<rect x="46.4" y="18.2" class="st5" width="3.5" height="32.2"/>
	<rect x="42.9" y="18.2" class="st6" width="3.5" height="32.2"/>
</g>
</svg>
