<?xml version="1.0" encoding="utf-8"?>
<!-- Generator: Adobe Illustrator 21.1.0, SVG Export Plug-In . SVG Version: 6.00 Build 0)  -->
<svg version="1.1" id="Слой_1" xmlns="http://www.w3.org/2000/svg" xmlns:xlink="http://www.w3.org/1999/xlink" x="0px" y="0px"
	 viewBox="0 0 333.2 680" style="enable-background:new 0 0 333.2 680;" xml:space="preserve">
<style type="text/css">
	.st0{fill:none;stroke:#2D2D2D;stroke-width:0.2;stroke-dasharray:0.6;}
	.st1{fill:#2D2D2D;}
	.st2{fill:none;stroke:#2D2D2D;stroke-width:2;stroke-dasharray:0.6;}
	.st3{fill:none;stroke:#2D2D2D;}
	.st4{fill:#494B4C;}
	.st5{fill:#A7D8DE;}
	.st6{fill:#0097D6;}
	.st7{fill:#E1495C;}
	.st8{fill:#FDB913;}
</style>
<title>Artbox</title>
<g>
	<g>
		<polyline class="st0" points="409.7,466.9 388.2,466.9 388.2,620.2 		"/>
		<circle class="st1" cx="388.2" cy="466.4" r="5.4"/>
		<circle class="st1" cx="388.2" cy="619.7" r="5.4"/>
		<circle class="st1" cx="413.8" cy="466.4" r="5.4"/>
		<circle class="st1" cx="413.8" cy="619.7" r="5.4"/>
	</g>
	<line class="st0" x1="413.7" y1="619.7" x2="388.2" y2="619.7"/>
</g>
<g>
	<polyline class="st2" points="316,182 316,151.4 260.9,151.4 	"/>
	<ellipse class="st1" cx="316.5" cy="151.4" rx="5.4" ry="5.4"/>
	<circle class="st1" cx="316.5" cy="181.7" r="5.4"/>
	<ellipse class="st1" cx="261.4" cy="151.4" rx="5.4" ry="5.4"/>
</g>
<g>
	<polyline class="st0" points="483.2,348.5 483.2,389.4 428.1,389.4 	"/>
	<circle class="st1" cx="483.6" cy="389.4" r="5.4"/>
	<ellipse class="st1" cx="483.6" cy="349.2" rx="5.4" ry="5.4"/>
	<circle class="st1" cx="428.5" cy="389.4" r="5.4"/>
</g>
<g>
	<line class="st2" x1="298.9" y1="390.5" x2="260.9" y2="390.5"/>
	<path class="st1" d="M266.2,391c0-3-2.4-5.4-5.4-5.4s-5.4,2.4-5.4,5.4s2.4,5.3,5.4,5.3C263.8,396.3,266.2,393.9,266.2,391z"/>
	<path class="st1" d="M303.8,391c0-3-2.4-5.4-5.4-5.4S293,388,293,391s2.4,5.3,5.4,5.3S303.8,393.9,303.8,391z"/>
</g>
<g>
	<line class="st0" x1="-16.9" y1="145.5" x2="-38.3" y2="145.5"/>
	<circle class="st1" cx="-38.3" cy="145.5" r="5.4"/>
	<ellipse class="st1" cx="-18.7" cy="145.5" rx="5.4" ry="5.4"/>
</g>
<g>
	<polyline class="st2" points="160.7,277.3 160.7,246.7 105.7,246.7 	"/>
	<circle class="st1" cx="161.2" cy="246.7" r="5.4"/>
	<circle class="st1" cx="161.2" cy="276.8" r="5.4"/>
	<circle class="st1" cx="106.1" cy="246.7" r="5.4"/>
</g>
<polyline class="st2" points="182.2,277.3 182.2,145.7 105.7,145.7 "/>
<circle class="st1" cx="182.7" cy="145.7" r="5.4"/>
<path class="st1" d="M182.6,282.4c-3,0-5.4-2.4-5.4-5.4s2.4-5.4,5.4-5.4s5.4,2.4,5.4,5.4S185.6,282.4,182.6,282.4z"/>
<ellipse class="st1" cx="106.1" cy="145.7" rx="5.4" ry="5.4"/>
<polyline class="st2" points="182.2,504.1 182.2,634.2 105.7,634.2 "/>
<circle class="st1" cx="182.7" cy="634.2" r="5.4"/>
<path class="st1" d="M182.6,499.4c-3,0-5.4,2.4-5.4,5.4s2.4,5.4,5.4,5.4s5.4-2.4,5.4-5.4S185.6,499.4,182.6,499.4z"/>
<circle class="st1" cx="106.1" cy="634.2" r="5.4"/>
<g>
	<polyline class="st2" points="227.9,358 227.9,573.8 182,573.8 	"/>
	<ellipse class="st1" cx="228.4" cy="573.8" rx="5.4" ry="5.4"/>
	<circle class="st1" cx="228.4" cy="358.5" r="5.4"/>
	<ellipse class="st1" cx="182.5" cy="573.8" rx="5.4" ry="5.4"/>
</g>
<polyline class="st2" points="203.6,277.3 203.6,44.7 105.7,44.7 "/>
<ellipse class="st1" cx="204.1" cy="44.7" rx="5.4" ry="5.4"/>
<ellipse class="st1" cx="204.1" cy="277.3" rx="5.4" ry="5.4"/>
<circle class="st1" cx="106.1" cy="44.7" r="5.4"/>
<g>
	<line class="st0" x1="-91.4" y1="331.1" x2="-91.4" y2="204.1"/>
	<circle class="st1" cx="-91.4" cy="331.6" r="5.4"/>
	<circle class="st1" cx="-91.4" cy="204.6" r="5.4"/>
</g>
<g>
	<polyline class="st2" points="149.5,503.3 149.5,543.1 -38.8,543.1 	"/>
	<path class="st1" d="M150,537.7c-3,0-5.4,2.4-5.4,5.4s2.4,5.4,5.4,5.4s5.4-2.4,5.4-5.4C155.3,540.1,152.9,537.7,150,537.7z"/>
	<ellipse class="st1" cx="150" cy="503.7" rx="5.4" ry="5.4"/>
	<path class="st1" d="M-38.3,537.7c-3,0-5.4,2.4-5.4,5.4s2.4,5.4,5.4,5.4s5.4-2.4,5.4-5.4C-32.9,540.1-35.3,537.7-38.3,537.7z"/>
</g>
<g>
	<g>
		<line class="st3" x1="377.8" y1="239.5" x2="356.1" y2="239.5"/>
		<path class="st1" d="M356.6,244.9c-3,0-5.3-2.4-5.3-5.4s2.4-5.4,5.3-5.4c3,0,5.4,2.4,5.4,5.4C362,242.4,359.6,244.9,356.6,244.9z"
			/>
		<circle class="st1" cx="377.5" cy="239.5" r="5.4"/>
	</g>
	<g>
		<rect x="394.9" y="152.3" class="st4" width="173.1" height="174.5"/>
	</g>
	<rect x="409.1" y="166.6" class="st5" width="144.8" height="145.9"/>
</g>
<g>
	<rect x="246.6" y="48.9" class="st4" width="86.6" height="87.2"/>
	<rect x="253.7" y="56" class="st6" width="72.4" height="72.9"/>
</g>
<g>
	<g>
		<g>
			<rect x="236.6" y="523.5" class="st4" width="96.6" height="97.3"/>
		</g>
		<rect x="244.5" y="531.5" class="st5" width="80.8" height="81.3"/>
	</g>
</g>
<g>
	<g>
		<rect x="-0.1" class="st4" width="86.6" height="87.2"/>
	</g>
	<rect x="7" y="7.2" class="st5" width="72.4" height="72.9"/>
</g>
<g>
	<g>
		<rect x="-0.1" y="101.6" class="st4" width="86.6" height="87.2"/>
	</g>
	<rect x="7" y="108.8" class="st7" width="72.4" height="72.9"/>
</g>
<g>
	<g>
		<rect x="-0.1" y="203.2" class="st4" width="86.6" height="87.2"/>
	</g>
	<rect x="7" y="210.4" class="st8" width="72.4" height="72.9"/>
</g>
<g>
	<g>
		<rect x="-0.1" y="593.3" class="st4" width="86.6" height="87.2"/>
	</g>
	<rect x="7" y="600.4" class="st7" width="72.4" height="72.9"/>
</g>
<g>
	<g>
		<g>
			<rect x="-136" y="349.9" class="st4" width="86.6" height="87.2"/>
			
				<image style="overflow:visible;opacity:0.7;enable-background:new    ;" width="13" height="86" xlink:href="F810A00.png"  transform="matrix(1 0 0 1 -148 352)">
			</image>
		</g>
		<rect x="-128.9" y="357.1" class="st5" width="72.4" height="72.9"/>
	</g>
</g>
<g>
	<g>
		<g>
			<rect x="-136" y="101.5" class="st4" width="86.6" height="87.2"/>
			
				<image style="overflow:visible;opacity:0.7;enable-background:new    ;" width="13" height="85" xlink:href="F810A01.png"  transform="matrix(1 0 0 1 -148 104)">
			</image>
		</g>
		<rect x="-128.9" y="108.6" class="st6" width="72.4" height="72.9"/>
	</g>
</g>
<g>
	<g>
		<g>
			<rect x="-136" y="499.7" class="st4" width="86.6" height="87.2"/>
			
				<image style="overflow:visible;opacity:0.7;enable-background:new    ;" width="13" height="85" xlink:href="F810A07.png"  transform="matrix(1 0 0 1 -148 502)">
			</image>
		</g>
		<rect x="-128.9" y="506.8" class="st8" width="72.4" height="72.9"/>
	</g>
</g>
<g>
	<g>
		<rect x="247.2" y="195.9" class="st4" width="86.6" height="87.2"/>
	</g>
	<rect x="254.3" y="203" class="st8" width="72.4" height="72.9"/>
</g>
<g>
	<g>
		<rect x="72.9" y="306" class="st4" width="173.1" height="174.5"/>
		<rect x="87.1" y="320.3" class="st7" width="144.8" height="145.9"/>
	</g>
</g>
<g>
	<g>
		<polyline class="st0" points="378.1,671 378.1,726.1 -87.2,726.1 -87.2,605.7 		"/>
		<path class="st1" d="M372.7,726.6c0-3,2.4-5.4,5.4-5.4s5.4,2.4,5.4,5.4s-2.4,5.4-5.4,5.4C375.1,731.9,372.7,729.5,372.7,726.6z"/>
		<path class="st1" d="M372.7,671.5c0-3,2.4-5.4,5.4-5.4s5.4,2.4,5.4,5.4s-2.4,5.4-5.4,5.4C375.1,676.8,372.7,674.4,372.7,671.5z"/>
	</g>
	
		<ellipse transform="matrix(0.7071 -0.7071 0.7071 0.7071 -454.4921 116.0849)" class="st1" cx="-87.1" cy="606.7" rx="5.4" ry="5.4"/>
</g>
</svg>
