<?xml version="1.0" encoding="utf-8"?>
<!-- Generator: Adobe Illustrator 21.1.0, SVG Export Plug-In . SVG Version: 6.00 Build 0)  -->
<svg version="1.1" id="Слой_1" xmlns="http://www.w3.org/2000/svg" xmlns:xlink="http://www.w3.org/1999/xlink" x="0px" y="0px"
	 viewBox="0 0 63 63" style="enable-background:new 0 0 63 63;" xml:space="preserve">
<style type="text/css">
	.st0{fill:#9B5AB6;}
	.st1{fill:#834896;}
	.st2{fill:#585C6E;}
	.st3{fill:#F1C30F;}
	.st4{fill:#41B7F1;}
	.st5{fill:#97CCF6;}
</style>
<g>
	<ellipse class="st0" cx="31.5" cy="31.5" rx="31.5" ry="31.5"/>
	<path class="st1" d="M63,31.5c0-1.1-0.1-2.2-0.2-3.2L51.3,16.7C49.9,15.1,47.6,14,45,14H18.1c-4.3,0-7.9,3-7.9,6.6v21.7
		c0,1.7,0.8,3.3,2.1,4.5l16,16c1,0.1,2.1,0.2,3.1,0.2C48.9,63,63,48.9,63,31.5z"/>
	<path class="st2" d="M54.4,29.7v3.1c0,0.9-0.7,1.6-1.5,1.7c-0.1,0-0.1,0-0.2,0c0,0-1.2,0-2.6,0c-0.3,0-0.6,0-0.9,0
		c-2.1,0-4.3,0-4.5,0c-1.8,0-3.3-1.5-3.3-3.3s1.5-3.3,3.3-3.3c0.2,0,2.4,0,4.5,0c0.3,0,0.6,0,0.9,0c1.4,0,2.6,0,2.6,0
		c0.1,0,0.2,0,0.2,0C53.7,28.1,54.4,28.8,54.4,29.7z M47,31.2c0-1.1-0.9-2-2-2s-2,0.9-2,2c0,1.1,0.9,2,2,2
		C46.1,33.3,47,32.4,47,31.2z"/>
	<path class="st2" d="M52.9,35.4v7c0,3.6-3.5,6.6-7.9,6.6H18.1c-4.3,0-7.9-2.9-7.9-6.6V20.6c0-3.6,3.5-6.6,7.9-6.6H45
		c4.3,0,7.9,3,7.9,6.6V27c-0.1,0-0.1,0-0.2,0h-8c-2.3,0-4.2,1.9-4.2,4.2s1.9,4.2,4.2,4.2h4.5H50h2.6C52.7,35.4,52.8,35.4,52.9,35.4z
		 M50,41v-2.6c0-0.3-0.2-0.5-0.5-0.5S49,38.1,49,38.4V41c0,0.3,0.2,0.5,0.5,0.5C49.8,41.4,50,41.2,50,41z M50,25v-2.7
		c0-0.2-0.2-0.5-0.5-0.5S49,22,49,22.3V25c0,0.3,0.2,0.5,0.5,0.5S50,25.3,50,25z M49.6,20.2c0.2-0.1,0.4-0.4,0.3-0.6
		c-0.3-0.8-1.1-1.6-2.1-2.1c-0.2-0.1-0.5,0-0.6,0.2s0,0.5,0.2,0.6c0.8,0.4,1.4,1,1.6,1.6c0.1,0.2,0.2,0.3,0.4,0.3
		C49.5,20.2,49.5,20.2,49.6,20.2z M49.7,43.8c0.1-0.2,0-0.5-0.2-0.6s-0.5,0-0.6,0.2c-0.3,0.6-1,1.1-1.8,1.5
		c-0.2,0.1-0.3,0.4-0.2,0.6c0.1,0.2,0.2,0.3,0.4,0.3c0.1,0,0.1,0,0.2,0C48.4,45.2,49.2,44.6,49.7,43.8z M45.5,17.3
		c0-0.2-0.2-0.5-0.5-0.5h-2.7c-0.3,0-0.5,0.2-0.5,0.5s0.2,0.5,0.5,0.5H45C45.3,17.8,45.5,17.6,45.5,17.3z M45.1,45.7
		c0-0.3-0.2-0.5-0.5-0.5H42c-0.3,0-0.5,0.2-0.5,0.5c0,0.2,0.2,0.5,0.5,0.5h2.7C44.9,46.1,45.1,45.9,45.1,45.7z M40.1,17.3
		c0-0.2-0.2-0.5-0.5-0.5H37c-0.3,0-0.5,0.2-0.5,0.5s0.2,0.5,0.5,0.5h2.7C39.9,17.8,40.1,17.6,40.1,17.3z M39.8,45.7
		c0-0.3-0.2-0.5-0.5-0.5h-2.7c-0.3,0-0.5,0.2-0.5,0.5c0,0.2,0.2,0.5,0.5,0.5h2.7C39.6,46.1,39.8,45.9,39.8,45.7z M34.8,17.3
		c0-0.2-0.2-0.5-0.5-0.5h-2.7c-0.3,0-0.5,0.2-0.5,0.5s0.2,0.5,0.5,0.5h2.7C34.6,17.8,34.8,17.6,34.8,17.3z M34.5,45.7
		c0-0.3-0.2-0.5-0.5-0.5h-2.7c-0.3,0-0.5,0.2-0.5,0.5c0,0.2,0.2,0.5,0.5,0.5H34C34.3,46.1,34.5,45.9,34.5,45.7z M29.5,17.3
		c0-0.2-0.2-0.5-0.5-0.5h-2.7c-0.3,0-0.5,0.2-0.5,0.5s0.2,0.5,0.5,0.5H29C29.3,17.8,29.5,17.6,29.5,17.3z M29.2,45.7
		c0-0.3-0.2-0.5-0.5-0.5H26c-0.3,0-0.5,0.2-0.5,0.5c0,0.2,0.2,0.5,0.5,0.5h2.7C29,46.1,29.2,45.9,29.2,45.7z M24.2,17.3
		c0-0.2-0.2-0.5-0.5-0.5H21c-0.3,0-0.5,0.2-0.5,0.5s0.2,0.5,0.5,0.5h2.7C24,17.8,24.2,17.6,24.2,17.3z M23.9,45.7
		c0-0.3-0.2-0.5-0.5-0.5h-2.7c-0.3,0-0.5,0.2-0.5,0.5c0,0.2,0.2,0.5,0.5,0.5h2.7C23.7,46.1,23.9,45.9,23.9,45.7z M18.9,17.3
		c0-0.2-0.2-0.5-0.5-0.5h-0.3c-0.8,0-1.7,0.2-2.4,0.5c-0.2,0.1-0.3,0.4-0.2,0.6s0.2,0.3,0.4,0.3c0.1,0,0.1,0,0.2,0
		c0.6-0.3,1.4-0.4,2.1-0.4h0.3C18.7,17.8,18.9,17.6,18.9,17.3z M18.6,45.7c0-0.3-0.2-0.5-0.5-0.5c-0.8,0-1.7-0.2-2.4-0.5
		c-0.2-0.1-0.5,0-0.6,0.2s0,0.5,0.2,0.6c0.8,0.4,1.8,0.6,2.8,0.6l0,0C18.4,46.1,18.6,45.9,18.6,45.7z M14.3,19.7
		c0.1-0.2,0-0.5-0.2-0.6s-0.5,0-0.6,0.2c-0.2,0.4-0.4,0.9-0.4,1.4V22c0,0.3,0.2,0.5,0.5,0.5s0.5-0.2,0.5-0.5v-1.4
		C14,20.3,14.1,20,14.3,19.7z M13.9,43.7c0.2-0.1,0.3-0.4,0.3-0.6C14,42.8,14,42.6,14,42.4v-1.7c0-0.3-0.2-0.5-0.5-0.5
		S13,40.4,13,40.7v1.7c0,0.4,0.1,0.7,0.2,1.1c0.1,0.2,0.2,0.3,0.4,0.3C13.8,43.7,13.8,43.7,13.9,43.7z M14,38v-2.6
		c0-0.3-0.2-0.5-0.5-0.5S13,35.1,13,35.4V38c0,0.3,0.2,0.5,0.5,0.5C13.8,38.4,14,38.2,14,38z M14,32.7V30c0-0.3-0.2-0.5-0.5-0.5
		S13,29.7,13,30v2.6c0,0.3,0.2,0.5,0.5,0.5S14,32.9,14,32.7z M14,27.4v-2.6c0-0.3-0.2-0.5-0.5-0.5S13,24.5,13,24.8v2.6
		c0,0.3,0.2,0.5,0.5,0.5C13.8,27.8,14,27.6,14,27.4z"/>
	<path class="st3" d="M50,38.3V41c0,0.3-0.2,0.5-0.5,0.5S49,41.3,49,41v-2.6c0-0.3,0.2-0.5,0.5-0.5C49.8,37.8,50,38.1,50,38.3z"/>
	<path class="st3" d="M50,22.4V25c0,0.3-0.2,0.5-0.5,0.5S49,25.3,49,25v-2.7c0-0.2,0.2-0.5,0.5-0.5C49.8,21.9,50,22.1,50,22.4z"/>
	<path class="st3" d="M49.8,19.6c0.1,0.2,0,0.5-0.3,0.6c-0.1,0-0.1,0-0.2,0c-0.2,0-0.4-0.1-0.4-0.3c-0.3-0.6-0.8-1.2-1.6-1.6
		c-0.2-0.1-0.3-0.4-0.2-0.6s0.4-0.3,0.6-0.2C48.8,18,49.5,18.7,49.8,19.6z"/>
	<path class="st3" d="M49.5,43.2c0.2,0.1,0.3,0.4,0.2,0.6c-0.4,0.8-1.2,1.4-2.2,1.9c-0.1,0-0.1,0-0.2,0c-0.2,0-0.3-0.1-0.4-0.3
		c-0.1-0.2,0-0.5,0.2-0.6c0.8-0.3,1.4-0.9,1.8-1.5C49,43.1,49.3,43,49.5,43.2z"/>
	<path class="st4" d="M45,29.2c1.1,0,2,0.9,2,2c0,1.1-0.9,2-2,2s-2-0.9-2-2C43,30.1,43.9,29.2,45,29.2z M46.1,32.3
		c0.2-0.3,0.4-0.6,0.4-1c0-0.8-0.7-1.5-1.5-1.5c-0.5,0-1,0.3-1.3,0.7c0.3-0.3,0.7-0.5,1.1-0.5c0.8,0,1.5,0.7,1.5,1.5
		C46.3,31.8,46.2,32,46.1,32.3z"/>
	<path class="st3" d="M45,16.9c0.3,0,0.5,0.2,0.5,0.5s-0.2,0.5-0.5,0.5h-2.7c-0.3,0-0.5-0.2-0.5-0.5c0-0.2,0.2-0.5,0.5-0.5H45z"/>
	<path class="st3" d="M44.7,45.2c0.3,0,0.5,0.2,0.5,0.5c0,0.2-0.2,0.5-0.5,0.5H42c-0.3,0-0.5-0.2-0.5-0.5s0.2-0.5,0.5-0.5H44.7z"/>
	<path class="st5" d="M46.5,31.3c0,0.4-0.1,0.7-0.4,1c0.1-0.2,0.2-0.5,0.2-0.8c0-0.8-0.7-1.5-1.5-1.5c-0.4,0-0.8,0.2-1.1,0.5
		c0.3-0.4,0.7-0.7,1.3-0.7C45.8,29.8,46.5,30.4,46.5,31.3z"/>
	<path class="st3" d="M39.7,16.9c0.3,0,0.5,0.2,0.5,0.5s-0.2,0.5-0.5,0.5H37c-0.3,0-0.5-0.2-0.5-0.5c0-0.2,0.2-0.5,0.5-0.5H39.7z"/>
	<path class="st3" d="M39.4,45.2c0.3,0,0.5,0.2,0.5,0.5c0,0.2-0.2,0.5-0.5,0.5h-2.7c-0.3,0-0.5-0.2-0.5-0.5s0.2-0.5,0.5-0.5H39.4z"
		/>
	<path class="st3" d="M34.4,16.9c0.3,0,0.5,0.2,0.5,0.5s-0.2,0.5-0.5,0.5h-2.7c-0.3,0-0.5-0.2-0.5-0.5c0-0.2,0.2-0.5,0.5-0.5H34.4z"
		/>
	<path class="st3" d="M34,45.2c0.3,0,0.5,0.2,0.5,0.5c0,0.2-0.2,0.5-0.5,0.5h-2.7c-0.3,0-0.5-0.2-0.5-0.5s0.2-0.5,0.5-0.5H34z"/>
	<path class="st3" d="M29.1,16.9c0.3,0,0.5,0.2,0.5,0.5s-0.2,0.5-0.5,0.5h-2.7c-0.3,0-0.5-0.2-0.5-0.5c0-0.2,0.2-0.5,0.5-0.5H29.1z"
		/>
	<path class="st3" d="M28.7,45.2c0.3,0,0.5,0.2,0.5,0.5c0,0.2-0.2,0.5-0.5,0.5H26c-0.3,0-0.5-0.2-0.5-0.5s0.2-0.5,0.5-0.5H28.7z"/>
	<path class="st3" d="M23.8,16.9c0.3,0,0.5,0.2,0.5,0.5s-0.2,0.5-0.5,0.5h-2.7c-0.3,0-0.5-0.2-0.5-0.5c0-0.2,0.2-0.5,0.5-0.5H23.8z"
		/>
	<path class="st3" d="M23.4,45.2c0.3,0,0.5,0.2,0.5,0.5c0,0.2-0.2,0.5-0.5,0.5h-2.7c-0.3,0-0.5-0.2-0.5-0.5s0.2-0.5,0.5-0.5H23.4z"
		/>
	<path class="st3" d="M18.4,16.9c0.3,0,0.5,0.2,0.5,0.5s-0.2,0.5-0.5,0.5h-0.3c-0.7,0-1.5,0.1-2.1,0.4c-0.1,0-0.1,0-0.2,0
		c-0.2,0-0.4-0.1-0.4-0.3c-0.1-0.2,0-0.5,0.2-0.6c0.8-0.3,1.6-0.5,2.4-0.5H18.4z"/>
	<path class="st3" d="M18.1,45.2c0.3,0,0.5,0.2,0.5,0.5c0,0.2-0.2,0.5-0.5,0.5l0,0c-1,0-1.9-0.2-2.8-0.6c-0.2-0.1-0.3-0.4-0.2-0.6
		c0.1-0.2,0.4-0.3,0.6-0.2C16.5,45,17.3,45.2,18.1,45.2z"/>
	<path class="st3" d="M14.1,19.1c0.2,0.1,0.3,0.4,0.2,0.6c-0.2,0.3-0.3,0.6-0.3,1V22c0,0.3-0.2,0.5-0.5,0.5S13,22.3,13,22v-1.4
		c0-0.5,0.1-1,0.4-1.4C13.6,19,13.8,18.9,14.1,19.1z"/>
	<path class="st3" d="M14.1,43.1c0.1,0.2,0,0.5-0.3,0.6c-0.1,0-0.1,0-0.2,0c-0.2,0-0.4-0.1-0.4-0.3c-0.1-0.3-0.2-0.7-0.2-1.1v-1.7
		c0-0.3,0.2-0.5,0.5-0.5s0.5,0.2,0.5,0.5v1.7C14,42.6,14,42.8,14.1,43.1z"/>
	<path class="st3" d="M14,35.3V38c0,0.3-0.2,0.5-0.5,0.5S13,38.3,13,38v-2.6c0-0.3,0.2-0.5,0.5-0.5S14,35.1,14,35.3z"/>
	<path class="st3" d="M14,30v2.6c0,0.3-0.2,0.5-0.5,0.5S13,32.9,13,32.6V30c0-0.3,0.2-0.5,0.5-0.5S14,29.8,14,30z"/>
	<path class="st3" d="M14,24.7v2.6c0,0.3-0.2,0.5-0.5,0.5S13,27.6,13,27.3v-2.6c0-0.3,0.2-0.5,0.5-0.5S14,24.4,14,24.7z"/>
</g>
<path class="st3" d="M36,30.5c0,0,1.6-0.8,1.6-3c0-2.2-2.1-3.6-4.8-3.6v-3.2H31v3.2h-1.7v-3.2h-1.9v3.2c-2.1,0-3.9,0-3.9,0v2.1h1.6
	c0.5,0,0.9,0.4,0.9,0.9v8.5c0,0.5-0.4,0.9-0.9,0.9h-1.3l-0.4,2.3c0,0,1.8,0,3.9,0v3.3h1.9v-3.3H31v3.3h1.9v-3.3c3.4,0,6-1.3,6-4.6
	S36,30.5,36,30.5z M29.5,26.1H31c0,0,3.1,0,3.1,2c0,2-3.1,2-3.1,2h-1.6V26.1z M31,36.3h-1.6V32h1.6c0,0,3.9-0.1,3.9,2.1
	C34.9,36.5,31,36.3,31,36.3z"/>
</svg>
